<svg xmlns="http://www.w3.org/2000/svg" xmlns:xlink="http://www.w3.org/1999/xlink" width="1242" height="539" viewBox="0 0 1242 539">
  <defs>
    <clipPath id="clip-path">
      <rect id="Rectángulo_35483" data-name="Rectángulo 35483" width="227.443" height="390.413" fill="#e2e2e2"/>
    </clipPath>
    <clipPath id="clip-path-2">
      <rect id="Rectángulo_35485" data-name="Rectángulo 35485" width="146.564" height="85.5" fill="none"/>
    </clipPath>
  </defs>
  <g id="Grupo_145857" data-name="Grupo 145857" transform="translate(10063 7061)">
    <rect id="Rectángulo_35476" data-name="Rectángulo 35476" width="1242" height="539" transform="translate(-10063 -7061)" fill="#ffddb9"/>
    <rect id="Rectángulo_35477" data-name="Rectángulo 35477" width="1142" height="451" transform="translate(-10013 -7017)" fill="#fff"/>
    <g id="Grupo_91664" data-name="Grupo 91664" transform="translate(-9873 -6986.706)">
      <g id="Grupo_91663" data-name="Grupo 91663" clip-path="url(#clip-path)">
        <path id="Trazado_142891" data-name="Trazado 142891" d="M244.392,3.361a1.68,1.68,0,1,0-1.681-1.681,1.681,1.681,0,0,0,1.681,1.681" transform="translate(-86.532)" fill="#e2e2e2"/>
        <path id="Trazado_142892" data-name="Trazado 142892" d="M254.943,3.361a1.68,1.68,0,1,0-1.679-1.681,1.681,1.681,0,0,0,1.679,1.681" transform="translate(-90.295)" fill="#e2e2e2"/>
        <path id="Trazado_142893" data-name="Trazado 142893" d="M265.5,3.361a1.68,1.68,0,1,0-1.68-1.681,1.681,1.681,0,0,0,1.68,1.681" transform="translate(-94.057)" fill="#e2e2e2"/>
        <path id="Trazado_142894" data-name="Trazado 142894" d="M244.392,13.914a1.681,1.681,0,1,0-1.681-1.681,1.681,1.681,0,0,0,1.681,1.681" transform="translate(-86.532 -3.762)" fill="#e2e2e2"/>
        <path id="Trazado_142895" data-name="Trazado 142895" d="M254.943,13.914a1.681,1.681,0,1,0-1.679-1.681,1.681,1.681,0,0,0,1.679,1.681" transform="translate(-90.295 -3.762)" fill="#e2e2e2"/>
        <path id="Trazado_142896" data-name="Trazado 142896" d="M265.5,13.914a1.681,1.681,0,1,0-1.68-1.681,1.681,1.681,0,0,0,1.68,1.681" transform="translate(-94.057 -3.762)" fill="#e2e2e2"/>
        <path id="Trazado_142897" data-name="Trazado 142897" d="M244.392,24.466a1.681,1.681,0,1,0-1.681-1.681,1.68,1.68,0,0,0,1.681,1.681" transform="translate(-86.532 -7.524)" fill="#e2e2e2"/>
        <path id="Trazado_142898" data-name="Trazado 142898" d="M254.943,24.466a1.681,1.681,0,1,0-1.679-1.681,1.68,1.68,0,0,0,1.679,1.681" transform="translate(-90.295 -7.524)" fill="#e2e2e2"/>
        <path id="Trazado_142899" data-name="Trazado 142899" d="M265.5,24.466a1.681,1.681,0,1,0-1.68-1.681,1.681,1.681,0,0,0,1.68,1.681" transform="translate(-94.057 -7.524)" fill="#e2e2e2"/>
        <path id="Trazado_142900" data-name="Trazado 142900" d="M276.05,24.466a1.681,1.681,0,1,0-1.681-1.681,1.681,1.681,0,0,0,1.681,1.681" transform="translate(-97.819 -7.524)" fill="#e2e2e2"/>
        <path id="Trazado_142901" data-name="Trazado 142901" d="M244.392,35.019a1.68,1.68,0,1,0-1.681-1.68,1.681,1.681,0,0,0,1.681,1.68" transform="translate(-86.532 -11.287)" fill="#e2e2e2"/>
        <path id="Trazado_142902" data-name="Trazado 142902" d="M254.943,35.019a1.68,1.68,0,1,0-1.679-1.68,1.68,1.68,0,0,0,1.679,1.68" transform="translate(-90.295 -11.287)" fill="#e2e2e2"/>
        <path id="Trazado_142903" data-name="Trazado 142903" d="M265.5,35.019a1.68,1.68,0,1,0-1.68-1.68,1.681,1.681,0,0,0,1.68,1.68" transform="translate(-94.057 -11.287)" fill="#e2e2e2"/>
        <path id="Trazado_142904" data-name="Trazado 142904" d="M276.05,35.019a1.68,1.68,0,1,0-1.681-1.68,1.681,1.681,0,0,0,1.681,1.68" transform="translate(-97.819 -11.287)" fill="#e2e2e2"/>
        <path id="Trazado_142905" data-name="Trazado 142905" d="M286.6,35.019a1.68,1.68,0,1,0-1.68-1.68,1.68,1.68,0,0,0,1.68,1.68" transform="translate(-101.582 -11.287)" fill="#e2e2e2"/>
        <path id="Trazado_142906" data-name="Trazado 142906" d="M328.813,35.019a1.68,1.68,0,1,0-1.68-1.68,1.68,1.68,0,0,0,1.68,1.68" transform="translate(-116.631 -11.287)" fill="#e2e2e2"/>
        <path id="Trazado_142907" data-name="Trazado 142907" d="M254.943,45.571a1.68,1.68,0,1,0-1.679-1.679,1.68,1.68,0,0,0,1.679,1.679" transform="translate(-90.295 -15.049)" fill="#e2e2e2"/>
        <path id="Trazado_142908" data-name="Trazado 142908" d="M265.5,45.571a1.68,1.68,0,1,0-1.68-1.679,1.68,1.68,0,0,0,1.68,1.679" transform="translate(-94.057 -15.049)" fill="#e2e2e2"/>
        <path id="Trazado_142909" data-name="Trazado 142909" d="M276.05,45.571a1.68,1.68,0,1,0-1.681-1.679,1.681,1.681,0,0,0,1.681,1.679" transform="translate(-97.819 -15.049)" fill="#e2e2e2"/>
        <path id="Trazado_142910" data-name="Trazado 142910" d="M286.6,45.571a1.68,1.68,0,1,0-1.68-1.679,1.68,1.68,0,0,0,1.68,1.679" transform="translate(-101.582 -15.049)" fill="#e2e2e2"/>
        <path id="Trazado_142911" data-name="Trazado 142911" d="M297.155,45.571a1.68,1.68,0,1,0-1.681-1.679,1.68,1.68,0,0,0,1.681,1.679" transform="translate(-105.344 -15.049)" fill="#e2e2e2"/>
        <path id="Trazado_142912" data-name="Trazado 142912" d="M307.707,45.571a1.68,1.68,0,1,0-1.68-1.679,1.679,1.679,0,0,0,1.68,1.679" transform="translate(-109.106 -15.049)" fill="#e2e2e2"/>
        <path id="Trazado_142913" data-name="Trazado 142913" d="M318.26,45.571a1.68,1.68,0,1,0-1.68-1.679,1.679,1.679,0,0,0,1.68,1.679" transform="translate(-112.868 -15.049)" fill="#e2e2e2"/>
        <path id="Trazado_142914" data-name="Trazado 142914" d="M328.813,45.571a1.68,1.68,0,1,0-1.68-1.679,1.68,1.68,0,0,0,1.68,1.679" transform="translate(-116.631 -15.049)" fill="#e2e2e2"/>
        <path id="Trazado_142915" data-name="Trazado 142915" d="M254.943,56.124a1.68,1.68,0,1,0-1.679-1.68,1.68,1.68,0,0,0,1.679,1.68" transform="translate(-90.295 -18.811)" fill="#e2e2e2"/>
        <path id="Trazado_142916" data-name="Trazado 142916" d="M265.5,56.124a1.68,1.68,0,1,0-1.68-1.68,1.681,1.681,0,0,0,1.68,1.68" transform="translate(-94.057 -18.811)" fill="#e2e2e2"/>
        <path id="Trazado_142917" data-name="Trazado 142917" d="M276.05,56.124a1.68,1.68,0,1,0-1.681-1.68,1.681,1.681,0,0,0,1.681,1.68" transform="translate(-97.819 -18.811)" fill="#e2e2e2"/>
        <path id="Trazado_142918" data-name="Trazado 142918" d="M286.6,56.124a1.68,1.68,0,1,0-1.68-1.68,1.68,1.68,0,0,0,1.68,1.68" transform="translate(-101.582 -18.811)" fill="#e2e2e2"/>
        <path id="Trazado_142919" data-name="Trazado 142919" d="M297.155,56.124a1.68,1.68,0,1,0-1.681-1.68,1.68,1.68,0,0,0,1.681,1.68" transform="translate(-105.344 -18.811)" fill="#e2e2e2"/>
        <path id="Trazado_142920" data-name="Trazado 142920" d="M307.707,56.124a1.68,1.68,0,1,0-1.68-1.68,1.68,1.68,0,0,0,1.68,1.68" transform="translate(-109.106 -18.811)" fill="#e2e2e2"/>
        <path id="Trazado_142921" data-name="Trazado 142921" d="M318.26,56.124a1.68,1.68,0,1,0-1.68-1.68,1.679,1.679,0,0,0,1.68,1.68" transform="translate(-112.868 -18.811)" fill="#e2e2e2"/>
        <path id="Trazado_142922" data-name="Trazado 142922" d="M328.813,56.124a1.68,1.68,0,1,0-1.68-1.68,1.68,1.68,0,0,0,1.68,1.68" transform="translate(-116.631 -18.811)" fill="#e2e2e2"/>
        <path id="Trazado_142923" data-name="Trazado 142923" d="M339.365,56.124a1.68,1.68,0,1,0-1.68-1.68,1.68,1.68,0,0,0,1.68,1.68" transform="translate(-120.393 -18.811)" fill="#e2e2e2"/>
        <path id="Trazado_142924" data-name="Trazado 142924" d="M349.918,56.124a1.68,1.68,0,1,0-1.68-1.68,1.679,1.679,0,0,0,1.68,1.68" transform="translate(-124.155 -18.811)" fill="#e2e2e2"/>
        <path id="Trazado_142925" data-name="Trazado 142925" d="M254.943,66.677A1.68,1.68,0,1,0,253.264,65a1.681,1.681,0,0,0,1.679,1.681" transform="translate(-90.295 -22.574)" fill="#e2e2e2"/>
        <path id="Trazado_142926" data-name="Trazado 142926" d="M265.5,66.677A1.68,1.68,0,1,0,263.816,65a1.681,1.681,0,0,0,1.68,1.681" transform="translate(-94.057 -22.574)" fill="#e2e2e2"/>
        <path id="Trazado_142927" data-name="Trazado 142927" d="M276.05,66.677A1.68,1.68,0,1,0,274.369,65a1.682,1.682,0,0,0,1.681,1.681" transform="translate(-97.819 -22.574)" fill="#e2e2e2"/>
        <path id="Trazado_142928" data-name="Trazado 142928" d="M286.6,66.677A1.68,1.68,0,1,0,284.922,65a1.681,1.681,0,0,0,1.68,1.681" transform="translate(-101.582 -22.574)" fill="#e2e2e2"/>
        <path id="Trazado_142929" data-name="Trazado 142929" d="M297.155,66.677A1.68,1.68,0,1,0,295.474,65a1.681,1.681,0,0,0,1.681,1.681" transform="translate(-105.344 -22.574)" fill="#e2e2e2"/>
        <path id="Trazado_142930" data-name="Trazado 142930" d="M307.707,66.677A1.68,1.68,0,1,0,306.027,65a1.68,1.68,0,0,0,1.68,1.681" transform="translate(-109.106 -22.574)" fill="#e2e2e2"/>
        <path id="Trazado_142931" data-name="Trazado 142931" d="M318.26,66.677A1.68,1.68,0,1,0,316.58,65a1.68,1.68,0,0,0,1.68,1.681" transform="translate(-112.868 -22.574)" fill="#e2e2e2"/>
        <path id="Trazado_142932" data-name="Trazado 142932" d="M328.813,66.677A1.68,1.68,0,1,0,327.133,65a1.681,1.681,0,0,0,1.68,1.681" transform="translate(-116.631 -22.574)" fill="#e2e2e2"/>
        <path id="Trazado_142933" data-name="Trazado 142933" d="M339.365,66.677A1.68,1.68,0,1,0,337.685,65a1.68,1.68,0,0,0,1.68,1.681" transform="translate(-120.393 -22.574)" fill="#e2e2e2"/>
        <path id="Trazado_142934" data-name="Trazado 142934" d="M349.918,66.677A1.68,1.68,0,1,0,348.238,65a1.68,1.68,0,0,0,1.68,1.681" transform="translate(-124.155 -22.574)" fill="#e2e2e2"/>
        <path id="Trazado_142935" data-name="Trazado 142935" d="M233.839,77.23a1.68,1.68,0,1,0-1.681-1.681,1.681,1.681,0,0,0,1.681,1.681" transform="translate(-82.77 -26.336)" fill="#e2e2e2"/>
        <path id="Trazado_142936" data-name="Trazado 142936" d="M244.392,77.23a1.68,1.68,0,1,0-1.681-1.681,1.681,1.681,0,0,0,1.681,1.681" transform="translate(-86.532 -26.336)" fill="#e2e2e2"/>
        <path id="Trazado_142937" data-name="Trazado 142937" d="M254.943,77.23a1.68,1.68,0,1,0-1.679-1.681,1.681,1.681,0,0,0,1.679,1.681" transform="translate(-90.295 -26.336)" fill="#e2e2e2"/>
        <path id="Trazado_142938" data-name="Trazado 142938" d="M265.5,77.23a1.68,1.68,0,1,0-1.68-1.681,1.681,1.681,0,0,0,1.68,1.681" transform="translate(-94.057 -26.336)" fill="#e2e2e2"/>
        <path id="Trazado_142939" data-name="Trazado 142939" d="M276.05,77.23a1.68,1.68,0,1,0-1.681-1.681,1.681,1.681,0,0,0,1.681,1.681" transform="translate(-97.819 -26.336)" fill="#e2e2e2"/>
        <path id="Trazado_142940" data-name="Trazado 142940" d="M286.6,77.23a1.68,1.68,0,1,0-1.68-1.681,1.681,1.681,0,0,0,1.68,1.681" transform="translate(-101.582 -26.336)" fill="#e2e2e2"/>
        <path id="Trazado_142941" data-name="Trazado 142941" d="M297.155,77.23a1.68,1.68,0,1,0-1.681-1.681,1.68,1.68,0,0,0,1.681,1.681" transform="translate(-105.344 -26.336)" fill="#e2e2e2"/>
        <path id="Trazado_142942" data-name="Trazado 142942" d="M307.707,77.23a1.68,1.68,0,1,0-1.68-1.681,1.68,1.68,0,0,0,1.68,1.681" transform="translate(-109.106 -26.336)" fill="#e2e2e2"/>
        <path id="Trazado_142943" data-name="Trazado 142943" d="M318.26,77.23a1.68,1.68,0,1,0-1.68-1.681,1.679,1.679,0,0,0,1.68,1.681" transform="translate(-112.868 -26.336)" fill="#e2e2e2"/>
        <path id="Trazado_142944" data-name="Trazado 142944" d="M328.813,77.23a1.68,1.68,0,1,0-1.68-1.681,1.68,1.68,0,0,0,1.68,1.681" transform="translate(-116.631 -26.336)" fill="#e2e2e2"/>
        <path id="Trazado_142945" data-name="Trazado 142945" d="M339.365,77.23a1.68,1.68,0,1,0-1.68-1.681,1.68,1.68,0,0,0,1.68,1.681" transform="translate(-120.393 -26.336)" fill="#e2e2e2"/>
        <path id="Trazado_142946" data-name="Trazado 142946" d="M233.839,87.782a1.68,1.68,0,1,0-1.681-1.681,1.68,1.68,0,0,0,1.681,1.681" transform="translate(-82.77 -30.099)" fill="#e2e2e2"/>
        <path id="Trazado_142947" data-name="Trazado 142947" d="M244.392,87.782a1.68,1.68,0,1,0-1.681-1.681,1.68,1.68,0,0,0,1.681,1.681" transform="translate(-86.532 -30.099)" fill="#e2e2e2"/>
        <path id="Trazado_142948" data-name="Trazado 142948" d="M254.943,87.782a1.68,1.68,0,1,0-1.679-1.681,1.68,1.68,0,0,0,1.679,1.681" transform="translate(-90.295 -30.099)" fill="#e2e2e2"/>
        <path id="Trazado_142949" data-name="Trazado 142949" d="M265.5,87.782a1.68,1.68,0,1,0-1.68-1.681,1.681,1.681,0,0,0,1.68,1.681" transform="translate(-94.057 -30.099)" fill="#e2e2e2"/>
        <path id="Trazado_142950" data-name="Trazado 142950" d="M276.05,87.782a1.68,1.68,0,1,0-1.681-1.681,1.681,1.681,0,0,0,1.681,1.681" transform="translate(-97.819 -30.099)" fill="#e2e2e2"/>
        <path id="Trazado_142951" data-name="Trazado 142951" d="M286.6,87.782a1.68,1.68,0,1,0-1.68-1.681,1.68,1.68,0,0,0,1.68,1.681" transform="translate(-101.582 -30.099)" fill="#e2e2e2"/>
        <path id="Trazado_142952" data-name="Trazado 142952" d="M297.155,87.782a1.68,1.68,0,1,0-1.681-1.681,1.68,1.68,0,0,0,1.681,1.681" transform="translate(-105.344 -30.099)" fill="#e2e2e2"/>
        <path id="Trazado_142953" data-name="Trazado 142953" d="M307.707,87.782a1.68,1.68,0,1,0-1.68-1.681,1.679,1.679,0,0,0,1.68,1.681" transform="translate(-109.106 -30.099)" fill="#e2e2e2"/>
        <path id="Trazado_142954" data-name="Trazado 142954" d="M318.26,87.782a1.68,1.68,0,1,0-1.68-1.681,1.679,1.679,0,0,0,1.68,1.681" transform="translate(-112.868 -30.099)" fill="#e2e2e2"/>
        <path id="Trazado_142955" data-name="Trazado 142955" d="M233.839,98.335a1.681,1.681,0,1,0-1.681-1.681,1.681,1.681,0,0,0,1.681,1.681" transform="translate(-82.77 -33.86)" fill="#e2e2e2"/>
        <path id="Trazado_142956" data-name="Trazado 142956" d="M244.392,98.335a1.681,1.681,0,1,0-1.681-1.681,1.681,1.681,0,0,0,1.681,1.681" transform="translate(-86.532 -33.86)" fill="#e2e2e2"/>
        <path id="Trazado_142957" data-name="Trazado 142957" d="M254.943,98.335a1.681,1.681,0,1,0-1.679-1.681,1.681,1.681,0,0,0,1.679,1.681" transform="translate(-90.295 -33.86)" fill="#e2e2e2"/>
        <path id="Trazado_142958" data-name="Trazado 142958" d="M265.5,98.335a1.681,1.681,0,1,0-1.68-1.681,1.681,1.681,0,0,0,1.68,1.681" transform="translate(-94.057 -33.86)" fill="#e2e2e2"/>
        <path id="Trazado_142959" data-name="Trazado 142959" d="M276.05,98.335a1.681,1.681,0,1,0-1.681-1.681,1.681,1.681,0,0,0,1.681,1.681" transform="translate(-97.819 -33.86)" fill="#e2e2e2"/>
        <path id="Trazado_142960" data-name="Trazado 142960" d="M286.6,98.335a1.681,1.681,0,1,0-1.68-1.681,1.681,1.681,0,0,0,1.68,1.681" transform="translate(-101.582 -33.86)" fill="#e2e2e2"/>
        <path id="Trazado_142961" data-name="Trazado 142961" d="M297.155,98.335a1.681,1.681,0,1,0-1.681-1.681,1.68,1.68,0,0,0,1.681,1.681" transform="translate(-105.344 -33.86)" fill="#e2e2e2"/>
        <path id="Trazado_142962" data-name="Trazado 142962" d="M307.707,98.335a1.681,1.681,0,1,0-1.68-1.681,1.68,1.68,0,0,0,1.68,1.681" transform="translate(-109.106 -33.86)" fill="#e2e2e2"/>
        <path id="Trazado_142963" data-name="Trazado 142963" d="M223.287,108.888a1.681,1.681,0,1,0-1.681-1.681,1.68,1.68,0,0,0,1.681,1.681" transform="translate(-79.008 -37.623)" fill="#e2e2e2"/>
        <path id="Trazado_142964" data-name="Trazado 142964" d="M233.839,108.888a1.681,1.681,0,1,0-1.681-1.681,1.681,1.681,0,0,0,1.681,1.681" transform="translate(-82.77 -37.623)" fill="#e2e2e2"/>
        <path id="Trazado_142965" data-name="Trazado 142965" d="M244.392,108.888a1.681,1.681,0,1,0-1.681-1.681,1.681,1.681,0,0,0,1.681,1.681" transform="translate(-86.532 -37.623)" fill="#e2e2e2"/>
        <path id="Trazado_142966" data-name="Trazado 142966" d="M254.943,108.888a1.681,1.681,0,1,0-1.679-1.681,1.681,1.681,0,0,0,1.679,1.681" transform="translate(-90.295 -37.623)" fill="#e2e2e2"/>
        <path id="Trazado_142967" data-name="Trazado 142967" d="M286.6,108.888a1.681,1.681,0,1,0-1.68-1.681,1.681,1.681,0,0,0,1.68,1.681" transform="translate(-101.582 -37.623)" fill="#e2e2e2"/>
        <path id="Trazado_142968" data-name="Trazado 142968" d="M297.155,108.888a1.681,1.681,0,1,0-1.681-1.681,1.68,1.68,0,0,0,1.681,1.681" transform="translate(-105.344 -37.623)" fill="#e2e2e2"/>
        <path id="Trazado_142969" data-name="Trazado 142969" d="M307.707,108.888a1.681,1.681,0,1,0-1.68-1.681,1.68,1.68,0,0,0,1.68,1.681" transform="translate(-109.106 -37.623)" fill="#e2e2e2"/>
        <path id="Trazado_142970" data-name="Trazado 142970" d="M223.287,119.44a1.68,1.68,0,1,0-1.681-1.68,1.68,1.68,0,0,0,1.681,1.68" transform="translate(-79.008 -41.385)" fill="#e2e2e2"/>
        <path id="Trazado_142971" data-name="Trazado 142971" d="M244.392,119.44a1.68,1.68,0,1,0-1.681-1.68,1.681,1.681,0,0,0,1.681,1.68" transform="translate(-86.532 -41.385)" fill="#e2e2e2"/>
        <path id="Trazado_142972" data-name="Trazado 142972" d="M254.943,119.44a1.68,1.68,0,1,0-1.679-1.68,1.68,1.68,0,0,0,1.679,1.68" transform="translate(-90.295 -41.385)" fill="#e2e2e2"/>
        <path id="Trazado_142973" data-name="Trazado 142973" d="M265.5,119.44a1.68,1.68,0,1,0-1.68-1.68,1.681,1.681,0,0,0,1.68,1.68" transform="translate(-94.057 -41.385)" fill="#e2e2e2"/>
        <path id="Trazado_142974" data-name="Trazado 142974" d="M276.05,119.44a1.68,1.68,0,1,0-1.681-1.68,1.681,1.681,0,0,0,1.681,1.68" transform="translate(-97.819 -41.385)" fill="#e2e2e2"/>
        <path id="Trazado_142975" data-name="Trazado 142975" d="M244.392,129.993a1.68,1.68,0,1,0-1.681-1.68,1.681,1.681,0,0,0,1.681,1.68" transform="translate(-86.532 -45.147)" fill="#e2e2e2"/>
        <path id="Trazado_142976" data-name="Trazado 142976" d="M254.943,129.993a1.68,1.68,0,1,0-1.679-1.68,1.68,1.68,0,0,0,1.679,1.68" transform="translate(-90.295 -45.147)" fill="#e2e2e2"/>
        <path id="Trazado_142977" data-name="Trazado 142977" d="M265.5,129.993a1.68,1.68,0,1,0-1.68-1.68,1.681,1.681,0,0,0,1.68,1.68" transform="translate(-94.057 -45.147)" fill="#e2e2e2"/>
        <path id="Trazado_142978" data-name="Trazado 142978" d="M276.05,129.993a1.68,1.68,0,1,0-1.681-1.68,1.681,1.681,0,0,0,1.681,1.68" transform="translate(-97.819 -45.147)" fill="#e2e2e2"/>
        <path id="Trazado_142979" data-name="Trazado 142979" d="M254.943,140.546a1.68,1.68,0,1,0-1.679-1.68,1.68,1.68,0,0,0,1.679,1.68" transform="translate(-90.295 -48.91)" fill="#e2e2e2"/>
        <path id="Trazado_142980" data-name="Trazado 142980" d="M265.5,140.546a1.68,1.68,0,1,0-1.68-1.68,1.681,1.681,0,0,0,1.68,1.68" transform="translate(-94.057 -48.91)" fill="#e2e2e2"/>
        <path id="Trazado_142981" data-name="Trazado 142981" d="M276.05,140.546a1.68,1.68,0,1,0-1.681-1.68,1.681,1.681,0,0,0,1.681,1.68" transform="translate(-97.819 -48.91)" fill="#e2e2e2"/>
        <path id="Trazado_142982" data-name="Trazado 142982" d="M254.943,151.1a1.68,1.68,0,1,0-1.679-1.681,1.681,1.681,0,0,0,1.679,1.681" transform="translate(-90.295 -52.672)" fill="#e2e2e2"/>
        <path id="Trazado_142983" data-name="Trazado 142983" d="M265.5,151.1a1.68,1.68,0,1,0-1.68-1.681,1.681,1.681,0,0,0,1.68,1.681" transform="translate(-94.057 -52.672)" fill="#e2e2e2"/>
        <path id="Trazado_142984" data-name="Trazado 142984" d="M276.05,151.1a1.68,1.68,0,1,0-1.681-1.681,1.682,1.682,0,0,0,1.681,1.681" transform="translate(-97.819 -52.672)" fill="#e2e2e2"/>
        <path id="Trazado_142985" data-name="Trazado 142985" d="M286.6,151.1a1.68,1.68,0,1,0-1.68-1.681,1.681,1.681,0,0,0,1.68,1.681" transform="translate(-101.582 -52.672)" fill="#e2e2e2"/>
        <path id="Trazado_142986" data-name="Trazado 142986" d="M254.943,161.651a1.68,1.68,0,1,0-1.679-1.681,1.681,1.681,0,0,0,1.679,1.681" transform="translate(-90.295 -56.434)" fill="#e2e2e2"/>
        <path id="Trazado_142987" data-name="Trazado 142987" d="M265.5,161.651a1.68,1.68,0,1,0-1.68-1.681,1.681,1.681,0,0,0,1.68,1.681" transform="translate(-94.057 -56.434)" fill="#e2e2e2"/>
        <path id="Trazado_142988" data-name="Trazado 142988" d="M276.05,161.651a1.68,1.68,0,1,0-1.681-1.681,1.681,1.681,0,0,0,1.681,1.681" transform="translate(-97.819 -56.434)" fill="#e2e2e2"/>
        <path id="Trazado_142989" data-name="Trazado 142989" d="M286.6,161.651a1.68,1.68,0,1,0-1.68-1.681,1.681,1.681,0,0,0,1.68,1.681" transform="translate(-101.582 -56.434)" fill="#e2e2e2"/>
        <path id="Trazado_142990" data-name="Trazado 142990" d="M297.155,161.651a1.68,1.68,0,1,0-1.681-1.681,1.68,1.68,0,0,0,1.681,1.681" transform="translate(-105.344 -56.434)" fill="#e2e2e2"/>
        <path id="Trazado_142991" data-name="Trazado 142991" d="M254.943,172.2a1.681,1.681,0,1,0-1.679-1.681,1.681,1.681,0,0,0,1.679,1.681" transform="translate(-90.295 -60.196)" fill="#e2e2e2"/>
        <path id="Trazado_142992" data-name="Trazado 142992" d="M265.5,172.2a1.681,1.681,0,1,0-1.68-1.681,1.681,1.681,0,0,0,1.68,1.681" transform="translate(-94.057 -60.196)" fill="#e2e2e2"/>
        <path id="Trazado_142993" data-name="Trazado 142993" d="M276.05,172.2a1.681,1.681,0,1,0-1.681-1.681,1.681,1.681,0,0,0,1.681,1.681" transform="translate(-97.819 -60.196)" fill="#e2e2e2"/>
        <path id="Trazado_142994" data-name="Trazado 142994" d="M286.6,172.2a1.681,1.681,0,1,0-1.68-1.681,1.681,1.681,0,0,0,1.68,1.681" transform="translate(-101.582 -60.196)" fill="#e2e2e2"/>
        <path id="Trazado_142995" data-name="Trazado 142995" d="M297.155,172.2a1.681,1.681,0,1,0-1.681-1.681,1.68,1.68,0,0,0,1.681,1.681" transform="translate(-105.344 -60.196)" fill="#e2e2e2"/>
        <path id="Trazado_142996" data-name="Trazado 142996" d="M307.707,172.2a1.681,1.681,0,1,0-1.68-1.681,1.68,1.68,0,0,0,1.68,1.681" transform="translate(-109.106 -60.196)" fill="#e2e2e2"/>
        <path id="Trazado_142997" data-name="Trazado 142997" d="M254.943,182.757a1.681,1.681,0,1,0-1.679-1.681,1.681,1.681,0,0,0,1.679,1.681" transform="translate(-90.295 -63.959)" fill="#e2e2e2"/>
        <path id="Trazado_142998" data-name="Trazado 142998" d="M265.5,182.757a1.681,1.681,0,1,0-1.68-1.681,1.681,1.681,0,0,0,1.68,1.681" transform="translate(-94.057 -63.959)" fill="#e2e2e2"/>
        <path id="Trazado_142999" data-name="Trazado 142999" d="M276.05,182.757a1.681,1.681,0,1,0-1.681-1.681,1.681,1.681,0,0,0,1.681,1.681" transform="translate(-97.819 -63.959)" fill="#e2e2e2"/>
        <path id="Trazado_143000" data-name="Trazado 143000" d="M286.6,182.757a1.681,1.681,0,1,0-1.68-1.681,1.681,1.681,0,0,0,1.68,1.681" transform="translate(-101.582 -63.959)" fill="#e2e2e2"/>
        <path id="Trazado_143001" data-name="Trazado 143001" d="M297.155,182.757a1.681,1.681,0,1,0-1.681-1.681,1.68,1.68,0,0,0,1.681,1.681" transform="translate(-105.344 -63.959)" fill="#e2e2e2"/>
        <path id="Trazado_143002" data-name="Trazado 143002" d="M307.707,182.757a1.681,1.681,0,1,0-1.68-1.681,1.68,1.68,0,0,0,1.68,1.681" transform="translate(-109.106 -63.959)" fill="#e2e2e2"/>
        <path id="Trazado_143003" data-name="Trazado 143003" d="M265.5,193.309a1.681,1.681,0,1,0-1.68-1.681,1.681,1.681,0,0,0,1.68,1.681" transform="translate(-94.057 -67.721)" fill="#e2e2e2"/>
        <path id="Trazado_143004" data-name="Trazado 143004" d="M276.05,193.309a1.681,1.681,0,1,0-1.681-1.681,1.681,1.681,0,0,0,1.681,1.681" transform="translate(-97.819 -67.721)" fill="#e2e2e2"/>
        <path id="Trazado_143005" data-name="Trazado 143005" d="M286.6,193.309a1.681,1.681,0,1,0-1.68-1.681,1.681,1.681,0,0,0,1.68,1.681" transform="translate(-101.582 -67.721)" fill="#e2e2e2"/>
        <path id="Trazado_143006" data-name="Trazado 143006" d="M297.155,193.309a1.681,1.681,0,1,0-1.681-1.681,1.68,1.68,0,0,0,1.681,1.681" transform="translate(-105.344 -67.721)" fill="#e2e2e2"/>
        <path id="Trazado_143007" data-name="Trazado 143007" d="M307.707,193.309a1.681,1.681,0,1,0-1.68-1.681,1.68,1.68,0,0,0,1.68,1.681" transform="translate(-109.106 -67.721)" fill="#e2e2e2"/>
        <path id="Trazado_143008" data-name="Trazado 143008" d="M265.5,203.862a1.68,1.68,0,1,0-1.68-1.68,1.681,1.681,0,0,0,1.68,1.68" transform="translate(-94.057 -71.484)" fill="#e2e2e2"/>
        <path id="Trazado_143009" data-name="Trazado 143009" d="M276.05,203.862a1.68,1.68,0,1,0-1.681-1.68,1.681,1.681,0,0,0,1.681,1.68" transform="translate(-97.819 -71.484)" fill="#e2e2e2"/>
        <path id="Trazado_143010" data-name="Trazado 143010" d="M286.6,203.862a1.68,1.68,0,1,0-1.68-1.68,1.68,1.68,0,0,0,1.68,1.68" transform="translate(-101.582 -71.484)" fill="#e2e2e2"/>
        <path id="Trazado_143011" data-name="Trazado 143011" d="M297.155,203.862a1.68,1.68,0,1,0-1.681-1.68,1.68,1.68,0,0,0,1.681,1.68" transform="translate(-105.344 -71.484)" fill="#e2e2e2"/>
        <path id="Trazado_143012" data-name="Trazado 143012" d="M307.707,203.862a1.68,1.68,0,1,0-1.68-1.68,1.68,1.68,0,0,0,1.68,1.68" transform="translate(-109.106 -71.484)" fill="#e2e2e2"/>
        <path id="Trazado_143013" data-name="Trazado 143013" d="M265.5,214.414a1.68,1.68,0,1,0-1.68-1.68,1.681,1.681,0,0,0,1.68,1.68" transform="translate(-94.057 -75.246)" fill="#e2e2e2"/>
        <path id="Trazado_143014" data-name="Trazado 143014" d="M276.05,214.414a1.68,1.68,0,1,0-1.681-1.68,1.681,1.681,0,0,0,1.681,1.68" transform="translate(-97.819 -75.246)" fill="#e2e2e2"/>
        <path id="Trazado_143015" data-name="Trazado 143015" d="M286.6,214.414a1.68,1.68,0,1,0-1.68-1.68,1.68,1.68,0,0,0,1.68,1.68" transform="translate(-101.582 -75.246)" fill="#e2e2e2"/>
        <path id="Trazado_143016" data-name="Trazado 143016" d="M297.155,214.414a1.68,1.68,0,1,0-1.681-1.68,1.68,1.68,0,0,0,1.681,1.68" transform="translate(-105.344 -75.246)" fill="#e2e2e2"/>
        <path id="Trazado_143017" data-name="Trazado 143017" d="M307.707,214.414a1.68,1.68,0,1,0-1.68-1.68,1.68,1.68,0,0,0,1.68,1.68" transform="translate(-109.106 -75.246)" fill="#e2e2e2"/>
        <path id="Trazado_143018" data-name="Trazado 143018" d="M244.392,224.967a1.68,1.68,0,1,0-1.681-1.681,1.681,1.681,0,0,0,1.681,1.681" transform="translate(-86.532 -79.008)" fill="#e2e2e2"/>
        <path id="Trazado_143019" data-name="Trazado 143019" d="M265.5,224.967a1.68,1.68,0,1,0-1.68-1.681,1.681,1.681,0,0,0,1.68,1.681" transform="translate(-94.057 -79.008)" fill="#e2e2e2"/>
        <path id="Trazado_143020" data-name="Trazado 143020" d="M276.05,224.967a1.68,1.68,0,1,0-1.681-1.681,1.681,1.681,0,0,0,1.681,1.681" transform="translate(-97.819 -79.008)" fill="#e2e2e2"/>
        <path id="Trazado_143021" data-name="Trazado 143021" d="M286.6,224.967a1.68,1.68,0,1,0-1.68-1.681,1.681,1.681,0,0,0,1.68,1.681" transform="translate(-101.582 -79.008)" fill="#e2e2e2"/>
        <path id="Trazado_143022" data-name="Trazado 143022" d="M297.155,224.967a1.68,1.68,0,1,0-1.681-1.681,1.68,1.68,0,0,0,1.681,1.681" transform="translate(-105.344 -79.008)" fill="#e2e2e2"/>
        <path id="Trazado_143023" data-name="Trazado 143023" d="M307.707,224.967a1.68,1.68,0,1,0-1.68-1.681,1.68,1.68,0,0,0,1.68,1.681" transform="translate(-109.106 -79.008)" fill="#e2e2e2"/>
        <path id="Trazado_143024" data-name="Trazado 143024" d="M244.392,235.52a1.68,1.68,0,1,0-1.681-1.681,1.681,1.681,0,0,0,1.681,1.681" transform="translate(-86.532 -82.77)" fill="#e2e2e2"/>
        <path id="Trazado_143025" data-name="Trazado 143025" d="M254.943,235.52a1.68,1.68,0,1,0-1.679-1.681,1.681,1.681,0,0,0,1.679,1.681" transform="translate(-90.295 -82.77)" fill="#e2e2e2"/>
        <path id="Trazado_143026" data-name="Trazado 143026" d="M265.5,235.52a1.68,1.68,0,1,0-1.68-1.681,1.681,1.681,0,0,0,1.68,1.681" transform="translate(-94.057 -82.77)" fill="#e2e2e2"/>
        <path id="Trazado_143027" data-name="Trazado 143027" d="M276.05,235.52a1.68,1.68,0,1,0-1.681-1.681,1.681,1.681,0,0,0,1.681,1.681" transform="translate(-97.819 -82.77)" fill="#e2e2e2"/>
        <path id="Trazado_143028" data-name="Trazado 143028" d="M286.6,235.52a1.68,1.68,0,1,0-1.68-1.681,1.681,1.681,0,0,0,1.68,1.681" transform="translate(-101.582 -82.77)" fill="#e2e2e2"/>
        <path id="Trazado_143029" data-name="Trazado 143029" d="M297.155,235.52a1.68,1.68,0,1,0-1.681-1.681,1.68,1.68,0,0,0,1.681,1.681" transform="translate(-105.344 -82.77)" fill="#e2e2e2"/>
        <path id="Trazado_143030" data-name="Trazado 143030" d="M244.392,246.072a1.68,1.68,0,1,0-1.681-1.681,1.68,1.68,0,0,0,1.681,1.681" transform="translate(-86.532 -86.532)" fill="#e2e2e2"/>
        <path id="Trazado_143031" data-name="Trazado 143031" d="M254.943,246.072a1.68,1.68,0,1,0-1.679-1.681,1.68,1.68,0,0,0,1.679,1.681" transform="translate(-90.295 -86.532)" fill="#e2e2e2"/>
        <path id="Trazado_143032" data-name="Trazado 143032" d="M265.5,246.072a1.68,1.68,0,1,0-1.68-1.681,1.681,1.681,0,0,0,1.68,1.681" transform="translate(-94.057 -86.532)" fill="#e2e2e2"/>
        <path id="Trazado_143033" data-name="Trazado 143033" d="M276.05,246.072a1.68,1.68,0,1,0-1.681-1.681,1.681,1.681,0,0,0,1.681,1.681" transform="translate(-97.819 -86.532)" fill="#e2e2e2"/>
        <path id="Trazado_143034" data-name="Trazado 143034" d="M286.6,246.072a1.68,1.68,0,1,0-1.68-1.681,1.68,1.68,0,0,0,1.68,1.681" transform="translate(-101.582 -86.532)" fill="#e2e2e2"/>
        <path id="Trazado_143035" data-name="Trazado 143035" d="M297.155,246.072a1.68,1.68,0,1,0-1.681-1.681,1.68,1.68,0,0,0,1.681,1.681" transform="translate(-105.344 -86.532)" fill="#e2e2e2"/>
        <path id="Trazado_143036" data-name="Trazado 143036" d="M307.707,246.072a1.68,1.68,0,1,0-1.68-1.681,1.679,1.679,0,0,0,1.68,1.681" transform="translate(-109.106 -86.532)" fill="#e2e2e2"/>
        <path id="Trazado_143037" data-name="Trazado 143037" d="M212.733,256.625a1.681,1.681,0,1,0-1.681-1.681,1.681,1.681,0,0,0,1.681,1.681" transform="translate(-75.245 -90.294)" fill="#e2e2e2"/>
        <path id="Trazado_143038" data-name="Trazado 143038" d="M223.287,256.625a1.681,1.681,0,1,0-1.681-1.681,1.68,1.68,0,0,0,1.681,1.681" transform="translate(-79.008 -90.294)" fill="#e2e2e2"/>
        <path id="Trazado_143039" data-name="Trazado 143039" d="M244.392,256.625a1.681,1.681,0,1,0-1.681-1.681,1.681,1.681,0,0,0,1.681,1.681" transform="translate(-86.532 -90.294)" fill="#e2e2e2"/>
        <path id="Trazado_143040" data-name="Trazado 143040" d="M254.943,256.625a1.681,1.681,0,1,0-1.679-1.681,1.681,1.681,0,0,0,1.679,1.681" transform="translate(-90.295 -90.294)" fill="#e2e2e2"/>
        <path id="Trazado_143041" data-name="Trazado 143041" d="M265.5,256.625a1.681,1.681,0,1,0-1.68-1.681,1.681,1.681,0,0,0,1.68,1.681" transform="translate(-94.057 -90.294)" fill="#e2e2e2"/>
        <path id="Trazado_143042" data-name="Trazado 143042" d="M276.05,256.625a1.681,1.681,0,1,0-1.681-1.681,1.681,1.681,0,0,0,1.681,1.681" transform="translate(-97.819 -90.294)" fill="#e2e2e2"/>
        <path id="Trazado_143043" data-name="Trazado 143043" d="M286.6,256.625a1.681,1.681,0,1,0-1.68-1.681,1.681,1.681,0,0,0,1.68,1.681" transform="translate(-101.582 -90.294)" fill="#e2e2e2"/>
        <path id="Trazado_143044" data-name="Trazado 143044" d="M297.155,256.625a1.681,1.681,0,1,0-1.681-1.681,1.68,1.68,0,0,0,1.681,1.681" transform="translate(-105.344 -90.294)" fill="#e2e2e2"/>
        <path id="Trazado_143045" data-name="Trazado 143045" d="M307.707,256.625a1.681,1.681,0,1,0-1.68-1.681,1.68,1.68,0,0,0,1.68,1.681" transform="translate(-109.106 -90.294)" fill="#e2e2e2"/>
        <path id="Trazado_143046" data-name="Trazado 143046" d="M212.733,267.178a1.681,1.681,0,1,0-1.681-1.681,1.681,1.681,0,0,0,1.681,1.681" transform="translate(-75.245 -94.057)" fill="#e2e2e2"/>
        <path id="Trazado_143047" data-name="Trazado 143047" d="M223.287,267.178a1.681,1.681,0,1,0-1.681-1.681,1.68,1.68,0,0,0,1.681,1.681" transform="translate(-79.008 -94.057)" fill="#e2e2e2"/>
        <path id="Trazado_143048" data-name="Trazado 143048" d="M233.839,267.178a1.681,1.681,0,1,0-1.681-1.681,1.681,1.681,0,0,0,1.681,1.681" transform="translate(-82.77 -94.057)" fill="#e2e2e2"/>
        <path id="Trazado_143049" data-name="Trazado 143049" d="M244.392,267.178a1.681,1.681,0,1,0-1.681-1.681,1.681,1.681,0,0,0,1.681,1.681" transform="translate(-86.532 -94.057)" fill="#e2e2e2"/>
        <path id="Trazado_143050" data-name="Trazado 143050" d="M254.943,267.178a1.681,1.681,0,1,0-1.679-1.681,1.681,1.681,0,0,0,1.679,1.681" transform="translate(-90.295 -94.057)" fill="#e2e2e2"/>
        <path id="Trazado_143051" data-name="Trazado 143051" d="M265.5,267.178a1.681,1.681,0,1,0-1.68-1.681,1.681,1.681,0,0,0,1.68,1.681" transform="translate(-94.057 -94.057)" fill="#e2e2e2"/>
        <path id="Trazado_143052" data-name="Trazado 143052" d="M276.05,267.178a1.681,1.681,0,1,0-1.681-1.681,1.681,1.681,0,0,0,1.681,1.681" transform="translate(-97.819 -94.057)" fill="#e2e2e2"/>
        <path id="Trazado_143053" data-name="Trazado 143053" d="M286.6,267.178a1.681,1.681,0,1,0-1.68-1.681,1.681,1.681,0,0,0,1.68,1.681" transform="translate(-101.582 -94.057)" fill="#e2e2e2"/>
        <path id="Trazado_143054" data-name="Trazado 143054" d="M297.155,267.178a1.681,1.681,0,1,0-1.681-1.681,1.68,1.68,0,0,0,1.681,1.681" transform="translate(-105.344 -94.057)" fill="#e2e2e2"/>
        <path id="Trazado_143055" data-name="Trazado 143055" d="M307.707,267.178a1.681,1.681,0,1,0-1.68-1.681,1.68,1.68,0,0,0,1.68,1.681" transform="translate(-109.106 -94.057)" fill="#e2e2e2"/>
        <path id="Trazado_143056" data-name="Trazado 143056" d="M212.733,277.73a1.68,1.68,0,1,0-1.681-1.68,1.681,1.681,0,0,0,1.681,1.68" transform="translate(-75.245 -97.819)" fill="#e2e2e2"/>
        <path id="Trazado_143057" data-name="Trazado 143057" d="M223.287,277.73a1.68,1.68,0,1,0-1.681-1.68,1.68,1.68,0,0,0,1.681,1.68" transform="translate(-79.008 -97.819)" fill="#e2e2e2"/>
        <path id="Trazado_143058" data-name="Trazado 143058" d="M233.839,277.73a1.68,1.68,0,1,0-1.681-1.68,1.681,1.681,0,0,0,1.681,1.68" transform="translate(-82.77 -97.819)" fill="#e2e2e2"/>
        <path id="Trazado_143059" data-name="Trazado 143059" d="M244.392,277.73a1.68,1.68,0,1,0-1.681-1.68,1.681,1.681,0,0,0,1.681,1.68" transform="translate(-86.532 -97.819)" fill="#e2e2e2"/>
        <path id="Trazado_143060" data-name="Trazado 143060" d="M254.943,277.73a1.68,1.68,0,1,0-1.679-1.68,1.68,1.68,0,0,0,1.679,1.68" transform="translate(-90.295 -97.819)" fill="#e2e2e2"/>
        <path id="Trazado_143061" data-name="Trazado 143061" d="M265.5,277.73a1.68,1.68,0,1,0-1.68-1.68,1.681,1.681,0,0,0,1.68,1.68" transform="translate(-94.057 -97.819)" fill="#e2e2e2"/>
        <path id="Trazado_143062" data-name="Trazado 143062" d="M276.05,277.73a1.68,1.68,0,1,0-1.681-1.68,1.681,1.681,0,0,0,1.681,1.68" transform="translate(-97.819 -97.819)" fill="#e2e2e2"/>
        <path id="Trazado_143063" data-name="Trazado 143063" d="M286.6,277.73a1.68,1.68,0,1,0-1.68-1.68,1.68,1.68,0,0,0,1.68,1.68" transform="translate(-101.582 -97.819)" fill="#e2e2e2"/>
        <path id="Trazado_143064" data-name="Trazado 143064" d="M297.155,277.73a1.68,1.68,0,1,0-1.681-1.68,1.68,1.68,0,0,0,1.681,1.68" transform="translate(-105.344 -97.819)" fill="#e2e2e2"/>
        <path id="Trazado_143065" data-name="Trazado 143065" d="M307.707,277.73a1.68,1.68,0,1,0-1.68-1.68,1.68,1.68,0,0,0,1.68,1.68" transform="translate(-109.106 -97.819)" fill="#e2e2e2"/>
        <path id="Trazado_143066" data-name="Trazado 143066" d="M149.418,288.283a1.68,1.68,0,1,0-1.68-1.68,1.681,1.681,0,0,0,1.68,1.68" transform="translate(-52.672 -101.582)" fill="#e2e2e2"/>
        <path id="Trazado_143067" data-name="Trazado 143067" d="M202.181,288.283a1.68,1.68,0,1,0-1.681-1.68,1.681,1.681,0,0,0,1.681,1.68" transform="translate(-71.483 -101.582)" fill="#e2e2e2"/>
        <path id="Trazado_143068" data-name="Trazado 143068" d="M212.733,288.283a1.68,1.68,0,1,0-1.681-1.68,1.681,1.681,0,0,0,1.681,1.68" transform="translate(-75.245 -101.582)" fill="#e2e2e2"/>
        <path id="Trazado_143069" data-name="Trazado 143069" d="M223.287,288.283a1.68,1.68,0,1,0-1.681-1.68,1.68,1.68,0,0,0,1.681,1.68" transform="translate(-79.008 -101.582)" fill="#e2e2e2"/>
        <path id="Trazado_143070" data-name="Trazado 143070" d="M233.839,288.283a1.68,1.68,0,1,0-1.681-1.68,1.681,1.681,0,0,0,1.681,1.68" transform="translate(-82.77 -101.582)" fill="#e2e2e2"/>
        <path id="Trazado_143071" data-name="Trazado 143071" d="M244.392,288.283a1.68,1.68,0,1,0-1.681-1.68,1.681,1.681,0,0,0,1.681,1.68" transform="translate(-86.532 -101.582)" fill="#e2e2e2"/>
        <path id="Trazado_143072" data-name="Trazado 143072" d="M254.943,288.283a1.68,1.68,0,1,0-1.679-1.68,1.68,1.68,0,0,0,1.679,1.68" transform="translate(-90.295 -101.582)" fill="#e2e2e2"/>
        <path id="Trazado_143073" data-name="Trazado 143073" d="M265.5,288.283a1.68,1.68,0,1,0-1.68-1.68,1.681,1.681,0,0,0,1.68,1.68" transform="translate(-94.057 -101.582)" fill="#e2e2e2"/>
        <path id="Trazado_143074" data-name="Trazado 143074" d="M276.05,288.283a1.68,1.68,0,1,0-1.681-1.68,1.681,1.681,0,0,0,1.681,1.68" transform="translate(-97.819 -101.582)" fill="#e2e2e2"/>
        <path id="Trazado_143075" data-name="Trazado 143075" d="M286.6,288.283a1.68,1.68,0,1,0-1.68-1.68,1.68,1.68,0,0,0,1.68,1.68" transform="translate(-101.582 -101.582)" fill="#e2e2e2"/>
        <path id="Trazado_143076" data-name="Trazado 143076" d="M297.155,288.283a1.68,1.68,0,1,0-1.681-1.68,1.68,1.68,0,0,0,1.681,1.68" transform="translate(-105.344 -101.582)" fill="#e2e2e2"/>
        <path id="Trazado_143077" data-name="Trazado 143077" d="M307.707,288.283a1.68,1.68,0,1,0-1.68-1.68,1.68,1.68,0,0,0,1.68,1.68" transform="translate(-109.106 -101.582)" fill="#e2e2e2"/>
        <path id="Trazado_143078" data-name="Trazado 143078" d="M138.865,298.836a1.68,1.68,0,1,0-1.68-1.68,1.681,1.681,0,0,0,1.68,1.68" transform="translate(-48.91 -105.344)" fill="#e2e2e2"/>
        <path id="Trazado_143079" data-name="Trazado 143079" d="M149.418,298.836a1.68,1.68,0,1,0-1.68-1.68,1.681,1.681,0,0,0,1.68,1.68" transform="translate(-52.672 -105.344)" fill="#e2e2e2"/>
        <path id="Trazado_143080" data-name="Trazado 143080" d="M191.629,298.836a1.68,1.68,0,1,0-1.68-1.68,1.68,1.68,0,0,0,1.68,1.68" transform="translate(-67.721 -105.344)" fill="#e2e2e2"/>
        <path id="Trazado_143081" data-name="Trazado 143081" d="M202.181,298.836a1.68,1.68,0,1,0-1.681-1.68,1.681,1.681,0,0,0,1.681,1.68" transform="translate(-71.483 -105.344)" fill="#e2e2e2"/>
        <path id="Trazado_143082" data-name="Trazado 143082" d="M212.733,298.836a1.68,1.68,0,1,0-1.681-1.68,1.681,1.681,0,0,0,1.681,1.68" transform="translate(-75.245 -105.344)" fill="#e2e2e2"/>
        <path id="Trazado_143083" data-name="Trazado 143083" d="M223.287,298.836a1.68,1.68,0,1,0-1.681-1.68,1.68,1.68,0,0,0,1.681,1.68" transform="translate(-79.008 -105.344)" fill="#e2e2e2"/>
        <path id="Trazado_143084" data-name="Trazado 143084" d="M233.839,298.836a1.68,1.68,0,1,0-1.681-1.68,1.681,1.681,0,0,0,1.681,1.68" transform="translate(-82.77 -105.344)" fill="#e2e2e2"/>
        <path id="Trazado_143085" data-name="Trazado 143085" d="M244.392,298.836a1.68,1.68,0,1,0-1.681-1.68,1.681,1.681,0,0,0,1.681,1.68" transform="translate(-86.532 -105.344)" fill="#e2e2e2"/>
        <path id="Trazado_143086" data-name="Trazado 143086" d="M254.943,298.836a1.68,1.68,0,1,0-1.679-1.68,1.68,1.68,0,0,0,1.679,1.68" transform="translate(-90.295 -105.344)" fill="#e2e2e2"/>
        <path id="Trazado_143087" data-name="Trazado 143087" d="M265.5,298.836a1.68,1.68,0,1,0-1.68-1.68,1.681,1.681,0,0,0,1.68,1.68" transform="translate(-94.057 -105.344)" fill="#e2e2e2"/>
        <path id="Trazado_143088" data-name="Trazado 143088" d="M276.05,298.836a1.68,1.68,0,1,0-1.681-1.68,1.681,1.681,0,0,0,1.681,1.68" transform="translate(-97.819 -105.344)" fill="#e2e2e2"/>
        <path id="Trazado_143089" data-name="Trazado 143089" d="M286.6,298.836a1.68,1.68,0,1,0-1.68-1.68,1.68,1.68,0,0,0,1.68,1.68" transform="translate(-101.582 -105.344)" fill="#e2e2e2"/>
        <path id="Trazado_143090" data-name="Trazado 143090" d="M297.155,298.836a1.68,1.68,0,1,0-1.681-1.68,1.68,1.68,0,0,0,1.681,1.68" transform="translate(-105.344 -105.344)" fill="#e2e2e2"/>
        <path id="Trazado_143091" data-name="Trazado 143091" d="M307.707,298.836a1.68,1.68,0,1,0-1.68-1.68,1.68,1.68,0,0,0,1.68,1.68" transform="translate(-109.106 -105.344)" fill="#e2e2e2"/>
        <path id="Trazado_143092" data-name="Trazado 143092" d="M318.26,298.836a1.68,1.68,0,1,0-1.68-1.68,1.679,1.679,0,0,0,1.68,1.68" transform="translate(-112.868 -105.344)" fill="#e2e2e2"/>
        <path id="Trazado_143093" data-name="Trazado 143093" d="M149.418,309.388a1.681,1.681,0,1,0-1.68-1.68,1.681,1.681,0,0,0,1.68,1.68" transform="translate(-52.672 -109.106)" fill="#e2e2e2"/>
        <path id="Trazado_143094" data-name="Trazado 143094" d="M159.971,309.388a1.681,1.681,0,1,0-1.68-1.68,1.681,1.681,0,0,0,1.68,1.68" transform="translate(-56.435 -109.106)" fill="#e2e2e2"/>
        <path id="Trazado_143095" data-name="Trazado 143095" d="M170.524,309.388a1.681,1.681,0,1,0-1.679-1.68,1.681,1.681,0,0,0,1.679,1.68" transform="translate(-60.197 -109.106)" fill="#e2e2e2"/>
        <path id="Trazado_143096" data-name="Trazado 143096" d="M181.076,309.388a1.681,1.681,0,1,0-1.68-1.68,1.681,1.681,0,0,0,1.68,1.68" transform="translate(-63.959 -109.106)" fill="#e2e2e2"/>
        <path id="Trazado_143097" data-name="Trazado 143097" d="M191.629,309.388a1.681,1.681,0,1,0-1.68-1.68,1.68,1.68,0,0,0,1.68,1.68" transform="translate(-67.721 -109.106)" fill="#e2e2e2"/>
        <path id="Trazado_143098" data-name="Trazado 143098" d="M202.181,309.388a1.681,1.681,0,1,0-1.681-1.68,1.681,1.681,0,0,0,1.681,1.68" transform="translate(-71.483 -109.106)" fill="#e2e2e2"/>
        <path id="Trazado_143099" data-name="Trazado 143099" d="M212.733,309.388a1.681,1.681,0,1,0-1.681-1.68,1.681,1.681,0,0,0,1.681,1.68" transform="translate(-75.245 -109.106)" fill="#e2e2e2"/>
        <path id="Trazado_143100" data-name="Trazado 143100" d="M223.287,309.388a1.681,1.681,0,1,0-1.681-1.68,1.68,1.68,0,0,0,1.681,1.68" transform="translate(-79.008 -109.106)" fill="#e2e2e2"/>
        <path id="Trazado_143101" data-name="Trazado 143101" d="M233.839,309.388a1.681,1.681,0,1,0-1.681-1.68,1.681,1.681,0,0,0,1.681,1.68" transform="translate(-82.77 -109.106)" fill="#e2e2e2"/>
        <path id="Trazado_143102" data-name="Trazado 143102" d="M244.392,309.388a1.681,1.681,0,1,0-1.681-1.68,1.681,1.681,0,0,0,1.681,1.68" transform="translate(-86.532 -109.106)" fill="#e2e2e2"/>
        <path id="Trazado_143103" data-name="Trazado 143103" d="M254.943,309.388a1.681,1.681,0,1,0-1.679-1.68,1.68,1.68,0,0,0,1.679,1.68" transform="translate(-90.295 -109.106)" fill="#e2e2e2"/>
        <path id="Trazado_143104" data-name="Trazado 143104" d="M265.5,309.388a1.681,1.681,0,1,0-1.68-1.68,1.681,1.681,0,0,0,1.68,1.68" transform="translate(-94.057 -109.106)" fill="#e2e2e2"/>
        <path id="Trazado_143105" data-name="Trazado 143105" d="M276.05,309.388a1.681,1.681,0,1,0-1.681-1.68,1.681,1.681,0,0,0,1.681,1.68" transform="translate(-97.819 -109.106)" fill="#e2e2e2"/>
        <path id="Trazado_143106" data-name="Trazado 143106" d="M286.6,309.388a1.681,1.681,0,1,0-1.68-1.68,1.68,1.68,0,0,0,1.68,1.68" transform="translate(-101.582 -109.106)" fill="#e2e2e2"/>
        <path id="Trazado_143107" data-name="Trazado 143107" d="M297.155,309.388a1.681,1.681,0,1,0-1.681-1.68,1.68,1.68,0,0,0,1.681,1.68" transform="translate(-105.344 -109.106)" fill="#e2e2e2"/>
        <path id="Trazado_143108" data-name="Trazado 143108" d="M307.707,309.388a1.681,1.681,0,1,0-1.68-1.68,1.68,1.68,0,0,0,1.68,1.68" transform="translate(-109.106 -109.106)" fill="#e2e2e2"/>
        <path id="Trazado_143109" data-name="Trazado 143109" d="M138.865,319.941a1.681,1.681,0,1,0-1.68-1.68,1.681,1.681,0,0,0,1.68,1.68" transform="translate(-48.91 -112.868)" fill="#e2e2e2"/>
        <path id="Trazado_143110" data-name="Trazado 143110" d="M149.418,319.941a1.681,1.681,0,1,0-1.68-1.68,1.681,1.681,0,0,0,1.68,1.68" transform="translate(-52.672 -112.868)" fill="#e2e2e2"/>
        <path id="Trazado_143111" data-name="Trazado 143111" d="M159.971,319.941a1.681,1.681,0,1,0-1.68-1.68,1.681,1.681,0,0,0,1.68,1.68" transform="translate(-56.435 -112.868)" fill="#e2e2e2"/>
        <path id="Trazado_143112" data-name="Trazado 143112" d="M170.524,319.941a1.681,1.681,0,1,0-1.679-1.68,1.681,1.681,0,0,0,1.679,1.68" transform="translate(-60.197 -112.868)" fill="#e2e2e2"/>
        <path id="Trazado_143113" data-name="Trazado 143113" d="M181.076,319.941a1.681,1.681,0,1,0-1.68-1.68,1.681,1.681,0,0,0,1.68,1.68" transform="translate(-63.959 -112.868)" fill="#e2e2e2"/>
        <path id="Trazado_143114" data-name="Trazado 143114" d="M191.629,319.941a1.681,1.681,0,1,0-1.68-1.68,1.68,1.68,0,0,0,1.68,1.68" transform="translate(-67.721 -112.868)" fill="#e2e2e2"/>
        <path id="Trazado_143115" data-name="Trazado 143115" d="M202.181,319.941a1.681,1.681,0,1,0-1.681-1.68,1.681,1.681,0,0,0,1.681,1.68" transform="translate(-71.483 -112.868)" fill="#e2e2e2"/>
        <path id="Trazado_143116" data-name="Trazado 143116" d="M212.733,319.941a1.681,1.681,0,1,0-1.681-1.68,1.681,1.681,0,0,0,1.681,1.68" transform="translate(-75.245 -112.868)" fill="#e2e2e2"/>
        <path id="Trazado_143117" data-name="Trazado 143117" d="M223.287,319.941a1.681,1.681,0,1,0-1.681-1.68,1.68,1.68,0,0,0,1.681,1.68" transform="translate(-79.008 -112.868)" fill="#e2e2e2"/>
        <path id="Trazado_143118" data-name="Trazado 143118" d="M233.839,319.941a1.681,1.681,0,1,0-1.681-1.68,1.681,1.681,0,0,0,1.681,1.68" transform="translate(-82.77 -112.868)" fill="#e2e2e2"/>
        <path id="Trazado_143119" data-name="Trazado 143119" d="M244.392,319.941a1.681,1.681,0,1,0-1.681-1.68,1.681,1.681,0,0,0,1.681,1.68" transform="translate(-86.532 -112.868)" fill="#e2e2e2"/>
        <path id="Trazado_143120" data-name="Trazado 143120" d="M254.943,319.941a1.681,1.681,0,1,0-1.679-1.68,1.68,1.68,0,0,0,1.679,1.68" transform="translate(-90.295 -112.868)" fill="#e2e2e2"/>
        <path id="Trazado_143121" data-name="Trazado 143121" d="M265.5,319.941a1.681,1.681,0,1,0-1.68-1.68,1.681,1.681,0,0,0,1.68,1.68" transform="translate(-94.057 -112.868)" fill="#e2e2e2"/>
        <path id="Trazado_143122" data-name="Trazado 143122" d="M276.05,319.941a1.681,1.681,0,1,0-1.681-1.68,1.681,1.681,0,0,0,1.681,1.68" transform="translate(-97.819 -112.868)" fill="#e2e2e2"/>
        <path id="Trazado_143123" data-name="Trazado 143123" d="M286.6,319.941a1.681,1.681,0,1,0-1.68-1.68,1.68,1.68,0,0,0,1.68,1.68" transform="translate(-101.582 -112.868)" fill="#e2e2e2"/>
        <path id="Trazado_143124" data-name="Trazado 143124" d="M297.155,319.941a1.681,1.681,0,1,0-1.681-1.68,1.68,1.68,0,0,0,1.681,1.68" transform="translate(-105.344 -112.868)" fill="#e2e2e2"/>
        <path id="Trazado_143125" data-name="Trazado 143125" d="M307.707,319.941a1.681,1.681,0,1,0-1.68-1.68,1.68,1.68,0,0,0,1.68,1.68" transform="translate(-109.106 -112.868)" fill="#e2e2e2"/>
        <path id="Trazado_143126" data-name="Trazado 143126" d="M128.313,330.493a1.681,1.681,0,1,0-1.68-1.68,1.681,1.681,0,0,0,1.68,1.68" transform="translate(-45.148 -116.631)" fill="#e2e2e2"/>
        <path id="Trazado_143127" data-name="Trazado 143127" d="M138.865,330.493a1.681,1.681,0,1,0-1.68-1.68,1.681,1.681,0,0,0,1.68,1.68" transform="translate(-48.91 -116.631)" fill="#e2e2e2"/>
        <path id="Trazado_143128" data-name="Trazado 143128" d="M149.418,330.493a1.681,1.681,0,1,0-1.68-1.68,1.681,1.681,0,0,0,1.68,1.68" transform="translate(-52.672 -116.631)" fill="#e2e2e2"/>
        <path id="Trazado_143129" data-name="Trazado 143129" d="M159.971,330.493a1.681,1.681,0,1,0-1.68-1.68,1.681,1.681,0,0,0,1.68,1.68" transform="translate(-56.435 -116.631)" fill="#e2e2e2"/>
        <path id="Trazado_143130" data-name="Trazado 143130" d="M170.524,330.493a1.681,1.681,0,1,0-1.679-1.68,1.681,1.681,0,0,0,1.679,1.68" transform="translate(-60.197 -116.631)" fill="#e2e2e2"/>
        <path id="Trazado_143131" data-name="Trazado 143131" d="M181.076,330.493a1.681,1.681,0,1,0-1.68-1.68,1.681,1.681,0,0,0,1.68,1.68" transform="translate(-63.959 -116.631)" fill="#e2e2e2"/>
        <path id="Trazado_143132" data-name="Trazado 143132" d="M191.629,330.493a1.681,1.681,0,1,0-1.68-1.68,1.68,1.68,0,0,0,1.68,1.68" transform="translate(-67.721 -116.631)" fill="#e2e2e2"/>
        <path id="Trazado_143133" data-name="Trazado 143133" d="M202.181,330.493a1.681,1.681,0,1,0-1.681-1.68,1.681,1.681,0,0,0,1.681,1.68" transform="translate(-71.483 -116.631)" fill="#e2e2e2"/>
        <path id="Trazado_143134" data-name="Trazado 143134" d="M212.733,330.493a1.681,1.681,0,1,0-1.681-1.68,1.681,1.681,0,0,0,1.681,1.68" transform="translate(-75.245 -116.631)" fill="#e2e2e2"/>
        <path id="Trazado_143135" data-name="Trazado 143135" d="M223.287,330.493a1.681,1.681,0,1,0-1.681-1.68,1.68,1.68,0,0,0,1.681,1.68" transform="translate(-79.008 -116.631)" fill="#e2e2e2"/>
        <path id="Trazado_143136" data-name="Trazado 143136" d="M233.839,330.493a1.681,1.681,0,1,0-1.681-1.68,1.681,1.681,0,0,0,1.681,1.68" transform="translate(-82.77 -116.631)" fill="#e2e2e2"/>
        <path id="Trazado_143137" data-name="Trazado 143137" d="M244.392,330.493a1.681,1.681,0,1,0-1.681-1.68,1.681,1.681,0,0,0,1.681,1.68" transform="translate(-86.532 -116.631)" fill="#e2e2e2"/>
        <path id="Trazado_143138" data-name="Trazado 143138" d="M254.943,330.493a1.681,1.681,0,1,0-1.679-1.68,1.68,1.68,0,0,0,1.679,1.68" transform="translate(-90.295 -116.631)" fill="#e2e2e2"/>
        <path id="Trazado_143139" data-name="Trazado 143139" d="M265.5,330.493a1.681,1.681,0,1,0-1.68-1.68,1.681,1.681,0,0,0,1.68,1.68" transform="translate(-94.057 -116.631)" fill="#e2e2e2"/>
        <path id="Trazado_143140" data-name="Trazado 143140" d="M276.05,330.493a1.681,1.681,0,1,0-1.681-1.68,1.681,1.681,0,0,0,1.681,1.68" transform="translate(-97.819 -116.631)" fill="#e2e2e2"/>
        <path id="Trazado_143141" data-name="Trazado 143141" d="M286.6,330.493a1.681,1.681,0,1,0-1.68-1.68,1.68,1.68,0,0,0,1.68,1.68" transform="translate(-101.582 -116.631)" fill="#e2e2e2"/>
        <path id="Trazado_143142" data-name="Trazado 143142" d="M117.76,341.047a1.681,1.681,0,1,0-1.681-1.681,1.68,1.68,0,0,0,1.681,1.681" transform="translate(-41.385 -120.393)" fill="#e2e2e2"/>
        <path id="Trazado_143143" data-name="Trazado 143143" d="M128.313,341.047a1.681,1.681,0,1,0-1.68-1.681,1.681,1.681,0,0,0,1.68,1.681" transform="translate(-45.148 -120.393)" fill="#e2e2e2"/>
        <path id="Trazado_143144" data-name="Trazado 143144" d="M138.865,341.047a1.681,1.681,0,1,0-1.68-1.681,1.681,1.681,0,0,0,1.68,1.681" transform="translate(-48.91 -120.393)" fill="#e2e2e2"/>
        <path id="Trazado_143145" data-name="Trazado 143145" d="M149.418,341.047a1.681,1.681,0,1,0-1.68-1.681,1.681,1.681,0,0,0,1.68,1.681" transform="translate(-52.672 -120.393)" fill="#e2e2e2"/>
        <path id="Trazado_143146" data-name="Trazado 143146" d="M159.971,341.047a1.681,1.681,0,1,0-1.68-1.681,1.681,1.681,0,0,0,1.68,1.681" transform="translate(-56.435 -120.393)" fill="#e2e2e2"/>
        <path id="Trazado_143147" data-name="Trazado 143147" d="M170.524,341.047a1.681,1.681,0,1,0-1.679-1.681,1.681,1.681,0,0,0,1.679,1.681" transform="translate(-60.197 -120.393)" fill="#e2e2e2"/>
        <path id="Trazado_143148" data-name="Trazado 143148" d="M181.076,341.047a1.681,1.681,0,1,0-1.68-1.681,1.681,1.681,0,0,0,1.68,1.681" transform="translate(-63.959 -120.393)" fill="#e2e2e2"/>
        <path id="Trazado_143149" data-name="Trazado 143149" d="M191.629,341.047a1.681,1.681,0,1,0-1.68-1.681,1.68,1.68,0,0,0,1.68,1.681" transform="translate(-67.721 -120.393)" fill="#e2e2e2"/>
        <path id="Trazado_143150" data-name="Trazado 143150" d="M202.181,341.047a1.681,1.681,0,1,0-1.681-1.681,1.681,1.681,0,0,0,1.681,1.681" transform="translate(-71.483 -120.393)" fill="#e2e2e2"/>
        <path id="Trazado_143151" data-name="Trazado 143151" d="M212.733,341.047a1.681,1.681,0,1,0-1.681-1.681,1.681,1.681,0,0,0,1.681,1.681" transform="translate(-75.245 -120.393)" fill="#e2e2e2"/>
        <path id="Trazado_143152" data-name="Trazado 143152" d="M223.287,341.047a1.681,1.681,0,1,0-1.681-1.681,1.68,1.68,0,0,0,1.681,1.681" transform="translate(-79.008 -120.393)" fill="#e2e2e2"/>
        <path id="Trazado_143153" data-name="Trazado 143153" d="M233.839,341.047a1.681,1.681,0,1,0-1.681-1.681,1.681,1.681,0,0,0,1.681,1.681" transform="translate(-82.77 -120.393)" fill="#e2e2e2"/>
        <path id="Trazado_143154" data-name="Trazado 143154" d="M107.208,351.6a1.681,1.681,0,1,0-1.681-1.681,1.681,1.681,0,0,0,1.681,1.681" transform="translate(-37.623 -124.155)" fill="#e2e2e2"/>
        <path id="Trazado_143155" data-name="Trazado 143155" d="M117.76,351.6a1.681,1.681,0,1,0-1.681-1.681,1.681,1.681,0,0,0,1.681,1.681" transform="translate(-41.385 -124.155)" fill="#e2e2e2"/>
        <path id="Trazado_143156" data-name="Trazado 143156" d="M128.313,351.6a1.681,1.681,0,1,0-1.68-1.681,1.681,1.681,0,0,0,1.68,1.681" transform="translate(-45.148 -124.155)" fill="#e2e2e2"/>
        <path id="Trazado_143157" data-name="Trazado 143157" d="M138.865,351.6a1.681,1.681,0,1,0-1.68-1.681,1.681,1.681,0,0,0,1.68,1.681" transform="translate(-48.91 -124.155)" fill="#e2e2e2"/>
        <path id="Trazado_143158" data-name="Trazado 143158" d="M149.418,351.6a1.681,1.681,0,1,0-1.68-1.681,1.681,1.681,0,0,0,1.68,1.681" transform="translate(-52.672 -124.155)" fill="#e2e2e2"/>
        <path id="Trazado_143159" data-name="Trazado 143159" d="M159.971,351.6a1.681,1.681,0,1,0-1.68-1.681,1.681,1.681,0,0,0,1.68,1.681" transform="translate(-56.435 -124.155)" fill="#e2e2e2"/>
        <path id="Trazado_143160" data-name="Trazado 143160" d="M170.524,351.6a1.681,1.681,0,1,0-1.679-1.681,1.681,1.681,0,0,0,1.679,1.681" transform="translate(-60.197 -124.155)" fill="#e2e2e2"/>
        <path id="Trazado_143161" data-name="Trazado 143161" d="M181.076,351.6a1.681,1.681,0,1,0-1.68-1.681,1.681,1.681,0,0,0,1.68,1.681" transform="translate(-63.959 -124.155)" fill="#e2e2e2"/>
        <path id="Trazado_143162" data-name="Trazado 143162" d="M191.629,351.6a1.681,1.681,0,1,0-1.68-1.681,1.681,1.681,0,0,0,1.68,1.681" transform="translate(-67.721 -124.155)" fill="#e2e2e2"/>
        <path id="Trazado_143163" data-name="Trazado 143163" d="M202.181,351.6a1.681,1.681,0,1,0-1.681-1.681,1.681,1.681,0,0,0,1.681,1.681" transform="translate(-71.483 -124.155)" fill="#e2e2e2"/>
        <path id="Trazado_143164" data-name="Trazado 143164" d="M212.733,351.6a1.681,1.681,0,1,0-1.681-1.681,1.681,1.681,0,0,0,1.681,1.681" transform="translate(-75.245 -124.155)" fill="#e2e2e2"/>
        <path id="Trazado_143165" data-name="Trazado 143165" d="M223.287,351.6a1.681,1.681,0,1,0-1.681-1.681,1.681,1.681,0,0,0,1.681,1.681" transform="translate(-79.008 -124.155)" fill="#e2e2e2"/>
        <path id="Trazado_143166" data-name="Trazado 143166" d="M96.655,362.152a1.681,1.681,0,1,0-1.681-1.681,1.681,1.681,0,0,0,1.681,1.681" transform="translate(-33.861 -127.917)" fill="#e2e2e2"/>
        <path id="Trazado_143167" data-name="Trazado 143167" d="M107.208,362.152a1.681,1.681,0,1,0-1.681-1.681,1.681,1.681,0,0,0,1.681,1.681" transform="translate(-37.623 -127.917)" fill="#e2e2e2"/>
        <path id="Trazado_143168" data-name="Trazado 143168" d="M117.76,362.152a1.681,1.681,0,1,0-1.681-1.681,1.681,1.681,0,0,0,1.681,1.681" transform="translate(-41.385 -127.917)" fill="#e2e2e2"/>
        <path id="Trazado_143169" data-name="Trazado 143169" d="M128.313,362.152a1.681,1.681,0,1,0-1.68-1.681,1.681,1.681,0,0,0,1.68,1.681" transform="translate(-45.148 -127.917)" fill="#e2e2e2"/>
        <path id="Trazado_143170" data-name="Trazado 143170" d="M138.865,362.152a1.681,1.681,0,1,0-1.68-1.681,1.681,1.681,0,0,0,1.68,1.681" transform="translate(-48.91 -127.917)" fill="#e2e2e2"/>
        <path id="Trazado_143171" data-name="Trazado 143171" d="M149.418,362.152a1.681,1.681,0,1,0-1.68-1.681,1.681,1.681,0,0,0,1.68,1.681" transform="translate(-52.672 -127.917)" fill="#e2e2e2"/>
        <path id="Trazado_143172" data-name="Trazado 143172" d="M159.971,362.152a1.681,1.681,0,1,0-1.68-1.681,1.681,1.681,0,0,0,1.68,1.681" transform="translate(-56.435 -127.917)" fill="#e2e2e2"/>
        <path id="Trazado_143173" data-name="Trazado 143173" d="M170.524,362.152a1.681,1.681,0,1,0-1.679-1.681,1.681,1.681,0,0,0,1.679,1.681" transform="translate(-60.197 -127.917)" fill="#e2e2e2"/>
        <path id="Trazado_143174" data-name="Trazado 143174" d="M181.076,362.152a1.681,1.681,0,1,0-1.68-1.681,1.681,1.681,0,0,0,1.68,1.681" transform="translate(-63.959 -127.917)" fill="#e2e2e2"/>
        <path id="Trazado_143175" data-name="Trazado 143175" d="M191.629,362.152a1.681,1.681,0,1,0-1.68-1.681,1.681,1.681,0,0,0,1.68,1.681" transform="translate(-67.721 -127.917)" fill="#e2e2e2"/>
        <path id="Trazado_143176" data-name="Trazado 143176" d="M202.181,362.152a1.681,1.681,0,1,0-1.681-1.681,1.681,1.681,0,0,0,1.681,1.681" transform="translate(-71.483 -127.917)" fill="#e2e2e2"/>
        <path id="Trazado_143177" data-name="Trazado 143177" d="M212.733,362.152a1.681,1.681,0,1,0-1.681-1.681,1.681,1.681,0,0,0,1.681,1.681" transform="translate(-75.245 -127.917)" fill="#e2e2e2"/>
        <path id="Trazado_143178" data-name="Trazado 143178" d="M223.287,362.152a1.681,1.681,0,1,0-1.681-1.681,1.681,1.681,0,0,0,1.681,1.681" transform="translate(-79.008 -127.917)" fill="#e2e2e2"/>
        <path id="Trazado_143179" data-name="Trazado 143179" d="M86.1,372.7a1.681,1.681,0,1,0-1.681-1.681A1.681,1.681,0,0,0,86.1,372.7" transform="translate(-30.098 -131.68)" fill="#e2e2e2"/>
        <path id="Trazado_143180" data-name="Trazado 143180" d="M96.655,372.7a1.681,1.681,0,1,0-1.681-1.681,1.681,1.681,0,0,0,1.681,1.681" transform="translate(-33.861 -131.68)" fill="#e2e2e2"/>
        <path id="Trazado_143181" data-name="Trazado 143181" d="M107.208,372.7a1.681,1.681,0,1,0-1.681-1.681,1.681,1.681,0,0,0,1.681,1.681" transform="translate(-37.623 -131.68)" fill="#e2e2e2"/>
        <path id="Trazado_143182" data-name="Trazado 143182" d="M117.76,372.7a1.681,1.681,0,1,0-1.681-1.681,1.681,1.681,0,0,0,1.681,1.681" transform="translate(-41.385 -131.68)" fill="#e2e2e2"/>
        <path id="Trazado_143183" data-name="Trazado 143183" d="M128.313,372.7a1.681,1.681,0,1,0-1.68-1.681,1.681,1.681,0,0,0,1.68,1.681" transform="translate(-45.148 -131.68)" fill="#e2e2e2"/>
        <path id="Trazado_143184" data-name="Trazado 143184" d="M138.865,372.7a1.681,1.681,0,1,0-1.68-1.681,1.681,1.681,0,0,0,1.68,1.681" transform="translate(-48.91 -131.68)" fill="#e2e2e2"/>
        <path id="Trazado_143185" data-name="Trazado 143185" d="M149.418,372.7a1.681,1.681,0,1,0-1.68-1.681,1.681,1.681,0,0,0,1.68,1.681" transform="translate(-52.672 -131.68)" fill="#e2e2e2"/>
        <path id="Trazado_143186" data-name="Trazado 143186" d="M159.971,372.7a1.681,1.681,0,1,0-1.68-1.681,1.681,1.681,0,0,0,1.68,1.681" transform="translate(-56.435 -131.68)" fill="#e2e2e2"/>
        <path id="Trazado_143187" data-name="Trazado 143187" d="M170.524,372.7a1.681,1.681,0,1,0-1.679-1.681,1.681,1.681,0,0,0,1.679,1.681" transform="translate(-60.197 -131.68)" fill="#e2e2e2"/>
        <path id="Trazado_143188" data-name="Trazado 143188" d="M181.076,372.7a1.681,1.681,0,1,0-1.68-1.681,1.681,1.681,0,0,0,1.68,1.681" transform="translate(-63.959 -131.68)" fill="#e2e2e2"/>
        <path id="Trazado_143189" data-name="Trazado 143189" d="M191.629,372.7a1.681,1.681,0,1,0-1.68-1.681,1.681,1.681,0,0,0,1.68,1.681" transform="translate(-67.721 -131.68)" fill="#e2e2e2"/>
        <path id="Trazado_143190" data-name="Trazado 143190" d="M75.549,383.257a1.681,1.681,0,1,0-1.681-1.681,1.681,1.681,0,0,0,1.681,1.681" transform="translate(-26.336 -135.442)" fill="#e2e2e2"/>
        <path id="Trazado_143191" data-name="Trazado 143191" d="M86.1,383.257a1.681,1.681,0,1,0-1.681-1.681,1.681,1.681,0,0,0,1.681,1.681" transform="translate(-30.098 -135.442)" fill="#e2e2e2"/>
        <path id="Trazado_143192" data-name="Trazado 143192" d="M96.655,383.257a1.681,1.681,0,1,0-1.681-1.681,1.681,1.681,0,0,0,1.681,1.681" transform="translate(-33.861 -135.442)" fill="#e2e2e2"/>
        <path id="Trazado_143193" data-name="Trazado 143193" d="M107.208,383.257a1.681,1.681,0,1,0-1.681-1.681,1.681,1.681,0,0,0,1.681,1.681" transform="translate(-37.623 -135.442)" fill="#e2e2e2"/>
        <path id="Trazado_143194" data-name="Trazado 143194" d="M117.76,383.257a1.681,1.681,0,1,0-1.681-1.681,1.681,1.681,0,0,0,1.681,1.681" transform="translate(-41.385 -135.442)" fill="#e2e2e2"/>
        <path id="Trazado_143195" data-name="Trazado 143195" d="M128.313,383.257a1.681,1.681,0,1,0-1.68-1.681,1.681,1.681,0,0,0,1.68,1.681" transform="translate(-45.148 -135.442)" fill="#e2e2e2"/>
        <path id="Trazado_143196" data-name="Trazado 143196" d="M138.865,383.257a1.681,1.681,0,1,0-1.68-1.681,1.681,1.681,0,0,0,1.68,1.681" transform="translate(-48.91 -135.442)" fill="#e2e2e2"/>
        <path id="Trazado_143197" data-name="Trazado 143197" d="M149.418,383.257a1.681,1.681,0,1,0-1.68-1.681,1.681,1.681,0,0,0,1.68,1.681" transform="translate(-52.672 -135.442)" fill="#e2e2e2"/>
        <path id="Trazado_143198" data-name="Trazado 143198" d="M159.971,383.257a1.681,1.681,0,1,0-1.68-1.681,1.681,1.681,0,0,0,1.68,1.681" transform="translate(-56.435 -135.442)" fill="#e2e2e2"/>
        <path id="Trazado_143199" data-name="Trazado 143199" d="M170.524,383.257a1.681,1.681,0,1,0-1.679-1.681,1.681,1.681,0,0,0,1.679,1.681" transform="translate(-60.197 -135.442)" fill="#e2e2e2"/>
        <path id="Trazado_143200" data-name="Trazado 143200" d="M75.549,393.809a1.68,1.68,0,1,0-1.681-1.68,1.681,1.681,0,0,0,1.681,1.68" transform="translate(-26.336 -139.204)" fill="#e2e2e2"/>
        <path id="Trazado_143201" data-name="Trazado 143201" d="M96.655,393.809a1.68,1.68,0,1,0-1.681-1.68,1.681,1.681,0,0,0,1.681,1.68" transform="translate(-33.861 -139.204)" fill="#e2e2e2"/>
        <path id="Trazado_143202" data-name="Trazado 143202" d="M107.208,393.809a1.68,1.68,0,1,0-1.681-1.68,1.68,1.68,0,0,0,1.681,1.68" transform="translate(-37.623 -139.204)" fill="#e2e2e2"/>
        <path id="Trazado_143203" data-name="Trazado 143203" d="M117.76,393.809a1.68,1.68,0,1,0-1.681-1.68,1.68,1.68,0,0,0,1.681,1.68" transform="translate(-41.385 -139.204)" fill="#e2e2e2"/>
        <path id="Trazado_143204" data-name="Trazado 143204" d="M128.313,393.809a1.68,1.68,0,1,0-1.68-1.68,1.681,1.681,0,0,0,1.68,1.68" transform="translate(-45.148 -139.204)" fill="#e2e2e2"/>
        <path id="Trazado_143205" data-name="Trazado 143205" d="M138.865,393.809a1.68,1.68,0,1,0-1.68-1.68,1.681,1.681,0,0,0,1.68,1.68" transform="translate(-48.91 -139.204)" fill="#e2e2e2"/>
        <path id="Trazado_143206" data-name="Trazado 143206" d="M96.655,404.362a1.68,1.68,0,1,0-1.681-1.68,1.681,1.681,0,0,0,1.681,1.68" transform="translate(-33.861 -142.967)" fill="#e2e2e2"/>
        <path id="Trazado_143207" data-name="Trazado 143207" d="M107.208,404.362a1.68,1.68,0,1,0-1.681-1.68,1.68,1.68,0,0,0,1.681,1.68" transform="translate(-37.623 -142.967)" fill="#e2e2e2"/>
        <path id="Trazado_143208" data-name="Trazado 143208" d="M117.76,404.362a1.68,1.68,0,1,0-1.681-1.68,1.68,1.68,0,0,0,1.681,1.68" transform="translate(-41.385 -142.967)" fill="#e2e2e2"/>
        <path id="Trazado_143209" data-name="Trazado 143209" d="M128.313,404.362a1.68,1.68,0,1,0-1.68-1.68,1.681,1.681,0,0,0,1.68,1.68" transform="translate(-45.148 -142.967)" fill="#e2e2e2"/>
        <path id="Trazado_143210" data-name="Trazado 143210" d="M138.865,404.362a1.68,1.68,0,1,0-1.68-1.68,1.681,1.681,0,0,0,1.68,1.68" transform="translate(-48.91 -142.967)" fill="#e2e2e2"/>
        <path id="Trazado_143211" data-name="Trazado 143211" d="M107.208,414.915a1.68,1.68,0,1,0-1.681-1.68,1.68,1.68,0,0,0,1.681,1.68" transform="translate(-37.623 -146.729)" fill="#e2e2e2"/>
        <path id="Trazado_143212" data-name="Trazado 143212" d="M117.76,414.915a1.68,1.68,0,1,0-1.681-1.68,1.68,1.68,0,0,0,1.681,1.68" transform="translate(-41.385 -146.729)" fill="#e2e2e2"/>
        <path id="Trazado_143213" data-name="Trazado 143213" d="M128.313,414.915a1.68,1.68,0,1,0-1.68-1.68,1.681,1.681,0,0,0,1.68,1.68" transform="translate(-45.148 -146.729)" fill="#e2e2e2"/>
        <path id="Trazado_143214" data-name="Trazado 143214" d="M138.865,414.915a1.68,1.68,0,1,0-1.68-1.68,1.681,1.681,0,0,0,1.68,1.68" transform="translate(-48.91 -146.729)" fill="#e2e2e2"/>
        <path id="Trazado_143215" data-name="Trazado 143215" d="M117.76,425.467a1.68,1.68,0,1,0-1.681-1.68,1.68,1.68,0,0,0,1.681,1.68" transform="translate(-41.385 -150.491)" fill="#e2e2e2"/>
        <path id="Trazado_143216" data-name="Trazado 143216" d="M128.313,425.467a1.68,1.68,0,1,0-1.68-1.68,1.681,1.681,0,0,0,1.68,1.68" transform="translate(-45.148 -150.491)" fill="#e2e2e2"/>
        <path id="Trazado_143217" data-name="Trazado 143217" d="M138.865,425.467a1.68,1.68,0,1,0-1.68-1.68,1.681,1.681,0,0,0,1.68,1.68" transform="translate(-48.91 -150.491)" fill="#e2e2e2"/>
        <path id="Trazado_143218" data-name="Trazado 143218" d="M117.76,436.02a1.68,1.68,0,1,0-1.681-1.68,1.68,1.68,0,0,0,1.681,1.68" transform="translate(-41.385 -154.253)" fill="#e2e2e2"/>
        <path id="Trazado_143219" data-name="Trazado 143219" d="M128.313,436.02a1.68,1.68,0,1,0-1.68-1.68,1.681,1.681,0,0,0,1.68,1.68" transform="translate(-45.148 -154.253)" fill="#e2e2e2"/>
        <path id="Trazado_143220" data-name="Trazado 143220" d="M138.865,436.02a1.68,1.68,0,1,0-1.68-1.68,1.681,1.681,0,0,0,1.68,1.68" transform="translate(-48.91 -154.253)" fill="#e2e2e2"/>
        <path id="Trazado_143221" data-name="Trazado 143221" d="M128.313,446.573a1.681,1.681,0,1,0-1.68-1.68,1.681,1.681,0,0,0,1.68,1.68" transform="translate(-45.148 -158.016)" fill="#e2e2e2"/>
        <path id="Trazado_143222" data-name="Trazado 143222" d="M138.865,446.573a1.681,1.681,0,1,0-1.68-1.68,1.681,1.681,0,0,0,1.68,1.68" transform="translate(-48.91 -158.016)" fill="#e2e2e2"/>
        <path id="Trazado_143223" data-name="Trazado 143223" d="M128.313,457.126a1.681,1.681,0,1,0-1.68-1.68,1.681,1.681,0,0,0,1.68,1.68" transform="translate(-45.148 -161.778)" fill="#e2e2e2"/>
        <path id="Trazado_143224" data-name="Trazado 143224" d="M107.208,499.337a1.681,1.681,0,1,0-1.681-1.681,1.681,1.681,0,0,0,1.681,1.681" transform="translate(-37.623 -176.827)" fill="#e2e2e2"/>
        <path id="Trazado_143225" data-name="Trazado 143225" d="M117.76,499.337a1.681,1.681,0,1,0-1.681-1.681,1.681,1.681,0,0,0,1.681,1.681" transform="translate(-41.385 -176.827)" fill="#e2e2e2"/>
        <path id="Trazado_143226" data-name="Trazado 143226" d="M107.208,509.889a1.681,1.681,0,1,0-1.681-1.681,1.681,1.681,0,0,0,1.681,1.681" transform="translate(-37.623 -180.589)" fill="#e2e2e2"/>
        <path id="Trazado_143227" data-name="Trazado 143227" d="M96.655,520.442a1.681,1.681,0,1,0-1.681-1.681,1.681,1.681,0,0,0,1.681,1.681" transform="translate(-33.861 -184.352)" fill="#e2e2e2"/>
        <path id="Trazado_143228" data-name="Trazado 143228" d="M107.208,520.442a1.681,1.681,0,1,0-1.681-1.681,1.681,1.681,0,0,0,1.681,1.681" transform="translate(-37.623 -184.352)" fill="#e2e2e2"/>
        <path id="Trazado_143229" data-name="Trazado 143229" d="M86.1,541.547a1.681,1.681,0,1,0-1.681-1.681,1.681,1.681,0,0,0,1.681,1.681" transform="translate(-30.098 -191.876)" fill="#e2e2e2"/>
        <path id="Trazado_143230" data-name="Trazado 143230" d="M96.655,541.547a1.681,1.681,0,1,0-1.681-1.681,1.681,1.681,0,0,0,1.681,1.681" transform="translate(-33.861 -191.876)" fill="#e2e2e2"/>
        <path id="Trazado_143231" data-name="Trazado 143231" d="M75.549,552.1a1.68,1.68,0,1,0-1.681-1.68,1.681,1.681,0,0,0,1.681,1.68" transform="translate(-26.336 -195.638)" fill="#e2e2e2"/>
        <path id="Trazado_143232" data-name="Trazado 143232" d="M86.1,552.1a1.68,1.68,0,1,0-1.681-1.68A1.681,1.681,0,0,0,86.1,552.1" transform="translate(-30.098 -195.638)" fill="#e2e2e2"/>
        <path id="Trazado_143233" data-name="Trazado 143233" d="M33.339,594.31a1.68,1.68,0,1,0-1.681-1.68,1.681,1.681,0,0,0,1.681,1.68" transform="translate(-11.287 -210.688)" fill="#e2e2e2"/>
        <path id="Trazado_143234" data-name="Trazado 143234" d="M43.892,594.31a1.68,1.68,0,1,0-1.681-1.68,1.68,1.68,0,0,0,1.681,1.68" transform="translate(-15.049 -210.688)" fill="#e2e2e2"/>
        <path id="Trazado_143235" data-name="Trazado 143235" d="M1.681,604.862A1.681,1.681,0,1,0,0,603.182a1.681,1.681,0,0,0,1.681,1.68" transform="translate(0 -214.45)" fill="#e2e2e2"/>
        <path id="Trazado_143236" data-name="Trazado 143236" d="M12.234,604.862a1.681,1.681,0,1,0-1.681-1.68,1.681,1.681,0,0,0,1.681,1.68" transform="translate(-3.762 -214.45)" fill="#e2e2e2"/>
        <path id="Trazado_143237" data-name="Trazado 143237" d="M22.786,604.862a1.681,1.681,0,1,0-1.681-1.68,1.681,1.681,0,0,0,1.681,1.68" transform="translate(-7.524 -214.45)" fill="#e2e2e2"/>
      </g>
    </g>
    <path id="Trazado_151519" data-name="Trazado 151519" d="M118.171,12.892a7.71,7.71,0,0,1-.58,3.116,5.349,5.349,0,0,1-1.608,2.123l2.127,1.67-1.679,1.485L113.706,19.1a5.767,5.767,0,0,1-.967.079,5.324,5.324,0,0,1-2.839-.765,5.08,5.08,0,0,1-1.934-2.184,7.5,7.5,0,0,1-.694-3.265v-.633A7.685,7.685,0,0,1,107.954,9,5.072,5.072,0,0,1,109.878,6.8a5.64,5.64,0,0,1,5.687,0A5.072,5.072,0,0,1,117.49,9a7.663,7.663,0,0,1,.681,3.318Zm-2.672-.58a5.385,5.385,0,0,0-.721-3.059,2.546,2.546,0,0,0-4.1-.013,5.324,5.324,0,0,0-.729,3.028v.624a5.453,5.453,0,0,0,.721,3.041,2.524,2.524,0,0,0,4.113.04,5.421,5.421,0,0,0,.721-3.037Zm7.4,4.57h6.451V19H119.6V17.453l6.328-9.114h-6.319V6.2h9.6V7.715Zm14.748-1.239a1.353,1.353,0,0,0-.527-1.147,6.917,6.917,0,0,0-1.9-.844,13.458,13.458,0,0,1-2.171-.875,3.547,3.547,0,0,1-2.18-3.173,3.09,3.09,0,0,1,.584-1.85,3.812,3.812,0,0,1,1.679-1.27,6.318,6.318,0,0,1,2.457-.457,5.751,5.751,0,0,1,2.443.5,3.891,3.891,0,0,1,1.666,1.4,3.668,3.668,0,0,1,.593,2.057h-2.637a1.726,1.726,0,0,0-.554-1.367,2.276,2.276,0,0,0-1.556-.488,2.432,2.432,0,0,0-1.5.409,1.289,1.289,0,0,0-.536,1.077,1.235,1.235,0,0,0,.628,1.046,7.1,7.1,0,0,0,1.85.791,7.994,7.994,0,0,1,3.278,1.679,3.343,3.343,0,0,1,1.028,2.5,3.08,3.08,0,0,1-1.257,2.606,5.5,5.5,0,0,1-3.384.945,6.534,6.534,0,0,1-2.689-.541,4.256,4.256,0,0,1-1.85-1.481,3.793,3.793,0,0,1-.637-2.18h2.646q0,2.118,2.531,2.118a2.462,2.462,0,0,0,1.468-.382A1.244,1.244,0,0,0,137.647,15.643Zm11.065,0a1.353,1.353,0,0,0-.527-1.147,6.917,6.917,0,0,0-1.9-.844,13.458,13.458,0,0,1-2.171-.875,3.547,3.547,0,0,1-2.18-3.173,3.09,3.09,0,0,1,.584-1.85,3.812,3.812,0,0,1,1.679-1.27,6.318,6.318,0,0,1,2.457-.457,5.751,5.751,0,0,1,2.443.5,3.891,3.891,0,0,1,1.666,1.4,3.668,3.668,0,0,1,.593,2.057h-2.637a1.726,1.726,0,0,0-.554-1.367,2.276,2.276,0,0,0-1.556-.488,2.432,2.432,0,0,0-1.5.409,1.289,1.289,0,0,0-.536,1.077,1.235,1.235,0,0,0,.628,1.046,7.1,7.1,0,0,0,1.85.791,7.994,7.994,0,0,1,3.278,1.679,3.343,3.343,0,0,1,1.028,2.5,3.08,3.08,0,0,1-1.257,2.606,5.5,5.5,0,0,1-3.384.945,6.534,6.534,0,0,1-2.689-.541,4.256,4.256,0,0,1-1.85-1.481,3.793,3.793,0,0,1-.637-2.18h2.646q0,2.118,2.531,2.118a2.462,2.462,0,0,0,1.468-.382A1.244,1.244,0,0,0,148.713,15.643Z" transform="translate(-9822 -6839)" fill="#12263f"/>
    <g id="Grupo_91665" data-name="Grupo 91665" transform="translate(-9816.712 -6944)">
      <rect id="Rectángulo_35484" data-name="Rectángulo 35484" width="146.564" height="85.5" transform="translate(0 0)" fill="#f9f9f9"/>
      <g id="Grupo_91666" data-name="Grupo 91666" transform="translate(0 0)">
        <g id="Grupo_91665-2" data-name="Grupo 91665" clip-path="url(#clip-path-2)">
          <path id="Trazado_143238" data-name="Trazado 143238" d="M79.553,19.352A25.649,25.649,0,1,1,53.9,45,25.645,25.645,0,0,1,79.553,19.352" transform="translate(-6.269 -2.251)" fill="#ad0018"/>
        </g>
      </g>
    </g>
  </g>
</svg>
