<svg xmlns="http://www.w3.org/2000/svg" width="125.645" height="73.293" viewBox="0 0 125.645 73.293">
  <g id="Grupo_145806" data-name="Grupo 145806" transform="translate(0 0)">
    <rect id="Rectángulo_35487" data-name="Rectángulo 35487" width="125.645" height="73.293" transform="translate(0 0)" fill="#cb1d23"/>
    <path id="Trazado_144381" data-name="Trazado 144381" d="M14.728,28.883l2.362-7.315-6.206-4.534,7.686-.014,2.394-7.3,2.389,7.305,7.687.021-6.21,4.529,2.356,7.315-6.226-4.506Z" transform="translate(-2.639 -2.356)" fill="#f7de29"/>
    <path id="Trazado_144382" data-name="Trazado 144382" d="M44.143,39.89l2.593,1.041,1.8-2.136-.191,2.786,2.589,1.053-2.71.683-.2,2.786L46.54,43.738l-2.712.666,1.791-2.145Z" transform="translate(-10.626 -9.406)" fill="#f7de29"/>
    <path id="Trazado_144383" data-name="Trazado 144383" d="M60.466,20l-2.754-.479-1.318,2.464L56,19.216l-2.751-.5,2.509-1.229-.382-2.77,1.945,2.008,2.517-1.218-1.309,2.47Z" transform="translate(-12.91 -3.57)" fill="#f7de29"/>
    <path id="Trazado_144384" data-name="Trazado 144384" d="M54.611,35.986l.858-2.661-2.257-1.649,2.8-.006.87-2.655.87,2.657,2.795.006-2.258,1.647.857,2.661-2.264-1.637Z" transform="translate(-12.901 -7.035)" fill="#f7de29"/>
    <path id="Trazado_144385" data-name="Trazado 144385" d="M44.247,5.873l2.536,1.176,1.912-2.041L48.36,7.784,50.89,8.973l-2.744.537L47.8,12.284,46.439,9.842l-2.745.527,1.9-2.048Z" transform="translate(-10.593 -1.215)" fill="#f7de29"/>
  </g>
</svg>
