<svg xmlns="http://www.w3.org/2000/svg" xmlns:xlink="http://www.w3.org/1999/xlink" width="125.645" height="73.637" viewBox="0 0 125.645 73.637">
  <defs>
    <clipPath id="clip-path">
      <rect id="Rectángulo_35493" data-name="Rectángulo 35493" width="125.645" height="73.637" fill="none"/>
    </clipPath>
  </defs>
  <g id="Grupo_145805" data-name="Grupo 145805" transform="translate(0 0)">
    <g id="Grupo_91675" data-name="Grupo 91675" transform="translate(0 0)" clip-path="url(#clip-path)">
      <path id="Trazado_146537" data-name="Trazado 146537" d="M64.341,73.626c-18.232,0-45.58,0-63.813.011-.431,0-.529-.1-.529-.528Q.018,36.818,0,.528C0,.1.1,0,.529,0,37,.011,88.651.011,125.117,0c.431,0,.529.1.529.528q-.018,36.29,0,72.581c0,.431-.1.529-.529.528-18.233-.012-42.541-.011-60.775-.011m2.253-9.009.047-.054-.052.052c.145-.166.033-.321-.018-.479-.2-.616-.385-1.237-.608-1.844a.541.541,0,0,1,.238-.742,10.786,10.786,0,0,0,1.934-1.486c-.172-.174-.393-.122-.6-.124-.762-.006-1.527,0-2.291-.006-.293-.842-.587-1.685-.908-2.6-.323.93-.613,1.767-.9,2.6-.553,0-1.108-.017-1.66.011-.409.021-.838-.132-1.225.119.241.385.664.552,1,.823.415.333,1.071.571,1.208.987s-.264.99-.392,1.5c-.1.41-.422.775-.274,1.24l-.049-.058.044.059c.635-.6,1.4-1.034,2.081-1.576a.238.238,0,0,1,.346,0c.68.542,1.447.972,2.081,1.575M89.413,23.262c-.166-.178-.383-.128-.586-.129-.772-.006-1.546,0-2.317-.006-.294-.848-.587-1.7-.9-2.615-.308.9-.586,1.711-.861,2.518a7.482,7.482,0,0,1-1.752.1c-.388.031-.8-.122-1.163.118a9.942,9.942,0,0,0,1.928,1.495.555.555,0,0,1,.226.75c-.262.735-.49,1.483-.775,2.359.759-.552,1.408-.993,2.019-1.481a.522.522,0,0,1,.778.014c.61.481,1.253.92,2.007,1.467-.283-.865-.5-1.593-.763-2.3a.6.6,0,0,1,.261-.838,11.434,11.434,0,0,0,1.9-1.454M43.938,23.03c-.277-.81-.555-1.619-.865-2.52-.322.938-.611,1.777-.9,2.616-.622,0-1.245-.014-1.866.011-.346.014-.718-.125-1.038.125a11.472,11.472,0,0,0,1.9,1.454.6.6,0,0,1,.26.838c-.268.708-.48,1.436-.763,2.3.738-.534,1.369-.958,1.96-1.43a.582.582,0,0,1,.87-.014c.6.485,1.244.912,1.974,1.439-.278-.857-.494-1.586-.754-2.3a.607.607,0,0,1,.251-.837,9.115,9.115,0,0,0,1.882-1.46c-.21-.191-.469-.106-.708-.121a10.629,10.629,0,0,1-2.208-.1M68.217,11.024H66.48c-1.211,0-1.21,0-1.58-1.129-.172-.525-.351-1.047-.564-1.684-.26.791-.513,1.434-.673,2.1-.133.557-.374.785-.975.729-.691-.065-1.394-.014-2.221-.014.75.546,1.368,1.028,2.02,1.457a.532.532,0,0,1,.229.744c-.262.738-.49,1.488-.772,2.355.74-.535,1.375-.963,1.972-1.438a.55.55,0,0,1,.831-.016c.6.493,1.258.923,1.994,1.453-.283-.87-.514-1.634-.786-2.384a.5.5,0,0,1,.219-.7c.652-.434,1.272-.914,2.042-1.474M40.678,52.393c.778-.567,1.434-1.029,2.07-1.517a.449.449,0,0,1,.647,0c.633.486,1.287.943,2.077,1.519-.295-.9-.518-1.646-.781-2.375a.533.533,0,0,1,.251-.739c.649-.429,1.265-.908,2.006-1.447-.932,0-1.733-.018-2.532.009a.484.484,0,0,1-.56-.417c-.231-.766-.491-1.523-.783-2.414-.3.9-.567,1.651-.786,2.417a.478.478,0,0,1-.564.411c-.8-.021-1.6-.007-2.524-.007.772.563,1.427,1.056,2.1,1.523a.4.4,0,0,1,.176.563c-.273.771-.505,1.555-.8,2.476m48.8-4.561c-.872,0-1.618-.038-2.357.014-.485.034-.673-.152-.793-.586-.2-.722-.454-1.429-.725-2.259-.293.906-.552,1.665-.781,2.432a.483.483,0,0,1-.567.409c-.8-.027-1.6-.009-2.522-.009.757.552,1.392,1.043,2.058,1.487a.467.467,0,0,1,.211.652c-.264.746-.5,1.5-.791,2.412.761-.548,1.4-.968,1.988-1.448a.551.551,0,0,1,.832.014c.6.476,1.236.906,1.967,1.433-.291-.917-.521-1.7-.8-2.473a.4.4,0,0,1,.185-.56c.671-.467,1.325-.958,2.092-1.519M54.467,18.852c-.263-.823-.457-1.558-.737-2.26a.644.644,0,0,1,.31-.925c.624-.4,1.211-.864,1.934-1.388-.966,0-1.751-.019-2.535.009a.505.505,0,0,1-.6-.427c-.223-.766-.484-1.52-.767-2.4-.281.864-.544,1.618-.766,2.383a.5.5,0,0,1-.595.44c-.792-.03-1.585-.01-2.539-.01.763.556,1.38,1.028,2.023,1.463a.53.53,0,0,1,.248.747c-.274.729-.484,1.483-.763,2.357.776-.561,1.437-1.019,2.071-1.509a.436.436,0,0,1,.637,0c.651.5,1.325.969,2.076,1.515m19.739.007c.6-.437,1.1-.794,1.594-1.153.813-.59.811-.589,1.6-.016.5.359,1,.714,1.6,1.151-.279-.869-.488-1.6-.755-2.312a.556.556,0,0,1,.247-.8c.646-.423,1.255-.9,2.008-1.452-.958,0-1.757-.016-2.551.008a.472.472,0,0,1-.563-.4c-.226-.779-.5-1.545-.784-2.412-.279.857-.545,1.594-.753,2.347a.528.528,0,0,1-.627.467c-.788-.03-1.579-.01-2.517-.01.782.569,1.419,1.055,2.081,1.5a.477.477,0,0,1,.21.661c-.266.752-.5,1.515-.8,2.415M37.4,40.12c.74-.534,1.4-.987,2.029-1.475a.5.5,0,0,1,.735-.013c.62.494,1.28.94,2.038,1.489-.267-.819-.464-1.513-.723-2.183a.706.706,0,0,1,.32-1.025c.62-.377,1.184-.845,1.888-1.359-.911,0-1.659-.033-2.4.012a.625.625,0,0,1-.754-.544c-.2-.731-.459-1.445-.731-2.279-.279.847-.55,1.544-.73,2.264-.117.469-.339.583-.791.557-.737-.04-1.477-.011-2.366-.011.763.557,1.39,1.047,2.053,1.482a.5.5,0,0,1,.212.708c-.264.75-.5,1.512-.778,2.377m55.37-4.567c-.976,0-1.782-.017-2.585.008a.445.445,0,0,1-.516-.38c-.236-.781-.5-1.555-.785-2.452-.276.852-.534,1.588-.749,2.336-.1.365-.254.523-.669.5-.772-.043-1.547-.012-2.471-.012.756.551,1.373,1.026,2.017,1.46a.531.531,0,0,1,.242.749c-.273.73-.485,1.484-.762,2.353.772-.56,1.432-1.018,2.067-1.508a.442.442,0,0,1,.642,0c.652.5,1.324.971,2.081,1.519-.278-.859-.5-1.624-.778-2.369a.53.53,0,0,1,.252-.743c.644-.434,1.261-.909,2.013-1.458M52.074,54c-.287.875-.558,1.645-.788,2.427a.473.473,0,0,1-.559.407c-.794-.027-1.589-.009-2.533-.009.767.559,1.4,1.039,2.055,1.489a.469.469,0,0,1,.207.659c-.275.752-.5,1.524-.776,2.408.734-.535,1.365-.968,1.964-1.441a.557.557,0,0,1,.833-.014c.607.493,1.262.927,1.994,1.452-.281-.867-.5-1.618-.772-2.347a.526.526,0,0,1,.23-.748c.654-.435,1.274-.919,2.013-1.459-.955,0-1.76-.017-2.562.008a.446.446,0,0,1-.519-.377c-.239-.785-.5-1.563-.788-2.457m26.935,7.384c-.29-.9-.51-1.672-.788-2.42a.468.468,0,0,1,.22-.655c.651-.45,1.283-.928,2.046-1.484-.93,0-1.709-.025-2.484.011a.537.537,0,0,1-.632-.471c-.223-.759-.481-1.508-.76-2.365-.283.867-.551,1.6-.755,2.357-.108.393-.292.5-.68.478-.768-.033-1.538-.01-2.442-.01.742.542,1.343,1.013,1.98,1.431a.555.555,0,0,1,.267.785c-.275.734-.491,1.49-.763,2.341.75-.543,1.413-1,2.045-1.49a.466.466,0,0,1,.689-.009c.633.491,1.293.948,2.058,1.5" transform="translate(0 0)" fill="#003398"/>
      <path id="Trazado_146538" data-name="Trazado 146538" d="M87.368,13.625c-.77.56-1.391,1.04-2.042,1.474a.5.5,0,0,0-.219.7c.271.75.5,1.514.785,2.384-.735-.529-1.39-.96-1.994-1.453a.55.55,0,0,0-.832.017c-.6.474-1.23.9-1.971,1.437.282-.867.51-1.617.772-2.355a.531.531,0,0,0-.229-.744c-.652-.43-1.271-.912-2.021-1.458.828,0,1.53-.049,2.221.015.6.056.842-.172.975-.73.159-.665.413-1.307.672-2.1.214.638.393,1.16.565,1.684.369,1.129.368,1.129,1.579,1.129Z" transform="translate(-19.151 -2.6)" fill="#facb03"/>
      <path id="Trazado_146539" data-name="Trazado 146539" d="M53.093,66.649c.293-.92.525-1.705.8-2.476a.4.4,0,0,0-.176-.563c-.674-.466-1.33-.96-2.1-1.523.925,0,1.726-.013,2.525.007a.477.477,0,0,0,.563-.411c.219-.766.49-1.518.786-2.417.292.891.552,1.648.783,2.414a.483.483,0,0,0,.56.417c.8-.027,1.6-.008,2.532-.008-.74.538-1.357,1.017-2.007,1.447a.533.533,0,0,0-.25.739c.263.728.487,1.471.781,2.374-.791-.575-1.445-1.033-2.076-1.519a.45.45,0,0,0-.648,0c-.636.488-1.292.951-2.07,1.517" transform="translate(-12.415 -14.255)" fill="#facb03"/>
      <path id="Trazado_146540" data-name="Trazado 146540" d="M115.37,62.085c-.769.561-1.422,1.051-2.092,1.519a.4.4,0,0,0-.185.559c.276.77.506,1.557.8,2.474-.73-.528-1.367-.957-1.967-1.434a.551.551,0,0,0-.832-.014c-.589.48-1.226.9-1.987,1.447.3-.909.527-1.666.79-2.411a.467.467,0,0,0-.21-.652c-.666-.445-1.3-.935-2.058-1.487.924,0,1.723-.017,2.521.008a.484.484,0,0,0,.567-.408c.228-.768.488-1.526.781-2.432.27.829.524,1.536.724,2.259.121.434.308.62.793.586.74-.052,1.486-.014,2.358-.014" transform="translate(-25.888 -14.253)" fill="#facb03"/>
      <path id="Trazado_146541" data-name="Trazado 146541" d="M59.29,29.749a9.11,9.11,0,0,1-1.881,1.46.607.607,0,0,0-.252.837c.26.713.476,1.442.755,2.3-.731-.527-1.376-.954-1.975-1.44a.581.581,0,0,0-.869.014c-.593.472-1.223.9-1.962,1.429.283-.862.5-1.59.763-2.3a.6.6,0,0,0-.261-.838,11.477,11.477,0,0,1-1.9-1.454c.819,0,1.64.01,2.459,0,.153,0,.355.093.444-.138l.9-2.616.865,2.52c.021.286.236.239.419.238.832,0,1.664-.011,2.5-.016" transform="translate(-12.437 -6.496)" fill="#f7c904"/>
      <path id="Trazado_146542" data-name="Trazado 146542" d="M110.662,29.527c.276-.807.552-1.615.861-2.519.317.92.611,1.767.9,2.615.089.232.291.137.444.139.82.007,1.64,0,2.46,0a11.414,11.414,0,0,1-1.9,1.455.6.6,0,0,0-.26.838c.268.708.481,1.436.764,2.3-.755-.548-1.4-.987-2.007-1.468a.524.524,0,0,0-.778-.014c-.611.488-1.26.929-2.019,1.482.285-.876.513-1.624.775-2.36a.554.554,0,0,0-.227-.749,9.99,9.99,0,0,1-1.927-1.495c.832.005,1.663.012,2.5.016.182,0,.4.049.419-.238" transform="translate(-25.917 -6.496)" fill="#f7c904"/>
      <path id="Trazado_146543" data-name="Trazado 146543" d="M82.612,78.093c.291-.837.582-1.674.9-2.6l.908,2.6c.062.218.245.138.379.138.835,0,1.672,0,2.507-.009a10.757,10.757,0,0,1-1.933,1.487.54.54,0,0,0-.238.741c.223.607.408,1.229.608,1.844.052.158.163.314.018.479l0,0c-.634-.6-1.4-1.034-2.08-1.575a.239.239,0,0,0-.346,0c-.68.542-1.446.972-2.08,1.576l0,0c-.149-.466.172-.829.274-1.239.128-.514.528-1.091.392-1.5s-.794-.655-1.208-.988c-.336-.27-.759-.437-1-.823.835,0,1.671.013,2.506.009.134,0,.317.08.38-.138" transform="translate(-19.177 -18.158)" fill="#f7c904"/>
      <path id="Trazado_146544" data-name="Trazado 146544" d="M69.724,22.484c-.753-.546-1.426-1.015-2.076-1.515a.437.437,0,0,0-.638,0c-.635.49-1.294.948-2.07,1.509.278-.873.488-1.627.762-2.357a.53.53,0,0,0-.248-.747c-.643-.434-1.261-.907-2.024-1.462.954,0,1.748-.021,2.54.009a.5.5,0,0,0,.595-.44c.222-.766.485-1.519.766-2.383.283.876.544,1.631.766,2.4a.506.506,0,0,0,.6.427c.785-.028,1.57-.008,2.536-.008-.723.523-1.31.984-1.934,1.387a.644.644,0,0,0-.309.925c.279.7.474,1.437.737,2.26" transform="translate(-15.257 -3.631)" fill="#f9ca03"/>
      <path id="Trazado_146545" data-name="Trazado 146545" d="M97.234,22.493c.3-.9.532-1.662.8-2.415a.478.478,0,0,0-.21-.661c-.663-.448-1.3-.934-2.082-1.5.939,0,1.729-.021,2.518.009a.527.527,0,0,0,.627-.467c.209-.753.474-1.49.753-2.347.286.868.557,1.634.784,2.412a.471.471,0,0,0,.562.4c.8-.024,1.593-.008,2.552-.008-.753.55-1.362,1.028-2.008,1.451a.557.557,0,0,0-.248.8c.267.711.476,1.443.756,2.313-.61-.437-1.109-.792-1.6-1.151-.792-.574-.791-.575-1.6.015-.494.359-.989.715-1.594,1.153" transform="translate(-23.029 -3.634)" fill="#f9ca03"/>
      <path id="Trazado_146546" data-name="Trazado 146546" d="M48.774,50.49c.281-.865.514-1.627.778-2.377a.5.5,0,0,0-.212-.708c-.662-.436-1.29-.926-2.053-1.482.889,0,1.629-.03,2.366.011.451.025.673-.088.791-.557.18-.72.451-1.417.73-2.264.272.834.529,1.549.732,2.278a.625.625,0,0,0,.753.545c.743-.045,1.49-.012,2.4-.012-.7.514-1.268.983-1.888,1.359a.706.706,0,0,0-.32,1.025c.259.671.456,1.365.723,2.183-.758-.549-1.417-.995-2.039-1.489a.5.5,0,0,0-.734.013c-.631.488-1.289.94-2.029,1.475" transform="translate(-11.374 -10.37)" fill="#facb03"/>
      <path id="Trazado_146547" data-name="Trazado 146547" d="M119.689,45.919c-.752.549-1.368,1.025-2.013,1.458a.531.531,0,0,0-.252.744c.279.744.5,1.509.778,2.369-.756-.549-1.429-1.02-2.081-1.52a.442.442,0,0,0-.642,0c-.636.49-1.295.949-2.067,1.508.277-.869.488-1.622.762-2.353a.531.531,0,0,0-.242-.749c-.645-.434-1.261-.909-2.017-1.46.923,0,1.7-.03,2.471.012.414.024.564-.134.67-.5.215-.748.472-1.484.748-2.336.289.9.548,1.672.785,2.452a.445.445,0,0,0,.516.38c.8-.027,1.609-.009,2.585-.009" transform="translate(-26.919 -10.366)" fill="#facb03"/>
      <path id="Trazado_146548" data-name="Trazado 146548" d="M67.339,71.107c.288.894.548,1.672.787,2.456a.446.446,0,0,0,.52.377c.8-.025,1.607-.008,2.562-.008-.739.54-1.359,1.024-2.013,1.459a.527.527,0,0,0-.231.748c.272.73.49,1.479.772,2.348-.731-.526-1.386-.959-1.994-1.452a.557.557,0,0,0-.833.014c-.6.472-1.23.906-1.963,1.441.28-.885.5-1.656.775-2.408a.47.47,0,0,0-.207-.66c-.655-.45-1.288-.93-2.055-1.489.944,0,1.738-.018,2.532.009a.473.473,0,0,0,.559-.407c.23-.782.5-1.553.788-2.427" transform="translate(-15.264 -17.104)" fill="#facb03"/>
      <path id="Trazado_146549" data-name="Trazado 146549" d="M102.045,78.49c-.765-.554-1.426-1.01-2.058-1.5A.466.466,0,0,0,99.3,77c-.633.493-1.295.947-2.045,1.49.273-.851.488-1.607.763-2.341a.555.555,0,0,0-.267-.785c-.636-.418-1.238-.889-1.98-1.431.9,0,1.675-.023,2.442.01.387.017.572-.085.68-.478.2-.753.472-1.489.755-2.357.279.857.538,1.605.76,2.365a.537.537,0,0,0,.632.471c.775-.036,1.554-.011,2.484-.011-.763.556-1.4,1.034-2.046,1.484a.468.468,0,0,0-.22.655c.278.747.5,1.516.788,2.42" transform="translate(-23.036 -17.103)" fill="#facb03"/>
      <path id="Trazado_146550" data-name="Trazado 146550" d="M60.769,30.548c-.832.005-1.664.012-2.5.016-.183,0-.4.048-.419-.238a10.622,10.622,0,0,0,2.207.1c.239.015.5-.071.708.121" transform="translate(-13.916 -7.294)" fill="#0020ac"/>
      <path id="Trazado_146551" data-name="Trazado 146551" d="M110.662,30.325c-.022.287-.237.239-.419.238-.832,0-1.664-.011-2.5-.016.367-.241.775-.087,1.163-.118a7.481,7.481,0,0,0,1.751-.1" transform="translate(-25.917 -7.294)" fill="#0020ac"/>
      <path id="Trazado_146552" data-name="Trazado 146552" d="M54.61,30.446c-.089.231-.291.137-.444.138-.819.007-1.64,0-2.459,0,.32-.248.691-.111,1.038-.125.62-.024,1.243-.009,1.865-.011" transform="translate(-12.437 -7.32)" fill="#0020ac"/>
      <path id="Trazado_146553" data-name="Trazado 146553" d="M116.813,30.586c-.82,0-1.64.01-2.46,0-.153,0-.355.093-.444-.138.773,0,1.546,0,2.319.006.2,0,.42-.049.586.129" transform="translate(-27.399 -7.324)" fill="#0020ac"/>
      <path id="Trazado_146554" data-name="Trazado 146554" d="M82.612,78.913c-.062.218-.245.138-.38.138-.835,0-1.671,0-2.506-.009.387-.251.817-.1,1.226-.118.552-.029,1.107-.009,1.66-.011" transform="translate(-19.177 -18.977)" fill="#0020ac"/>
      <path id="Trazado_146555" data-name="Trazado 146555" d="M88.8,79.047c-.835,0-1.671.012-2.506.009-.134,0-.317.08-.38-.138.763,0,1.527,0,2.29.005.205,0,.425-.05.6.124" transform="translate(-20.665 -18.982)" fill="#0020ac"/>
      <path id="Trazado_146556" data-name="Trazado 146556" d="M81.738,85.067l-.044-.059.049.058,0,0" transform="translate(-19.65 -20.447)" fill="#f7c904"/>
      <path id="Trazado_146557" data-name="Trazado 146557" d="M87.679,85.064l.052-.052-.048.055,0,0" transform="translate(-21.09 -20.448)" fill="#f7c904"/>
    </g>
  </g>
</svg>
