<svg id="Grupo_145803" data-name="Grupo 145803" xmlns="http://www.w3.org/2000/svg" width="125.645" height="73.295" viewBox="0 0 125.645 73.295">
  <rect id="Rectángulo_35454" data-name="Rectángulo 35454" width="125.645" height="5.639" transform="translate(0 67.656)" fill="#cb001c"/>
  <rect id="Rectángulo_35455" data-name="Rectángulo 35455" width="125.645" height="5.639" transform="translate(0 62.017)" fill="#fff"/>
  <rect id="Rectángulo_35456" data-name="Rectángulo 35456" width="125.645" height="5.635" transform="translate(0 56.381)" fill="#cb001c"/>
  <rect id="Rectángulo_35457" data-name="Rectángulo 35457" width="125.645" height="5.639" transform="translate(0 50.743)" fill="#fff"/>
  <rect id="Rectángulo_35458" data-name="Rectángulo 35458" width="125.645" height="5.639" transform="translate(0 45.104)" fill="#cb001c"/>
  <rect id="Rectángulo_35459" data-name="Rectángulo 35459" width="125.645" height="5.635" transform="translate(0 39.469)" fill="#fff"/>
  <rect id="Rectángulo_35460" data-name="Rectángulo 35460" width="125.645" height="5.638" transform="translate(0 33.83)" fill="#cb001c"/>
  <rect id="Rectángulo_35461" data-name="Rectángulo 35461" width="125.645" height="5.635" transform="translate(0 28.19)" fill="#fff"/>
  <rect id="Rectángulo_35462" data-name="Rectángulo 35462" width="125.645" height="5.638" transform="translate(0 22.553)" fill="#cb001c"/>
  <rect id="Rectángulo_35463" data-name="Rectángulo 35463" width="125.645" height="5.639" transform="translate(0 16.914)" fill="#fff"/>
  <rect id="Rectángulo_35464" data-name="Rectángulo 35464" width="125.645" height="5.639" transform="translate(0 11.274)" fill="#cb001c"/>
  <rect id="Rectángulo_35465" data-name="Rectángulo 35465" width="125.645" height="5.635" transform="translate(0 5.639)" fill="#fff"/>
  <rect id="Rectángulo_35466" data-name="Rectángulo 35466" width="125.645" height="5.639" transform="translate(0 0)" fill="#cb001c"/>
  <rect id="Rectángulo_35467" data-name="Rectángulo 35467" width="57.367" height="39.469" transform="translate(0 0)" fill="#2a3560"/>
  <path id="Trazado_142171" data-name="Trazado 142171" d="M6.171,5.74l.486,1.5H8.223l-1.268.92.486,1.491-1.27-.924L4.9,9.646l.485-1.491-1.269-.92H5.688Z" transform="translate(-0.999 -1.391)" fill="#fff"/>
  <path id="Trazado_142172" data-name="Trazado 142172" d="M6.171,14.437l.486,1.491H8.223l-1.268.92.486,1.5-1.27-.925L4.9,18.344l.485-1.5-1.269-.92H5.688Z" transform="translate(-0.999 -3.5)" fill="#fff"/>
  <path id="Trazado_142173" data-name="Trazado 142173" d="M6.171,23.134l.486,1.491H8.223l-1.268.92.486,1.5-1.27-.925L4.9,27.041l.485-1.5-1.269-.92H5.688Z" transform="translate(-0.999 -5.609)" fill="#fff"/>
  <path id="Trazado_142174" data-name="Trazado 142174" d="M6.171,31.832l.486,1.491H8.223l-1.268.924.486,1.487-1.27-.92-1.268.92.485-1.487-1.269-.924H5.688Z" transform="translate(-0.999 -7.717)" fill="#fff"/>
  <path id="Trazado_142175" data-name="Trazado 142175" d="M6.171,40.528l.486,1.492H8.223l-1.268.92.486,1.492-1.27-.92-1.268.92.485-1.492-1.269-.92H5.688Z" transform="translate(-0.999 -9.826)" fill="#fff"/>
  <path id="Trazado_142176" data-name="Trazado 142176" d="M12.229,10.325l.485,1.491h1.568l-1.27.92.486,1.491-1.269-.92-1.27.92.486-1.491-1.268-.92h1.568Z" transform="translate(-2.467 -2.503)" fill="#fff"/>
  <path id="Trazado_142177" data-name="Trazado 142177" d="M12.229,19.022l.485,1.486h1.568l-1.27.925.486,1.491L12.229,22l-1.27.92.486-1.491-1.268-.925h1.568Z" transform="translate(-2.467 -4.612)" fill="#fff"/>
  <path id="Trazado_142178" data-name="Trazado 142178" d="M12.229,27.714l.485,1.491h1.568l-1.27.925.486,1.491-1.269-.92-1.27.92.486-1.491L10.176,29.2h1.568Z" transform="translate(-2.467 -6.719)" fill="#fff"/>
  <path id="Trazado_142179" data-name="Trazado 142179" d="M12.229,36.411l.485,1.492h1.568l-1.27.923.486,1.487-1.269-.92-1.27.92.486-1.487L10.176,37.9h1.568Z" transform="translate(-2.467 -8.828)" fill="#fff"/>
  <path id="Trazado_142180" data-name="Trazado 142180" d="M18.363,5.74l.486,1.5h1.566l-1.268.92.486,1.491-1.27-.924-1.269.924.485-1.491-1.268-.92h1.567Z" transform="translate(-3.955 -1.391)" fill="#fff"/>
  <path id="Trazado_142181" data-name="Trazado 142181" d="M18.363,14.437l.486,1.491h1.566l-1.268.92.486,1.5-1.27-.925-1.269.925.485-1.5-1.268-.92h1.567Z" transform="translate(-3.955 -3.5)" fill="#fff"/>
  <path id="Trazado_142182" data-name="Trazado 142182" d="M18.363,23.134l.486,1.491h1.566l-1.268.92.486,1.5-1.27-.925-1.269.925.485-1.5-1.268-.92h1.567Z" transform="translate(-3.955 -5.609)" fill="#fff"/>
  <path id="Trazado_142183" data-name="Trazado 142183" d="M18.363,31.832l.486,1.491h1.566l-1.268.924.486,1.487-1.27-.92-1.269.92.485-1.487-1.268-.924h1.567Z" transform="translate(-3.955 -7.717)" fill="#fff"/>
  <path id="Trazado_142184" data-name="Trazado 142184" d="M18.363,40.528l.486,1.492h1.566l-1.268.92.486,1.492-1.27-.92-1.269.92.485-1.492-1.268-.92h1.567Z" transform="translate(-3.955 -9.826)" fill="#fff"/>
  <path id="Trazado_142185" data-name="Trazado 142185" d="M24.42,10.325l.485,1.491h1.568l-1.27.92.484,1.491-1.267-.92-1.27.92.485-1.491-1.267-.92h1.568Z" transform="translate(-5.423 -2.503)" fill="#fff"/>
  <path id="Trazado_142186" data-name="Trazado 142186" d="M24.42,19.022l.485,1.486h1.568l-1.27.925.484,1.491L24.42,22l-1.27.92.485-1.491-1.267-.925h1.568Z" transform="translate(-5.423 -4.612)" fill="#fff"/>
  <path id="Trazado_142187" data-name="Trazado 142187" d="M24.42,27.714,24.9,29.2h1.568l-1.27.925.484,1.491L24.42,30.7l-1.27.92.485-1.491L22.367,29.2h1.568Z" transform="translate(-5.423 -6.719)" fill="#fff"/>
  <path id="Trazado_142188" data-name="Trazado 142188" d="M24.42,36.411,24.9,37.9h1.568l-1.27.923.484,1.487-1.267-.92-1.27.92.485-1.487L22.367,37.9h1.568Z" transform="translate(-5.423 -8.828)" fill="#fff"/>
  <path id="Trazado_142189" data-name="Trazado 142189" d="M30.552,5.74l.486,1.5h1.568l-1.27.92.484,1.491-1.268-.924-1.27.924.486-1.491L28.5,7.235h1.568Z" transform="translate(-6.91 -1.391)" fill="#fff"/>
  <path id="Trazado_142190" data-name="Trazado 142190" d="M30.552,14.437l.486,1.491h1.568l-1.27.92.484,1.5-1.268-.925-1.27.925.486-1.5-1.268-.92h1.568Z" transform="translate(-6.91 -3.5)" fill="#fff"/>
  <path id="Trazado_142191" data-name="Trazado 142191" d="M30.552,23.134l.486,1.491h1.568l-1.27.92.484,1.5-1.268-.925-1.27.925.486-1.5-1.268-.92h1.568Z" transform="translate(-6.91 -5.609)" fill="#fff"/>
  <path id="Trazado_142192" data-name="Trazado 142192" d="M30.552,31.832l.486,1.491h1.568l-1.27.924.484,1.487-1.268-.92-1.27.92.486-1.487L28.5,33.322h1.568Z" transform="translate(-6.91 -7.717)" fill="#fff"/>
  <path id="Trazado_142193" data-name="Trazado 142193" d="M30.552,40.528l.486,1.492h1.568l-1.27.92.484,1.492-1.268-.92-1.27.92.486-1.492L28.5,42.02h1.568Z" transform="translate(-6.91 -9.826)" fill="#fff"/>
  <path id="Trazado_142194" data-name="Trazado 142194" d="M36.612,10.325l.485,1.491h1.567l-1.27.92.486,1.491-1.267-.92-1.27.92.485-1.491-1.267-.92h1.567Z" transform="translate(-8.379 -2.503)" fill="#fff"/>
  <path id="Trazado_142195" data-name="Trazado 142195" d="M36.612,19.022l.485,1.486h1.567l-1.27.925.486,1.491L36.612,22l-1.27.92.485-1.491-1.267-.925h1.567Z" transform="translate(-8.379 -4.612)" fill="#fff"/>
  <path id="Trazado_142196" data-name="Trazado 142196" d="M36.612,27.714,37.1,29.2h1.567l-1.27.925.486,1.491-1.267-.92-1.27.92.485-1.491L34.56,29.2h1.567Z" transform="translate(-8.379 -6.719)" fill="#fff"/>
  <path id="Trazado_142197" data-name="Trazado 142197" d="M36.612,36.411,37.1,37.9h1.567l-1.27.923.486,1.487-1.267-.92-1.27.92.485-1.487L34.56,37.9h1.567Z" transform="translate(-8.379 -8.828)" fill="#fff"/>
  <path id="Trazado_142198" data-name="Trazado 142198" d="M42.744,5.74l.486,1.5H44.8l-1.268.92.483,1.491-1.268-.924-1.267.924.485-1.491-1.27-.92h1.568Z" transform="translate(-9.866 -1.391)" fill="#fff"/>
  <path id="Trazado_142199" data-name="Trazado 142199" d="M42.744,14.437l.486,1.491H44.8l-1.268.92.483,1.5-1.268-.925-1.267.925.485-1.5-1.27-.92h1.568Z" transform="translate(-9.866 -3.5)" fill="#fff"/>
  <path id="Trazado_142200" data-name="Trazado 142200" d="M42.744,23.134l.486,1.491H44.8l-1.268.92.483,1.5-1.268-.925-1.267.925.485-1.5-1.27-.92h1.568Z" transform="translate(-9.866 -5.609)" fill="#fff"/>
  <path id="Trazado_142201" data-name="Trazado 142201" d="M42.744,31.832l.486,1.491H44.8l-1.268.924.483,1.487-1.268-.92-1.267.92.485-1.487-1.27-.924h1.568Z" transform="translate(-9.866 -7.717)" fill="#fff"/>
  <path id="Trazado_142202" data-name="Trazado 142202" d="M42.744,40.528l.486,1.492H44.8l-1.268.92.483,1.492-1.268-.92-1.267.92.485-1.492-1.27-.92h1.568Z" transform="translate(-9.866 -9.826)" fill="#fff"/>
  <path id="Trazado_142203" data-name="Trazado 142203" d="M48.8,10.325l.485,1.491h1.566l-1.268.92.486,1.491-1.268-.92-1.27.92.486-1.491-1.27-.92h1.567Z" transform="translate(-11.334 -2.503)" fill="#fff"/>
  <path id="Trazado_142204" data-name="Trazado 142204" d="M48.8,19.022l.485,1.486h1.566l-1.268.925.486,1.491L48.8,22l-1.27.92.486-1.491-1.27-.925h1.567Z" transform="translate(-11.334 -4.612)" fill="#fff"/>
  <path id="Trazado_142205" data-name="Trazado 142205" d="M48.8,27.714l.485,1.491h1.566l-1.268.925.486,1.491L48.8,30.7l-1.27.92.486-1.491-1.27-.925h1.567Z" transform="translate(-11.334 -6.719)" fill="#fff"/>
  <path id="Trazado_142206" data-name="Trazado 142206" d="M48.8,36.411l.485,1.492h1.566l-1.268.923.486,1.487-1.268-.92-1.27.92.486-1.487-1.27-.923h1.567Z" transform="translate(-11.334 -8.828)" fill="#fff"/>
  <path id="Trazado_142207" data-name="Trazado 142207" d="M54.935,5.74l.486,1.5h1.568l-1.268.92L56.2,9.646l-1.268-.924-1.267.924.482-1.491-1.267-.92h1.567Z" transform="translate(-12.822 -1.391)" fill="#fff"/>
  <path id="Trazado_142208" data-name="Trazado 142208" d="M54.935,14.437l.486,1.491h1.568l-1.268.92.483,1.5-1.268-.925-1.267.925.482-1.5-1.267-.92h1.567Z" transform="translate(-12.822 -3.5)" fill="#fff"/>
  <path id="Trazado_142209" data-name="Trazado 142209" d="M54.935,23.134l.486,1.491h1.568l-1.268.92.483,1.5-1.268-.925-1.267.925.482-1.5-1.267-.92h1.567Z" transform="translate(-12.822 -5.609)" fill="#fff"/>
  <path id="Trazado_142210" data-name="Trazado 142210" d="M54.935,31.832l.486,1.491h1.568l-1.268.924.483,1.487-1.268-.92-1.267.92.482-1.487-1.267-.924h1.567Z" transform="translate(-12.822 -7.717)" fill="#fff"/>
  <path id="Trazado_142211" data-name="Trazado 142211" d="M54.935,40.528l.486,1.492h1.568l-1.268.92.483,1.492-1.268-.92-1.267.92.482-1.492-1.267-.92h1.567Z" transform="translate(-12.822 -9.826)" fill="#fff"/>
  <path id="Trazado_142212" data-name="Trazado 142212" d="M60.99,10.325l.486,1.491h1.568l-1.267.92.484,1.491-1.27-.92-1.267.92.485-1.491-1.27-.92h1.568Z" transform="translate(-14.29 -2.503)" fill="#fff"/>
  <path id="Trazado_142213" data-name="Trazado 142213" d="M60.99,19.022l.486,1.486h1.568l-1.267.925.484,1.491L60.99,22l-1.267.92.485-1.491-1.27-.925h1.568Z" transform="translate(-14.29 -4.612)" fill="#fff"/>
  <path id="Trazado_142214" data-name="Trazado 142214" d="M60.99,27.714l.486,1.491h1.568l-1.267.925.484,1.491-1.27-.92-1.267.92.485-1.491-1.27-.925h1.568Z" transform="translate(-14.29 -6.719)" fill="#fff"/>
  <path id="Trazado_142215" data-name="Trazado 142215" d="M60.99,36.411l.486,1.492h1.568l-1.267.923.484,1.487-1.27-.92-1.267.92.485-1.487-1.27-.923h1.568Z" transform="translate(-14.29 -8.828)" fill="#fff"/>
  <path id="Trazado_142216" data-name="Trazado 142216" d="M67.125,5.74l.485,1.5h1.568l-1.267.92L68.4,9.646l-1.27-.924-1.27.924.486-1.491-1.269-.92h1.567Z" transform="translate(-15.778 -1.391)" fill="#fff"/>
  <path id="Trazado_142217" data-name="Trazado 142217" d="M67.125,14.437l.485,1.491h1.568l-1.267.92.485,1.5-1.27-.925-1.27.925.486-1.5-1.269-.92h1.567Z" transform="translate(-15.778 -3.5)" fill="#fff"/>
  <path id="Trazado_142218" data-name="Trazado 142218" d="M67.125,23.134l.485,1.491h1.568l-1.267.92.485,1.5-1.27-.925-1.27.925.486-1.5-1.269-.92h1.567Z" transform="translate(-15.778 -5.609)" fill="#fff"/>
  <path id="Trazado_142219" data-name="Trazado 142219" d="M67.125,31.832l.485,1.491h1.568l-1.267.924.485,1.487-1.27-.92-1.27.92.486-1.487-1.269-.924h1.567Z" transform="translate(-15.778 -7.717)" fill="#fff"/>
  <path id="Trazado_142220" data-name="Trazado 142220" d="M67.125,40.528l.485,1.492h1.568l-1.267.92.485,1.492-1.27-.92-1.27.92.486-1.492-1.269-.92h1.567Z" transform="translate(-15.778 -9.826)" fill="#fff"/>
</svg>
