<svg xmlns="http://www.w3.org/2000/svg" xmlns:xlink="http://www.w3.org/1999/xlink" width="125.645" height="72.29" viewBox="0 0 125.645 72.29">
  <defs>
    <clipPath id="clip-path">
      <rect id="Rectángulo_35482" data-name="Rectángulo 35482" width="125.645" height="72.29" fill="none"/>
    </clipPath>
  </defs>
  <g id="Grupo_145807" data-name="Grupo 145807" transform="translate(0 0)">
    <rect id="Rectángulo_35479" data-name="Rectángulo 35479" width="125.645" height="72.29" transform="translate(0 0)" fill="#fff"/>
    <rect id="Rectángulo_35480" data-name="Rectángulo 35480" width="125.645" height="24.097" transform="translate(0 0)" fill="#f93"/>
    <rect id="Rectángulo_35481" data-name="Rectángulo 35481" width="125.645" height="24.097" transform="translate(0 48.193)" fill="#128807"/>
    <g id="Grupo_91662" data-name="Grupo 91662" transform="translate(0 0)">
      <g id="Grupo_91661" data-name="Grupo 91661" clip-path="url(#clip-path)">
        <path id="Trazado_142890" data-name="Trazado 142890" d="M81.206,37.247a8.288,8.288,0,1,0,8.289,8.289,8.288,8.288,0,0,0-8.289-8.289m7.7,8.8a.383.383,0,0,0-.086.754c-.031.188-.07.375-.114.559l-3.872-1.235-2.618-.442a1.019,1.019,0,0,0,.013-.137l2.643.278,4.052-.284c0,.171-.007.34-.019.507m-.372,1.915a.2.2,0,0,0-.022-.007.384.384,0,0,0-.254.72c-.081.18-.166.358-.26.53l-3.437-2.18-2.417-1.09a1.093,1.093,0,0,0,.048-.142l2.5.911,4.006.709c-.047.186-.1.369-.161.549m-3.911,4.451a.384.384,0,0,0-.684.339q-.246.093-.5.171l-.911-3.977-.951-2.472a1.053,1.053,0,0,0,.124-.06l1.1,2.412,2.315,3.36c-.156.092-.316.18-.479.26a.271.271,0,0,0-.016-.033m-2.016.671a.383.383,0,0,0-.749.137c-.2.016-.395.027-.595.028l.244-4.072-.217-2.641a1.139,1.139,0,0,0,.177-.028l.485,2.6,1.434,3.823a7.608,7.608,0,0,1-.773.185c0-.012,0-.025-.007-.037m-4.292-.8a.384.384,0,0,0-.432.217c-.139-.067-.276-.139-.411-.214l2.2-3.431,1.1-2.407a1.082,1.082,0,0,0,.141.052l-.926,2.484L79.251,53c-.226-.059-.448-.129-.665-.206a.437.437,0,0,0,.018-.055.383.383,0,0,0-.292-.457m-3.879-3.9a.385.385,0,0,0-.456-.148q-.09-.241-.164-.491l3.962-.912,2.476-.955a1.131,1.131,0,0,0,.061.129L77.9,47.127l-3.339,2.332c-.1-.17-.2-.343-.283-.521a.284.284,0,0,0,.043-.022.384.384,0,0,0,.111-.532m-.915-3.48a.358.358,0,0,0,.057,0,.383.383,0,0,0,.043-.76c.029-.162.062-.321.1-.479L77.579,44.9l2.621.442a1.162,1.162,0,0,0-.013.137L77.541,45.2l-4.051.284c0-.2.011-.388.027-.58m.4-1.893a.431.431,0,0,0,.055.016.383.383,0,0,0,.23-.726c.074-.16.152-.317.236-.471L77.854,44l2.425,1.093a1.053,1.053,0,0,0-.051.141l-2.5-.912-4-.708c.052-.2.115-.4.183-.6m3.925-4.343a.384.384,0,0,0,.671-.365c.157-.058.316-.111.477-.159l.9,3.935.957,2.488a1.1,1.1,0,0,0-.123.058L79.611,42.2,77.318,38.87q.238-.139.487-.263a.346.346,0,0,0,.033.061M73.62,46.946a.454.454,0,0,0,.051-.012.383.383,0,0,0-.153-.746c-.018-.214-.029-.43-.029-.649l4.05.259,2.65-.207a1.026,1.026,0,0,0,.028.181l-2.612.489L73.8,47.693a7.5,7.5,0,0,1-.177-.748m7.33-2.41-.489-2.624-1.419-3.783c.216-.063.435-.117.659-.162a.419.419,0,0,0,.017.07.384.384,0,0,0,.741-.182q.341-.033.689-.035l-.241,4.027.218,2.659a1.039,1.039,0,0,0-.176.028m1.228-6.316a.382.382,0,0,0,.369-.282c.185.032.369.07.55.115l-1.253,3.838-.461,2.626a1.057,1.057,0,0,0-.147-.015l.268-2.654-.3-4.029c.2,0,.394.01.589.025a.383.383,0,0,0,.383.376m1.833.491a.382.382,0,0,0,.429-.18c.164.076.325.156.482.242l-2.185,3.4L81.63,44.593a1.105,1.105,0,0,0-.14-.049l.931-2.5.731-3.975c.2.052.393.112.585.179a.383.383,0,0,0,.274.464m1.647.942a.384.384,0,0,0,.463-.066c.179.148.352.306.518.47L83.6,42.722l-1.735,2.024a.972.972,0,0,0-.14-.1l1.533-2.184L84.973,38.8c.184.1.364.212.539.331a.383.383,0,0,0,.146.521m1.351,1.331a.383.383,0,0,0,.465.054c.115.16.226.324.328.493l-3.6,1.855-2.17,1.542a1,1,0,0,0-.088-.106l2.073-1.675L86.68,40.1c.111.112.218.228.322.347a.382.382,0,0,0,.007.54m.967,1.633a.382.382,0,0,0,.44.17c.062.163.12.328.171.5l-3.95.909-2.481.957a.975.975,0,0,0-.064-.128L84.51,43.9l3.321-2.318c.1.166.192.337.279.51h0a.384.384,0,0,0-.132.527m.8,1.405-.017,0a.384.384,0,0,0,.129.752c.022.234.035.471.036.71l-4.049-.258-2.651.207a1.019,1.019,0,0,0-.031-.18l2.617-.491,3.8-1.428q.1.337.171.685M76.2,39.669a.421.421,0,0,0,.044.046A.383.383,0,0,0,76.8,39.2c.152-.106.307-.206.467-.3L79.1,42.5l1.529,2.181a.964.964,0,0,0-.117.1l-1.693-2.059-3.074-2.632c.146-.146.3-.284.455-.418m-.494.46,2.692,3.013,2.039,1.716a1.054,1.054,0,0,0-.1.137l-2.189-1.518-3.68-1.695c.108-.194.222-.382.346-.565a.368.368,0,0,0,.055.034.384.384,0,0,0,.406-.645q.206-.247.432-.476M75.3,50.5a.392.392,0,0,0,.049-.045.384.384,0,0,0-.514-.565c-.086-.126-.17-.255-.249-.387l3.618-1.864,2.16-1.535a.993.993,0,0,0,.088.106L78.39,47.879l-2.678,3.074c-.143-.145-.279-.295-.41-.45m.446.488L78.81,48.3l1.725-2.013a1.031,1.031,0,0,0,.139.1l-1.523,2.17-1.729,3.7c-.217-.122-.428-.255-.631-.4a.349.349,0,0,0,.033-.051.384.384,0,0,0-.638-.418c-.15-.129-.3-.263-.438-.4m4.813,2.232c0-.013,0-.026,0-.04a.383.383,0,0,0-.758-.06c-.17-.031-.339-.067-.5-.108l1.267-3.879.457-2.607a1.09,1.09,0,0,0,.149.015l-.266,2.636.3,4.074h0c-.217,0-.432-.012-.645-.029m5.7-1.86a.308.308,0,0,0-.036-.04.383.383,0,0,0-.566.512c-.162.114-.328.224-.5.326l-1.847-3.635L81.8,46.358a1.139,1.139,0,0,0,.118-.1L83.6,48.307l3.1,2.652c-.139.14-.284.274-.433.4m.47-.443-2.713-3.037-2.029-1.708a1.017,1.017,0,0,0,.1-.139l2.182,1.513,3.7,1.7c-.114.206-.236.407-.367.6a.379.379,0,0,0-.038-.026.384.384,0,0,0-.421.638c-.131.157-.268.308-.411.455" transform="translate(-18.383 -9.391)" fill="#003d78"/>
      </g>
    </g>
  </g>
</svg>
