<svg xmlns="http://www.w3.org/2000/svg" width="24" height="24" viewBox="0 0 24 24">
  <g id="Grupo_145859" data-name="Grupo 145859" transform="translate(-179 -2345)">
    <rect id="Rectángulo_4909" data-name="Rectángulo 4909" width="24" height="24" transform="translate(179 2345)" fill="#f07061"/>
    <path id="Trazado_151515" data-name="Trazado 151515" d="M10.5,0H1.182V-1.3L6.1-6.768A11.693,11.693,0,0,0,7.612-8.784a3.366,3.366,0,0,0,.415-1.606,2.551,2.551,0,0,0-.674-1.826,2.356,2.356,0,0,0-1.8-.713,2.79,2.79,0,0,0-2.095.767,2.928,2.928,0,0,0-.747,2.134H.908A4.194,4.194,0,0,1,2.173-13.2a4.688,4.688,0,0,1,3.384-1.211,4.5,4.5,0,0,1,3.135,1.04,3.548,3.548,0,0,1,1.152,2.769q0,2.1-2.676,5L3.359-1.475H10.5Z" transform="translate(186 2364)" fill="#fff"/>
  </g>
</svg>
