<svg xmlns="http://www.w3.org/2000/svg" width="24" height="24" viewBox="0 0 24 24">
  <g id="Grupo_145852" data-name="Grupo 145852" transform="translate(-179 -2404)">
    <rect id="Rectángulo_4906" data-name="Rectángulo 4906" width="24" height="24" transform="translate(179 2404)" fill="#f07061"/>
    <path id="Trazado_151510" data-name="Trazado 151510" d="M3.809-7.988H5.166a2.984,2.984,0,0,0,2.012-.674A2.251,2.251,0,0,0,7.91-10.43a2.205,2.205,0,0,0-2.49-2.5,2.59,2.59,0,0,0-1.87.669,2.341,2.341,0,0,0-.7,1.772H1.045A3.627,3.627,0,0,1,2.28-13.3a4.5,4.5,0,0,1,3.14-1.118A4.447,4.447,0,0,1,8.574-13.35a3.845,3.845,0,0,1,1.143,2.959,3.121,3.121,0,0,1-.6,1.8,3.626,3.626,0,0,1-1.636,1.3,3.494,3.494,0,0,1,1.812,1.23,3.417,3.417,0,0,1,.64,2.1A3.879,3.879,0,0,1,8.682-.928,4.681,4.681,0,0,1,5.43.2,4.8,4.8,0,0,1,2.173-.889,3.6,3.6,0,0,1,.918-3.75H2.734a2.324,2.324,0,0,0,.732,1.8,2.786,2.786,0,0,0,1.963.674,2.734,2.734,0,0,0,2-.684,2.634,2.634,0,0,0,.693-1.963,2.391,2.391,0,0,0-.762-1.9,3.319,3.319,0,0,0-2.2-.684H3.809Z" transform="translate(186 2423)" fill="#fff"/>
  </g>
</svg>
