<svg xmlns="http://www.w3.org/2000/svg" width="24" height="24" viewBox="0 0 24 24">
  <g id="Grupo_145854" data-name="Grupo 145854" transform="translate(-179 -2519)">
    <rect id="Rectángulo_4908" data-name="Rectángulo 4908" width="24" height="24" transform="translate(179 2519)" fill="#f07061"/>
    <path id="Trazado_151512" data-name="Trazado 151512" d="M2.012-7.129l.723-7.09H10.02v1.67H4.268l-.43,3.877a4.588,4.588,0,0,1,2.373-.615A3.923,3.923,0,0,1,9.3-8a5.033,5.033,0,0,1,1.143,3.472A4.858,4.858,0,0,1,9.253-1.069,4.325,4.325,0,0,1,5.938.2,4.494,4.494,0,0,1,2.861-.85,4.171,4.171,0,0,1,1.5-3.74H3.213A2.869,2.869,0,0,0,4.082-1.9a2.7,2.7,0,0,0,1.855.62,2.438,2.438,0,0,0,1.978-.859,3.593,3.593,0,0,0,.718-2.373A3.3,3.3,0,0,0,7.856-6.8a2.641,2.641,0,0,0-2.065-.864,2.978,2.978,0,0,0-1.855.518l-.479.391Z" transform="translate(186 2538)" fill="#fff"/>
  </g>
</svg>
