<svg xmlns="http://www.w3.org/2000/svg" xmlns:xlink="http://www.w3.org/1999/xlink" width="132" height="132" viewBox="0 0 132 132">
  <defs>
    <clipPath id="clip-path">
      <rect id="Rect치ngulo_39059" data-name="Rect치ngulo 39059" width="91.289" height="91.453" fill="#12263f"/>
    </clipPath>
  </defs>
  <g id="Grupo_145062" data-name="Grupo 145062" transform="translate(-302 -4158)">
    <rect id="Rect치ngulo_39056" data-name="Rect치ngulo 39056" width="132" height="132" transform="translate(302 4158)" fill="none"/>
    <g id="Grupo_145064" data-name="Grupo 145064" transform="translate(322.355 4178.273)">
      <g id="Grupo_145058" data-name="Grupo 145058" clip-path="url(#clip-path)">
        <path id="Trazado_149956" data-name="Trazado 149956" d="M3.6,0c.417.136,1.2.341,1.945.638Q46.875,17.125,88.205,33.619c1.79.713,3.213,1.7,3.075,3.851-.132,2.047-1.638,2.8-3.382,3.311-11.428,3.367-22.839,6.8-34.286,10.1A3.583,3.583,0,0,0,50.785,53.7c-3.3,11.445-6.71,22.86-10.1,34.279-.946,3.184-3.4,4.415-5.539,2.7a6.377,6.377,0,0,1-1.662-2.59Q20.49,55.689,7.564,23.265C5.158,17.24,2.72,11.228.354,5.187-.7,2.487.67.1,3.6,0M36.574,77.432c.4-1.264.631-1.947.837-2.637,2.563-8.617,5.166-17.224,7.653-25.864A4.822,4.822,0,0,1,48.725,45.2c6.086-1.7,12.131-3.541,18.188-5.34,3.271-.971,6.534-1.968,10.491-3.161L10.175,9.861l-.368.574,26.766,67" transform="translate(0)" fill="#12263f"/>
      </g>
    </g>
  </g>
</svg>
