<svg xmlns="http://www.w3.org/2000/svg" width="1030" height="435" viewBox="0 0 1030 435">
  <g id="Grupo_145883" data-name="Grupo 145883" transform="translate(-285 -4056)">
    <g id="Grupo_145066" data-name="Grupo 145066" transform="translate(0 44)">
      <g id="Grupo_144796" data-name="Grupo 144796" transform="translate(105 1633)">
        <rect id="Rectángulo_38994" data-name="Rectángulo 38994" width="172" height="77" rx="10" transform="translate(188 2601)" fill="#f0ad65"/>
        <g id="Rectángulo_39002" data-name="Rectángulo 39002" transform="translate(180 2593)" fill="none" stroke="#e7af71" stroke-width="2">
          <rect width="190" height="95" rx="10" stroke="none"/>
          <rect x="1" y="1" width="188" height="93" rx="9" fill="none"/>
        </g>
        <path id="Trazado_151539" data-name="Trazado 151539" d="M8.9-5.432H4.052v3.059h5.73V0H.967V-12.8H9.8v2.382H4.052v2.7H8.9Zm4.72-4.078.1,1.116a3.225,3.225,0,0,1,2.716-1.292,2.713,2.713,0,0,1,2.219.888,4.226,4.226,0,0,1,.76,2.672V0H16.444V-6a1.6,1.6,0,0,0-.29-1.059A1.342,1.342,0,0,0,15.1-7.4a1.413,1.413,0,0,0-1.292.686V0H10.846V-9.51ZM24.5-11.874V-9.51h1.564v2.057H24.5V-3.1a1.111,1.111,0,0,0,.193.747,1.037,1.037,0,0,0,.765.211A4.345,4.345,0,0,0,26.2-2.2V-.079a5.466,5.466,0,0,1-1.67.255,3.1,3.1,0,0,1-2.259-.721,2.954,2.954,0,0,1-.729-2.188v-4.72H20.329V-9.51h1.213v-2.364ZM30.357,0H27.387V-9.51h2.971ZM27.211-11.962A1.322,1.322,0,0,1,27.668-13a1.724,1.724,0,0,1,1.187-.4,1.724,1.724,0,0,1,1.187.4,1.322,1.322,0,0,1,.457,1.037,1.322,1.322,0,0,1-.457,1.037,1.724,1.724,0,0,1-1.187.4,1.724,1.724,0,0,1-1.187-.4A1.322,1.322,0,0,1,27.211-11.962Zm4.6,7.137a5.809,5.809,0,0,1,.976-3.56,3.211,3.211,0,0,1,2.725-1.3,2.731,2.731,0,0,1,2.145,1V-13.5h2.971V0H37.96l-.149-1.02a2.8,2.8,0,0,1-2.32,1.2,3.205,3.205,0,0,1-2.689-1.3A5.993,5.993,0,0,1,31.808-4.825Zm2.962.185q0,2.531,1.477,2.531a1.458,1.458,0,0,0,1.406-.826V-6.557A1.419,1.419,0,0,0,36.264-7.4q-1.371,0-1.485,2.215ZM47.663,0a3.344,3.344,0,0,1-.281-.853A2.754,2.754,0,0,1,45.1.176a3.374,3.374,0,0,1-2.285-.813,2.588,2.588,0,0,1-.94-2.043,2.66,2.66,0,0,1,1.143-2.338,5.821,5.821,0,0,1,3.322-.791h.914v-.5q0-1.316-1.134-1.316a.927.927,0,0,0-1.055,1.042H42.1a2.655,2.655,0,0,1,1.173-2.239,4.931,4.931,0,0,1,2.993-.86A4.323,4.323,0,0,1,49.14-8.8a3.086,3.086,0,0,1,1.081,2.435v4.21a4.311,4.311,0,0,0,.4,2V0ZM45.809-1.934a1.652,1.652,0,0,0,.918-.237,1.487,1.487,0,0,0,.523-.536V-4.228h-.861q-1.547,0-1.547,1.389a.848.848,0,0,0,.272.655A.986.986,0,0,0,45.809-1.934Zm5.678-2.892a5.809,5.809,0,0,1,.976-3.56,3.211,3.211,0,0,1,2.725-1.3,2.731,2.731,0,0,1,2.145,1V-13.5H60.3V0H57.639l-.149-1.02a2.8,2.8,0,0,1-2.32,1.2,3.205,3.205,0,0,1-2.689-1.3A5.993,5.993,0,0,1,51.486-4.825Zm2.962.185q0,2.531,1.477,2.531a1.458,1.458,0,0,0,1.406-.826V-6.557A1.419,1.419,0,0,0,55.942-7.4q-1.371,0-1.485,2.215ZM66.586.176a4.889,4.889,0,0,1-3.542-1.305,4.507,4.507,0,0,1-1.354-3.4v-.246a5.84,5.84,0,0,1,.541-2.575,3.955,3.955,0,0,1,1.578-1.727,4.763,4.763,0,0,1,2.461-.611,4.117,4.117,0,0,1,3.164,1.244,4.887,4.887,0,0,1,1.16,3.467v1.151H64.705A2.135,2.135,0,0,0,65.4-2.566a2.066,2.066,0,0,0,1.389.457,2.662,2.662,0,0,0,2.2-.984l1.354,1.6A3.784,3.784,0,0,1,68.77-.277,5.3,5.3,0,0,1,66.586.176ZM66.252-7.4q-1.3,0-1.547,1.723h2.988v-.229a1.467,1.467,0,0,0-.36-1.1A1.434,1.434,0,0,0,66.252-7.4ZM76.764-2.672a.684.684,0,0,0-.4-.606,6.016,6.016,0,0,0-1.5-.475A6.853,6.853,0,0,1,73.037-4.4a3.062,3.062,0,0,1-1.1-.971,2.319,2.319,0,0,1-.378-1.31,2.628,2.628,0,0,1,1.081-2.158,4.453,4.453,0,0,1,2.83-.848,4.934,4.934,0,0,1,3.023.853,2.666,2.666,0,0,1,1.143,2.241H76.667q0-1.143-1.2-1.143a1.194,1.194,0,0,0-.782.259.8.8,0,0,0-.316.646.737.737,0,0,0,.387.642,3.654,3.654,0,0,0,1.235.4,10.671,10.671,0,0,1,1.49.378A2.706,2.706,0,0,1,79.62-2.76,2.491,2.491,0,0,1,78.464-.642a5.068,5.068,0,0,1-2.993.817,5.172,5.172,0,0,1-2.18-.439,3.645,3.645,0,0,1-1.494-1.2,2.707,2.707,0,0,1-.536-1.591H74.03a1.145,1.145,0,0,0,.439.962,1.808,1.808,0,0,0,1.081.3,1.422,1.422,0,0,0,.91-.246A.787.787,0,0,0,76.764-2.672ZM6.583,10.867l.448,1.494a8.35,8.35,0,0,0-2.654,3.507,19.043,19.043,0,0,0-1.248,5.871l-.044.861Q2.953,26.2,4.632,27.5L4,28.955a4.8,4.8,0,0,1-1.793-1.586,7.037,7.037,0,0,1-1.055-2.562A12.928,12.928,0,0,1,.879,21.66a17.29,17.29,0,0,1,.809-4.72,12.029,12.029,0,0,1,1.978-3.858A6.848,6.848,0,0,1,6.583,10.867Zm8.4,9.035H10.16L9.272,25H6.267L8.481,12.2H16.8l-.413,2.382H11.083l-.51,2.944H15.4ZM20.5,25.176a4.421,4.421,0,0,1-2.272-.6,3.793,3.793,0,0,1-1.507-1.652,4.44,4.44,0,0,1-.4-2.333l.026-.246a5.829,5.829,0,0,1,1.63-3.713,4.51,4.51,0,0,1,3.415-1.314,3.678,3.678,0,0,1,2.092.621A3.468,3.468,0,0,1,24.75,17.6a5.1,5.1,0,0,1,.264,2.381l-.167,1.206h-5.66a1.854,1.854,0,0,0,.422,1.213,1.549,1.549,0,0,0,1.178.492,2.993,2.993,0,0,0,2.259-.967l1.213,1.6a3.578,3.578,0,0,1-1.5,1.2,5.263,5.263,0,0,1-2.1.451Zm.7-7.576a1.487,1.487,0,0,0-1.068.385,3.229,3.229,0,0,0-.787,1.347h2.892l.053-.254a1.929,1.929,0,0,0,.018-.577A1.017,1.017,0,0,0,21.2,17.6ZM30.727,25a2.578,2.578,0,0,1-.123-.861,2.933,2.933,0,0,1-2.329,1.037,2.866,2.866,0,0,1-2.057-.826,2.483,2.483,0,0,1-.765-1.96,2.79,2.79,0,0,1,1.292-2.377,6.091,6.091,0,0,1,3.41-.831l.967.018.105-.536.035-.466a.755.755,0,0,0-.8-.826,1.111,1.111,0,0,0-1.169,1.046l-2.9.009a2.754,2.754,0,0,1,.624-1.666A3.7,3.7,0,0,1,28.6,15.67a5.512,5.512,0,0,1,2.123-.356,4.251,4.251,0,0,1,1.894.453,2.82,2.82,0,0,1,1.217,1.187,3.031,3.031,0,0,1,.308,1.753l-.712,4.474-.044.545a2.4,2.4,0,0,0,.167,1.107L33.539,25Zm-1.652-1.916A1.865,1.865,0,0,0,30.63,22.3l.29-1.529-.747-.009a1.969,1.969,0,0,0-1.2.409,1.55,1.55,0,0,0-.589,1.068.778.778,0,0,0,.136.593A.7.7,0,0,0,29.074,23.084ZM40.14,13.126l-.413,2.364h1.521l-.36,2.057H39.366l-.738,4.368a1.164,1.164,0,0,0,.057.677q.119.229.593.246a6.873,6.873,0,0,0,.756-.044l-.211,2.145a4.673,4.673,0,0,1-1.556.22,2.563,2.563,0,0,1-2.013-.791,2.7,2.7,0,0,1-.545-2.1l.773-4.72H35.306l.352-2.057h1.178l.413-2.364Zm6.539,10.837a3.148,3.148,0,0,1-2.566,1.222,2.492,2.492,0,0,1-2.1-.976,3.6,3.6,0,0,1-.549-2.566l1.028-6.152h2.892l-1.046,6.195a2.064,2.064,0,0,0,0,.466.766.766,0,0,0,.853.748,1.868,1.868,0,0,0,1.556-.722l1.178-6.688h2.909L49.175,25H46.485Zm10.916-5.792a8.273,8.273,0,0,0-.9-.088,2.233,2.233,0,0,0-1.986.9L53.64,25H50.748L52.4,15.49l2.7-.009-.22,1.248a2.64,2.64,0,0,1,2.2-1.441,4.144,4.144,0,0,1,.9.123Zm4.57,7a4.421,4.421,0,0,1-2.272-.6,3.793,3.793,0,0,1-1.507-1.652,4.44,4.44,0,0,1-.4-2.333l.026-.246a5.829,5.829,0,0,1,1.63-3.713,4.51,4.51,0,0,1,3.415-1.314,3.678,3.678,0,0,1,2.092.621A3.468,3.468,0,0,1,66.419,17.6a5.1,5.1,0,0,1,.264,2.381l-.167,1.206h-5.66a1.854,1.854,0,0,0,.422,1.213,1.549,1.549,0,0,0,1.178.492,2.993,2.993,0,0,0,2.259-.967l1.213,1.6a3.578,3.578,0,0,1-1.5,1.2,5.263,5.263,0,0,1-2.1.451Zm.7-7.576a1.487,1.487,0,0,0-1.068.385,3.229,3.229,0,0,0-.787,1.347h2.892l.053-.254a1.929,1.929,0,0,0,.018-.577A1.017,1.017,0,0,0,62.868,17.6ZM72.4,22.275q.114-.58-.9-.87l-.624-.158a4.806,4.806,0,0,1-2.241-1.134,2.244,2.244,0,0,1-.668-1.731,2.758,2.758,0,0,1,1.217-2.228,4.633,4.633,0,0,1,2.861-.839,4.292,4.292,0,0,1,2.72.853,2.781,2.781,0,0,1,1.059,2.25l-2.883-.009q.035-1.125-.993-1.125a1.417,1.417,0,0,0-.817.259,1.007,1.007,0,0,0-.448.69q-.149.712,1.257.976a7.3,7.3,0,0,1,1.89.672,2.821,2.821,0,0,1,1.02.945,2.35,2.35,0,0,1,.325,1.354,2.541,2.541,0,0,1-.562,1.538A3.642,3.642,0,0,1,73.059,24.8a5.557,5.557,0,0,1-2.2.378,4.469,4.469,0,0,1-1.912-.431,3.408,3.408,0,0,1-1.38-1.147,2.979,2.979,0,0,1-.514-1.666l2.689.018A1.111,1.111,0,0,0,71.007,23.2a1.661,1.661,0,0,0,.914-.242A1.045,1.045,0,0,0,72.4,22.275ZM81.483,20a14.98,14.98,0,0,1-1.1,4,10.938,10.938,0,0,1-2.013,3.164,6.909,6.909,0,0,1-2.632,1.806l-.448-1.494a8.651,8.651,0,0,0,2.659-3.542,18.733,18.733,0,0,0,1.244-5.845l.053-.861q.088-3.612-1.556-4.887l.642-1.459A5.14,5.14,0,0,1,80.7,13.376a10.339,10.339,0,0,1,.914,4.232l.009.554a14.818,14.818,0,0,1-.114,1.591Z" transform="translate(233 2634)" fill="#12263f"/>
      </g>
      <rect id="Rectángulo_39010" data-name="Rectángulo 39010" width="171" height="77" rx="10" transform="translate(759 4012)" fill="#ffe9e6"/>
      <rect id="Rectángulo_39012" data-name="Rectángulo 39012" width="171" height="77" rx="10" transform="translate(759 4204)" fill="#ffe9e6"/>
      <rect id="Rectángulo_39011" data-name="Rectángulo 39011" width="171" height="77" rx="10" transform="translate(759 4108)" fill="#ffe9e6"/>
      <path id="Trazado_151541" data-name="Trazado 151541" d="M2.82-4.453V0H1.32V-11.375h4.2a4.215,4.215,0,0,1,2.926.953A3.231,3.231,0,0,1,9.5-7.9,3.189,3.189,0,0,1,8.465-5.348,4.4,4.4,0,0,1,5.5-4.453Zm0-1.227h2.7a2.7,2.7,0,0,0,1.844-.567A2.075,2.075,0,0,0,8-7.887a2.143,2.143,0,0,0-.641-1.628A2.525,2.525,0,0,0,5.6-10.148H2.82ZM16.406-.836A3.07,3.07,0,0,1,13.93.156a2.628,2.628,0,0,1-2.059-.785,3.4,3.4,0,0,1-.715-2.324v-5.5H12.6v5.461q0,1.922,1.563,1.922a2.163,2.163,0,0,0,2.2-1.234V-8.453h1.445V0H16.438Zm4.969-7.617.047,1.063a3.08,3.08,0,0,1,2.531-1.219q2.68,0,2.7,3.023V0H25.211V-5.594a1.946,1.946,0,0,0-.418-1.352,1.675,1.675,0,0,0-1.277-.437,2.086,2.086,0,0,0-1.234.375,2.546,2.546,0,0,0-.828.984V0H20.008V-8.453ZM30.8-10.5v2.047h1.578v1.117H30.8v5.249a1.173,1.173,0,0,0,.211.763.888.888,0,0,0,.719.254,3.5,3.5,0,0,0,.688-.094V0A4.215,4.215,0,0,1,31.3.156,1.8,1.8,0,0,1,29.844-.43a2.517,2.517,0,0,1-.492-1.664V-7.336H27.813V-8.453h1.539V-10.5Zm2.727,6.2a4.993,4.993,0,0,1,.488-2.234A3.643,3.643,0,0,1,35.371-8.07a3.7,3.7,0,0,1,1.988-.539,3.565,3.565,0,0,1,2.793,1.2,4.6,4.6,0,0,1,1.066,3.18v.1a5.036,5.036,0,0,1-.473,2.215A3.589,3.589,0,0,1,39.395-.391a3.743,3.743,0,0,1-2.02.547,3.556,3.556,0,0,1-2.785-1.2A4.575,4.575,0,0,1,33.523-4.2Zm1.453.172a3.616,3.616,0,0,0,.652,2.258,2.088,2.088,0,0,0,1.746.852,2.075,2.075,0,0,0,1.75-.863A3.955,3.955,0,0,0,39.773-4.3a3.61,3.61,0,0,0-.66-2.254,2.1,2.1,0,0,0-1.754-.863,2.075,2.075,0,0,0-1.727.852A3.925,3.925,0,0,0,34.977-4.133ZM47.953-2.242a1.064,1.064,0,0,0-.441-.91,4.249,4.249,0,0,0-1.539-.559,7.277,7.277,0,0,1-1.742-.562,2.479,2.479,0,0,1-.953-.781,1.869,1.869,0,0,1-.309-1.078,2.193,2.193,0,0,1,.879-1.758,3.432,3.432,0,0,1,2.246-.719,3.532,3.532,0,0,1,2.332.742,2.357,2.357,0,0,1,.895,1.9H47.867a1.3,1.3,0,0,0-.5-1.023,1.888,1.888,0,0,0-1.27-.43,1.976,1.976,0,0,0-1.234.344,1.082,1.082,0,0,0-.445.9.877.877,0,0,0,.414.789,5.1,5.1,0,0,0,1.5.508,7.8,7.8,0,0,1,1.754.578,2.558,2.558,0,0,1,1,.809A1.988,1.988,0,0,1,49.4-2.344a2.163,2.163,0,0,1-.906,1.816,3.8,3.8,0,0,1-2.352.684,4.257,4.257,0,0,1-1.8-.359,2.922,2.922,0,0,1-1.223-1A2.42,2.42,0,0,1,42.68-2.6h1.445a1.5,1.5,0,0,0,.582,1.152,2.258,2.258,0,0,0,1.434.426,2.331,2.331,0,0,0,1.316-.332A1.02,1.02,0,0,0,47.953-2.242Z" transform="translate(820 4056)" fill="#12263f"/>
      <path id="Trazado_151543" data-name="Trazado 151543" d="M2.82-4.453V0H1.32V-11.375h4.2a4.215,4.215,0,0,1,2.926.953A3.231,3.231,0,0,1,9.5-7.9,3.189,3.189,0,0,1,8.465-5.348,4.4,4.4,0,0,1,5.5-4.453Zm0-1.227h2.7a2.7,2.7,0,0,0,1.844-.567A2.075,2.075,0,0,0,8-7.887a2.143,2.143,0,0,0-.641-1.628A2.525,2.525,0,0,0,5.6-10.148H2.82ZM10.7-4.3a4.993,4.993,0,0,1,.488-2.234A3.643,3.643,0,0,1,12.551-8.07a3.7,3.7,0,0,1,1.988-.539,3.565,3.565,0,0,1,2.793,1.2A4.6,4.6,0,0,1,18.4-4.234v.1a5.036,5.036,0,0,1-.473,2.215A3.589,3.589,0,0,1,16.574-.391a3.743,3.743,0,0,1-2.02.547,3.556,3.556,0,0,1-2.785-1.2A4.575,4.575,0,0,1,10.7-4.2Zm1.453.172a3.616,3.616,0,0,0,.652,2.258,2.088,2.088,0,0,0,1.746.852,2.075,2.075,0,0,0,1.75-.863A3.955,3.955,0,0,0,16.953-4.3a3.61,3.61,0,0,0-.66-2.254,2.1,2.1,0,0,0-1.754-.863,2.075,2.075,0,0,0-1.727.852A3.925,3.925,0,0,0,12.156-4.133ZM21.781,0H20.336V-12h1.445Zm3.883,0H24.211V-8.453h1.453Zm.016-11.992h1.75L25.336-9.7l-1.164,0ZM27.7-4.3a4.968,4.968,0,0,1,.914-3.145,2.923,2.923,0,0,1,2.422-1.168,2.908,2.908,0,0,1,2.414,1.094l.07-.937h1.32V-.2a3.439,3.439,0,0,1-.973,2.586,3.589,3.589,0,0,1-2.613.945,4.348,4.348,0,0,1-1.789-.391,3.08,3.08,0,0,1-1.336-1.07L28.883,1a2.826,2.826,0,0,0,2.273,1.148A2.214,2.214,0,0,0,32.8,1.555a2.269,2.269,0,0,0,.59-1.672V-.844a2.971,2.971,0,0,1-2.367,1,2.887,2.887,0,0,1-2.4-1.2A5.224,5.224,0,0,1,27.7-4.3Zm1.453.164a3.79,3.79,0,0,0,.586,2.246,1.9,1.9,0,0,0,1.641.816,2.117,2.117,0,0,0,2.008-1.242V-6.172A2.142,2.142,0,0,0,31.4-7.383a1.921,1.921,0,0,0-1.648.82A4.128,4.128,0,0,0,29.156-4.133ZM36.641-4.3a4.993,4.993,0,0,1,.488-2.234A3.643,3.643,0,0,1,38.488-8.07a3.7,3.7,0,0,1,1.988-.539,3.565,3.565,0,0,1,2.793,1.2,4.6,4.6,0,0,1,1.066,3.18v.1a5.036,5.036,0,0,1-.473,2.215A3.589,3.589,0,0,1,42.512-.391a3.743,3.743,0,0,1-2.02.547,3.556,3.556,0,0,1-2.785-1.2A4.575,4.575,0,0,1,36.641-4.2Zm1.453.172a3.616,3.616,0,0,0,.652,2.258,2.088,2.088,0,0,0,1.746.852,2.075,2.075,0,0,0,1.75-.863A3.955,3.955,0,0,0,42.891-4.3a3.61,3.61,0,0,0-.66-2.254,2.1,2.1,0,0,0-1.754-.863,2.075,2.075,0,0,0-1.727.852A3.925,3.925,0,0,0,38.094-4.133Zm9.422-4.32.047,1.063a3.08,3.08,0,0,1,2.531-1.219q2.68,0,2.7,3.023V0H51.352V-5.594a1.946,1.946,0,0,0-.418-1.352,1.675,1.675,0,0,0-1.277-.437,2.086,2.086,0,0,0-1.234.375,2.546,2.546,0,0,0-.828.984V0H46.148V-8.453ZM54.594-4.3a4.993,4.993,0,0,1,.488-2.234A3.643,3.643,0,0,1,56.441-8.07a3.7,3.7,0,0,1,1.988-.539,3.565,3.565,0,0,1,2.793,1.2,4.6,4.6,0,0,1,1.066,3.18v.1a5.036,5.036,0,0,1-.473,2.215A3.589,3.589,0,0,1,60.465-.391a3.743,3.743,0,0,1-2.02.547,3.556,3.556,0,0,1-2.785-1.2A4.575,4.575,0,0,1,54.594-4.2Zm1.453.172A3.616,3.616,0,0,0,56.7-1.875a2.088,2.088,0,0,0,1.746.852,2.075,2.075,0,0,0,1.75-.863A3.955,3.955,0,0,0,60.844-4.3a3.61,3.61,0,0,0-.66-2.254,2.1,2.1,0,0,0-1.754-.863A2.075,2.075,0,0,0,56.7-6.57,3.925,3.925,0,0,0,56.047-4.133ZM69.023-2.242a1.064,1.064,0,0,0-.441-.91,4.249,4.249,0,0,0-1.539-.559A7.277,7.277,0,0,1,65.3-4.273a2.479,2.479,0,0,1-.953-.781,1.869,1.869,0,0,1-.309-1.078,2.193,2.193,0,0,1,.879-1.758,3.432,3.432,0,0,1,2.246-.719,3.532,3.532,0,0,1,2.332.742,2.357,2.357,0,0,1,.895,1.9H68.938a1.3,1.3,0,0,0-.5-1.023,1.888,1.888,0,0,0-1.27-.43,1.976,1.976,0,0,0-1.234.344,1.082,1.082,0,0,0-.445.9.877.877,0,0,0,.414.789,5.1,5.1,0,0,0,1.5.508,7.8,7.8,0,0,1,1.754.578,2.558,2.558,0,0,1,1,.809,1.988,1.988,0,0,1,.324,1.152,2.163,2.163,0,0,1-.906,1.816,3.8,3.8,0,0,1-2.352.684,4.257,4.257,0,0,1-1.8-.359,2.922,2.922,0,0,1-1.223-1A2.42,2.42,0,0,1,63.75-2.6H65.2a1.5,1.5,0,0,0,.582,1.152,2.258,2.258,0,0,0,1.434.426,2.331,2.331,0,0,0,1.316-.332A1.02,1.02,0,0,0,69.023-2.242Z" transform="translate(809 4248)" fill="#12263f"/>
      <path id="Trazado_151542" data-name="Trazado 151542" d="M2.828-1.227H8.219V0H1.32V-11.375H2.828ZM11.273,0H9.82V-8.453h1.453Zm.016-11.992h1.75L10.945-9.7l-1.164,0Zm3.734,3.539.047,1.063A3.08,3.08,0,0,1,17.6-8.609q2.68,0,2.7,3.023V0H18.859V-5.594a1.946,1.946,0,0,0-.418-1.352,1.675,1.675,0,0,0-1.277-.437,2.086,2.086,0,0,0-1.234.375,2.546,2.546,0,0,0-.828.984V0H13.656V-8.453ZM25.992.156A3.693,3.693,0,0,1,23.2-.973a4.19,4.19,0,0,1-1.078-3.02v-.266A5.073,5.073,0,0,1,22.6-6.5a3.748,3.748,0,0,1,1.344-1.547,3.378,3.378,0,0,1,1.871-.559,3.166,3.166,0,0,1,2.563,1.086,4.7,4.7,0,0,1,.914,3.109v.6H23.563a3,3,0,0,0,.73,2.02,2.3,2.3,0,0,0,1.777.77,2.517,2.517,0,0,0,1.3-.312,3.259,3.259,0,0,0,.93-.828l.883.688A3.55,3.55,0,0,1,25.992.156Zm-.18-7.578a1.928,1.928,0,0,0-1.469.637A3.1,3.1,0,0,0,23.609-5h4.234v-.109a2.753,2.753,0,0,0-.594-1.707A1.815,1.815,0,0,0,25.813-7.422ZM36.18,0a3.036,3.036,0,0,1-.2-.891A3.225,3.225,0,0,1,33.57.156,2.984,2.984,0,0,1,31.52-.551a2.287,2.287,0,0,1-.8-1.793,2.39,2.39,0,0,1,1-2.051,4.733,4.733,0,0,1,2.824-.73h1.406v-.664A1.623,1.623,0,0,0,35.5-7a1.821,1.821,0,0,0-1.336-.449,2.107,2.107,0,0,0-1.3.391,1.151,1.151,0,0,0-.523.945H30.891a2,2,0,0,1,.449-1.223,3.066,3.066,0,0,1,1.219-.934,4.1,4.1,0,0,1,1.691-.344,3.342,3.342,0,0,1,2.289.73A2.635,2.635,0,0,1,37.4-5.867v3.891a4.757,4.757,0,0,0,.3,1.852V0Zm-2.4-1.1a2.54,2.54,0,0,0,1.289-.352,2.127,2.127,0,0,0,.883-.914V-4.1H34.82q-2.656,0-2.656,1.555a1.316,1.316,0,0,0,.453,1.063A1.742,1.742,0,0,0,33.781-1.1Zm10.8-1.141a1.064,1.064,0,0,0-.441-.91,4.249,4.249,0,0,0-1.539-.559,7.277,7.277,0,0,1-1.742-.562,2.479,2.479,0,0,1-.953-.781A1.869,1.869,0,0,1,39.6-6.133a2.193,2.193,0,0,1,.879-1.758,3.432,3.432,0,0,1,2.246-.719,3.532,3.532,0,0,1,2.332.742,2.357,2.357,0,0,1,.895,1.9H44.5A1.3,1.3,0,0,0,44-6.992a1.888,1.888,0,0,0-1.27-.43,1.976,1.976,0,0,0-1.234.344,1.082,1.082,0,0,0-.445.9.877.877,0,0,0,.414.789,5.1,5.1,0,0,0,1.5.508,7.8,7.8,0,0,1,1.754.578,2.558,2.558,0,0,1,1,.809,1.988,1.988,0,0,1,.324,1.152,2.163,2.163,0,0,1-.906,1.816,3.8,3.8,0,0,1-2.352.684,4.257,4.257,0,0,1-1.8-.359,2.922,2.922,0,0,1-1.223-1A2.42,2.42,0,0,1,39.313-2.6h1.445a1.5,1.5,0,0,0,.582,1.152,2.258,2.258,0,0,0,1.434.426,2.331,2.331,0,0,0,1.316-.332A1.02,1.02,0,0,0,44.586-2.242Z" transform="translate(821 4152)" fill="#12263f"/>
      <g id="Grupo_144800" data-name="Grupo 144800" transform="translate(-47.607 1506)">
        <path id="Trazado_149859" data-name="Trazado 149859" d="M780-9029v160.34" transform="translate(-137 11716.33)" fill="none" stroke="#f0ad65" stroke-width="2"/>
        <path id="Trazado_149860" data-name="Trazado 149860" d="M764.616-8932.5H645.07" transform="translate(-121.616 11700)" fill="none" stroke="#f0ad65" stroke-width="2"/>
      </g>
      <path id="Trazado_149957" data-name="Trazado 149957" d="M875-9076.5h37.062" transform="translate(-153.47 13320.5)" fill="none" stroke="#ffb9b1" stroke-width="2"/>
      <g id="Grupo_144798" data-name="Grupo 144798" transform="translate(320.393 1759)">
        <rect id="Rectángulo_38994-2" data-name="Rectángulo 38994" width="172" height="77" rx="10" transform="translate(188 2601)" fill="#ffddb9"/>
        <g id="Rectángulo_39002-2" data-name="Rectángulo 39002" transform="translate(180 2593)" fill="none" stroke="#ffddb9" stroke-width="2">
          <rect width="190" height="95" rx="10" stroke="none"/>
          <rect x="1" y="1" width="188" height="93" rx="9" fill="none"/>
        </g>
        <path id="Trazado_151540" data-name="Trazado 151540" d="M8.235-2.391H4.008L3.27,0h-3.3L4.667-12.8h2.9L12.3,0H8.982ZM4.746-4.772H7.5L6.117-9.211Zm11.646-7.1V-9.51h1.564v2.057H16.392V-3.1a1.111,1.111,0,0,0,.193.747,1.037,1.037,0,0,0,.765.211,4.345,4.345,0,0,0,.738-.053V-.079a5.466,5.466,0,0,1-1.67.255,3.1,3.1,0,0,1-2.259-.721,2.954,2.954,0,0,1-.729-2.188v-4.72H12.217V-9.51H13.43v-2.364Zm8.481,5.045L23.9-6.9a1.752,1.752,0,0,0-1.793.879V0H19.143V-9.51H21.92l.1,1.222a2.294,2.294,0,0,1,2.083-1.4,2.888,2.888,0,0,1,.826.105ZM29.065,0H26.095V-9.51h2.971ZM25.919-11.962A1.322,1.322,0,0,1,26.376-13a1.724,1.724,0,0,1,1.187-.4,1.724,1.724,0,0,1,1.187.4,1.322,1.322,0,0,1,.457,1.037,1.322,1.322,0,0,1-.457,1.037,1.724,1.724,0,0,1-1.187.4,1.724,1.724,0,0,1-1.187-.4A1.322,1.322,0,0,1,25.919-11.962Zm13.8,7.286a5.8,5.8,0,0,1-.967,3.595A3.238,3.238,0,0,1,36.026.176,2.81,2.81,0,0,1,33.688-.976L33.565,0H30.911V-13.5h2.962v4.755a2.711,2.711,0,0,1,2.136-.94,3.239,3.239,0,0,1,2.742,1.274,5.826,5.826,0,0,1,.967,3.586Zm-2.971-.189a3.866,3.866,0,0,0-.365-1.952A1.229,1.229,0,0,0,35.262-7.4a1.418,1.418,0,0,0-1.389.763v3.773a1.426,1.426,0,0,0,1.406.755,1.258,1.258,0,0,0,1.327-1.018A7.309,7.309,0,0,0,36.747-4.865Zm9.94,3.836a3.054,3.054,0,0,1-2.54,1.2,3,3,0,0,1-2.369-.91,3.826,3.826,0,0,1-.8-2.615V-9.51h2.962v6.179a1.065,1.065,0,0,0,1.187,1.222,1.548,1.548,0,0,0,1.45-.729V-9.51h2.979V0H46.775Zm7.937-10.846V-9.51h1.564v2.057H54.624V-3.1a1.111,1.111,0,0,0,.193.747,1.037,1.037,0,0,0,.765.211A4.345,4.345,0,0,0,56.32-2.2V-.079a5.466,5.466,0,0,1-1.67.255,3.1,3.1,0,0,1-2.259-.721,2.954,2.954,0,0,1-.729-2.188v-4.72H50.449V-9.51h1.213v-2.364Zm2.092,7.031a5.613,5.613,0,0,1,.554-2.536A3.96,3.96,0,0,1,58.86-9.088a4.791,4.791,0,0,1,2.435-.6,4.373,4.373,0,0,1,3.366,1.323,5.076,5.076,0,0,1,1.23,3.6v.105a4.925,4.925,0,0,1-1.235,3.529A4.384,4.384,0,0,1,61.313.176a4.434,4.434,0,0,1-3.261-1.217,4.761,4.761,0,0,1-1.327-3.3Zm2.962.185a3.538,3.538,0,0,0,.413,1.934,1.376,1.376,0,0,0,1.222.615q1.582,0,1.617-2.435v-.3q0-2.558-1.635-2.558-1.485,0-1.608,2.206Zm12.5,1.986a.684.684,0,0,0-.4-.606,6.016,6.016,0,0,0-1.5-.475A6.853,6.853,0,0,1,68.449-4.4a3.062,3.062,0,0,1-1.1-.971,2.319,2.319,0,0,1-.378-1.31,2.628,2.628,0,0,1,1.081-2.158,4.453,4.453,0,0,1,2.83-.848,4.934,4.934,0,0,1,3.023.853A2.666,2.666,0,0,1,75.05-6.592H72.079q0-1.143-1.2-1.143a1.194,1.194,0,0,0-.782.259.8.8,0,0,0-.316.646.737.737,0,0,0,.387.642,3.654,3.654,0,0,0,1.235.4,10.671,10.671,0,0,1,1.49.378A2.706,2.706,0,0,1,75.032-2.76,2.491,2.491,0,0,1,73.876-.642a5.068,5.068,0,0,1-2.993.817A5.172,5.172,0,0,1,68.7-.264a3.645,3.645,0,0,1-1.494-1.2,2.707,2.707,0,0,1-.536-1.591h2.769a1.145,1.145,0,0,0,.439.962,1.808,1.808,0,0,0,1.081.3,1.422,1.422,0,0,0,.91-.246A.787.787,0,0,0,72.176-2.672Z" transform="translate(237 2645)" fill="#12263f"/>
      </g>
      <rect id="Rectángulo_39015" data-name="Rectángulo 39015" width="241" height="77" rx="10" transform="translate(759 4362)" fill="#fed"/>
      <rect id="Rectángulo_39062" data-name="Rectángulo 39062" width="246" height="77" rx="10" transform="translate(1069 4362)" fill="#fed"/>
      <path id="Trazado_151544" data-name="Trazado 151544" d="M1.32,0V-11.375H4.531a5.169,5.169,0,0,1,2.625.656A4.438,4.438,0,0,1,8.918-8.852,6.078,6.078,0,0,1,9.547-6.07v.727a6.1,6.1,0,0,1-.621,2.82A4.369,4.369,0,0,1,7.152-.664,5.5,5.5,0,0,1,4.469,0Zm1.5-10.148v8.922H4.4A3.434,3.434,0,0,0,7.1-2.306a4.458,4.458,0,0,0,.965-3.073v-.665a4.529,4.529,0,0,0-.91-3.014A3.239,3.239,0,0,0,4.57-10.148ZM15.094.156A3.693,3.693,0,0,1,12.3-.973a4.19,4.19,0,0,1-1.078-3.02v-.266A5.073,5.073,0,0,1,11.7-6.5a3.748,3.748,0,0,1,1.344-1.547,3.378,3.378,0,0,1,1.871-.559,3.166,3.166,0,0,1,2.563,1.086,4.7,4.7,0,0,1,.914,3.109v.6H12.664a3,3,0,0,0,.73,2.02,2.3,2.3,0,0,0,1.777.77,2.517,2.517,0,0,0,1.3-.312,3.259,3.259,0,0,0,.93-.828l.883.688A3.55,3.55,0,0,1,15.094.156Zm-.18-7.578a1.928,1.928,0,0,0-1.469.637A3.1,3.1,0,0,0,12.711-5h4.234v-.109a2.753,2.753,0,0,0-.594-1.707A1.815,1.815,0,0,0,14.914-7.422Zm10.07,5.18a1.064,1.064,0,0,0-.441-.91A4.249,4.249,0,0,0,23-3.711a7.277,7.277,0,0,1-1.742-.562,2.479,2.479,0,0,1-.953-.781A1.869,1.869,0,0,1,20-6.133a2.193,2.193,0,0,1,.879-1.758,3.432,3.432,0,0,1,2.246-.719,3.532,3.532,0,0,1,2.332.742,2.357,2.357,0,0,1,.895,1.9H24.9a1.3,1.3,0,0,0-.5-1.023,1.888,1.888,0,0,0-1.27-.43,1.976,1.976,0,0,0-1.234.344,1.082,1.082,0,0,0-.445.9.877.877,0,0,0,.414.789,5.1,5.1,0,0,0,1.5.508,7.8,7.8,0,0,1,1.754.578,2.558,2.558,0,0,1,1,.809,1.988,1.988,0,0,1,.324,1.152,2.163,2.163,0,0,1-.906,1.816,3.8,3.8,0,0,1-2.352.684,4.257,4.257,0,0,1-1.8-.359,2.922,2.922,0,0,1-1.223-1A2.42,2.42,0,0,1,19.711-2.6h1.445a1.5,1.5,0,0,0,.582,1.152,2.258,2.258,0,0,0,1.434.426,2.331,2.331,0,0,0,1.316-.332A1.02,1.02,0,0,0,24.984-2.242ZM31.7-1.023a2.082,2.082,0,0,0,1.352-.469A1.649,1.649,0,0,0,33.7-2.664h1.367a2.621,2.621,0,0,1-.5,1.383,3.293,3.293,0,0,1-1.23,1.047A3.55,3.55,0,0,1,31.7.156,3.482,3.482,0,0,1,28.957-1a4.59,4.59,0,0,1-1.02-3.152v-.242a5.089,5.089,0,0,1,.453-2.2,3.451,3.451,0,0,1,1.3-1.492,3.7,3.7,0,0,1,2-.531,3.39,3.39,0,0,1,2.363.852,3.043,3.043,0,0,1,1,2.211H33.7a1.992,1.992,0,0,0-.621-1.348A1.932,1.932,0,0,0,31.7-7.422a2.023,2.023,0,0,0-1.707.793,3.724,3.724,0,0,0-.605,2.293v.273a3.65,3.65,0,0,0,.6,2.25A2.033,2.033,0,0,0,31.7-1.023Zm9.07-6.133a4.331,4.331,0,0,0-.711-.055A1.9,1.9,0,0,0,38.133-6V0H36.688V-8.453h1.406l.023.977a2.251,2.251,0,0,1,2.016-1.133,1.477,1.477,0,0,1,.641.109ZM43.672,0H42.227V-8.453h1.445ZM42.109-10.7a.863.863,0,0,1,.215-.594.807.807,0,0,1,.637-.242.819.819,0,0,1,.641.242.854.854,0,0,1,.219.594.826.826,0,0,1-.219.586.834.834,0,0,1-.641.234.821.821,0,0,1-.637-.234A.834.834,0,0,1,42.109-10.7ZM53.125-4.133a5.062,5.062,0,0,1-.883,3.109A2.829,2.829,0,0,1,49.852.156,3.1,3.1,0,0,1,47.43-.82V3.25H45.984v-11.7H47.3l.07.938a2.977,2.977,0,0,1,2.453-1.094,2.882,2.882,0,0,1,2.41,1.148,5.117,5.117,0,0,1,.887,3.2ZM51.68-4.3a3.735,3.735,0,0,0-.609-2.258A1.963,1.963,0,0,0,49.4-7.383,2.125,2.125,0,0,0,47.43-6.219V-2.18a2.129,2.129,0,0,0,1.984,1.156,1.954,1.954,0,0,0,1.652-.824A4.077,4.077,0,0,0,51.68-4.3Zm6.672,3.273A2.082,2.082,0,0,0,59.7-1.492a1.649,1.649,0,0,0,.641-1.172h1.367a2.621,2.621,0,0,1-.5,1.383A3.293,3.293,0,0,1,59.98-.234a3.55,3.55,0,0,1-1.629.391A3.482,3.482,0,0,1,55.605-1a4.59,4.59,0,0,1-1.02-3.152v-.242a5.089,5.089,0,0,1,.453-2.2,3.451,3.451,0,0,1,1.3-1.492,3.7,3.7,0,0,1,2-.531,3.39,3.39,0,0,1,2.363.852,3.043,3.043,0,0,1,1,2.211H60.344a1.992,1.992,0,0,0-.621-1.348,1.932,1.932,0,0,0-1.379-.527,2.023,2.023,0,0,0-1.707.793,3.724,3.724,0,0,0-.605,2.293v.273a3.65,3.65,0,0,0,.6,2.25A2.033,2.033,0,0,0,58.352-1.023ZM64.906,0H63.461V-8.453h1.445ZM63.344-10.7a.863.863,0,0,1,.215-.594.807.807,0,0,1,.637-.242.819.819,0,0,1,.641.242.854.854,0,0,1,.219.594.826.826,0,0,1-.219.586.834.834,0,0,1-.641.234.821.821,0,0,1-.637-.234A.834.834,0,0,1,63.344-10.7ZM66.836-4.3a4.993,4.993,0,0,1,.488-2.234A3.643,3.643,0,0,1,68.684-8.07a3.7,3.7,0,0,1,1.988-.539,3.565,3.565,0,0,1,2.793,1.2,4.6,4.6,0,0,1,1.066,3.18v.1a5.036,5.036,0,0,1-.473,2.215A3.589,3.589,0,0,1,72.707-.391a3.743,3.743,0,0,1-2.02.547,3.556,3.556,0,0,1-2.785-1.2A4.575,4.575,0,0,1,66.836-4.2Zm1.453.172a3.616,3.616,0,0,0,.652,2.258,2.088,2.088,0,0,0,1.746.852,2.075,2.075,0,0,0,1.75-.863A3.955,3.955,0,0,0,73.086-4.3a3.61,3.61,0,0,0-.66-2.254,2.1,2.1,0,0,0-1.754-.863,2.075,2.075,0,0,0-1.727.852A3.925,3.925,0,0,0,68.289-4.133ZM71.328-12h1.75L70.984-9.7l-1.164,0Zm6.383,3.547.047,1.063a3.08,3.08,0,0,1,2.531-1.219q2.68,0,2.7,3.023V0H81.547V-5.594a1.946,1.946,0,0,0-.418-1.352,1.675,1.675,0,0,0-1.277-.437,2.086,2.086,0,0,0-1.234.375,2.546,2.546,0,0,0-.828.984V0H76.344V-8.453ZM88.781-4.3A4.952,4.952,0,0,1,89.7-7.426a2.915,2.915,0,0,1,2.414-1.184,2.932,2.932,0,0,1,2.352,1.016V-12h1.445V0H94.586l-.07-.906A2.943,2.943,0,0,1,92.1.156a2.887,2.887,0,0,1-2.395-1.2,5.008,5.008,0,0,1-.926-3.141Zm1.445.164a3.749,3.749,0,0,0,.594,2.25,1.92,1.92,0,0,0,1.641.813A2.109,2.109,0,0,0,94.469-2.3V-6.187a2.125,2.125,0,0,0-1.992-1.2,1.929,1.929,0,0,0-1.656.82A4.128,4.128,0,0,0,90.227-4.133ZM101.664.156a3.693,3.693,0,0,1-2.8-1.129,4.19,4.19,0,0,1-1.078-3.02v-.266A5.073,5.073,0,0,1,98.27-6.5a3.748,3.748,0,0,1,1.344-1.547,3.378,3.378,0,0,1,1.871-.559,3.166,3.166,0,0,1,2.563,1.086,4.7,4.7,0,0,1,.914,3.109v.6H99.234a3,3,0,0,0,.73,2.02,2.3,2.3,0,0,0,1.777.77,2.517,2.517,0,0,0,1.3-.312,3.259,3.259,0,0,0,.93-.828l.883.688A3.55,3.55,0,0,1,101.664.156Zm-.18-7.578a1.928,1.928,0,0,0-1.469.637A3.1,3.1,0,0,0,99.281-5h4.234v-.109a2.753,2.753,0,0,0-.594-1.707A1.815,1.815,0,0,0,101.484-7.422ZM112.164,0h-1.445V-12h1.445ZM119.7,0a3.036,3.036,0,0,1-.2-.891A3.225,3.225,0,0,1,117.086.156a2.984,2.984,0,0,1-2.051-.707,2.288,2.288,0,0,1-.8-1.793,2.39,2.39,0,0,1,1-2.051,4.733,4.733,0,0,1,2.824-.73h1.406v-.664A1.623,1.623,0,0,0,119.016-7a1.821,1.821,0,0,0-1.336-.449,2.108,2.108,0,0,0-1.3.391,1.151,1.151,0,0,0-.523.945h-1.453a2,2,0,0,1,.449-1.223,3.066,3.066,0,0,1,1.219-.934,4.1,4.1,0,0,1,1.691-.344,3.342,3.342,0,0,1,2.289.73,2.635,2.635,0,0,1,.859,2.012v3.891a4.757,4.757,0,0,0,.3,1.852V0Zm-2.4-1.1a2.54,2.54,0,0,0,1.289-.352,2.127,2.127,0,0,0,.883-.914V-4.1h-1.133q-2.656,0-2.656,1.555a1.316,1.316,0,0,0,.453,1.063A1.742,1.742,0,0,0,117.3-1.1ZM130.648.156a3.693,3.693,0,0,1-2.8-1.129,4.19,4.19,0,0,1-1.078-3.02v-.266a5.073,5.073,0,0,1,.48-2.246A3.748,3.748,0,0,1,128.6-8.051a3.378,3.378,0,0,1,1.871-.559,3.166,3.166,0,0,1,2.563,1.086,4.7,4.7,0,0,1,.914,3.109v.6h-5.727a3,3,0,0,0,.73,2.02,2.3,2.3,0,0,0,1.777.77,2.517,2.517,0,0,0,1.3-.312,3.258,3.258,0,0,0,.93-.828l.883.688A3.55,3.55,0,0,1,130.648.156Zm-.18-7.578A1.928,1.928,0,0,0,129-6.785,3.1,3.1,0,0,0,128.266-5H132.5v-.109a2.753,2.753,0,0,0-.594-1.707A1.815,1.815,0,0,0,130.469-7.422Zm6.516-1.031.047,1.063a3.08,3.08,0,0,1,2.531-1.219q2.68,0,2.7,3.023V0H140.82V-5.594a1.946,1.946,0,0,0-.418-1.352,1.675,1.675,0,0,0-1.277-.437,2.086,2.086,0,0,0-1.234.375,2.546,2.546,0,0,0-.828.984V0h-1.445V-8.453Zm9.422-2.047v2.047h1.578v1.117h-1.578v5.249a1.173,1.173,0,0,0,.211.763.888.888,0,0,0,.719.254,3.5,3.5,0,0,0,.688-.094V0a4.215,4.215,0,0,1-1.109.155,1.8,1.8,0,0,1-1.461-.586,2.517,2.517,0,0,1-.492-1.664V-7.336h-1.539V-8.453h1.539V-10.5ZM151.242,0H149.8V-8.453h1.445ZM149.68-10.7a.863.863,0,0,1,.215-.594.807.807,0,0,1,.637-.242.819.819,0,0,1,.641.242.854.854,0,0,1,.219.594.826.826,0,0,1-.219.586.834.834,0,0,1-.641.234.821.821,0,0,1-.637-.234A.834.834,0,0,1,149.68-10.7ZM153.2-4.3a4.952,4.952,0,0,1,.922-3.129,2.915,2.915,0,0,1,2.414-1.184,2.932,2.932,0,0,1,2.352,1.016V-12h1.445V0h-1.328l-.07-.906A2.943,2.943,0,0,1,156.523.156a2.887,2.887,0,0,1-2.395-1.2,5.008,5.008,0,0,1-.926-3.141Zm1.445.164a3.749,3.749,0,0,0,.594,2.25,1.919,1.919,0,0,0,1.641.813A2.108,2.108,0,0,0,158.891-2.3V-6.187a2.125,2.125,0,0,0-1.992-1.2,1.929,1.929,0,0,0-1.656.82A4.128,4.128,0,0,0,154.648-4.133ZM167.8,0a3.036,3.036,0,0,1-.2-.891A3.225,3.225,0,0,1,165.188.156a2.984,2.984,0,0,1-2.051-.707,2.287,2.287,0,0,1-.8-1.793,2.39,2.39,0,0,1,1-2.051,4.733,4.733,0,0,1,2.824-.73h1.406v-.664A1.623,1.623,0,0,0,167.117-7a1.821,1.821,0,0,0-1.336-.449,2.107,2.107,0,0,0-1.3.391,1.151,1.151,0,0,0-.523.945h-1.453a2,2,0,0,1,.449-1.223,3.066,3.066,0,0,1,1.219-.934,4.1,4.1,0,0,1,1.691-.344,3.342,3.342,0,0,1,2.289.73,2.635,2.635,0,0,1,.859,2.012v3.891a4.757,4.757,0,0,0,.3,1.852V0Zm-2.4-1.1a2.54,2.54,0,0,0,1.289-.352,2.127,2.127,0,0,0,.883-.914V-4.1h-1.133q-2.656,0-2.656,1.555a1.316,1.316,0,0,0,.453,1.063A1.742,1.742,0,0,0,165.4-1.1Zm5.531-3.2a4.952,4.952,0,0,1,.922-3.129,2.915,2.915,0,0,1,2.414-1.184,2.932,2.932,0,0,1,2.352,1.016V-12h1.445V0h-1.328l-.07-.906A2.943,2.943,0,0,1,174.25.156a2.887,2.887,0,0,1-2.395-1.2,5.008,5.008,0,0,1-.926-3.141Zm1.445.164a3.749,3.749,0,0,0,.594,2.25,1.919,1.919,0,0,0,1.641.813A2.108,2.108,0,0,0,176.617-2.3V-6.187a2.125,2.125,0,0,0-1.992-1.2,1.929,1.929,0,0,0-1.656.82A4.128,4.128,0,0,0,172.375-4.133Z" transform="translate(787 4406)" fill="#12263f"/>
      <path id="Trazado_151545" data-name="Trazado 151545" d="M2.93,0H1.43V-11.375h1.5ZM6.813-8.453l.047,1.063A3.08,3.08,0,0,1,9.391-8.609q2.68,0,2.7,3.023V0H10.648V-5.594a1.946,1.946,0,0,0-.418-1.352,1.675,1.675,0,0,0-1.277-.437,2.086,2.086,0,0,0-1.234.375,2.546,2.546,0,0,0-.828.984V0H5.445V-8.453ZM14.984,0V-7.336H13.648V-8.453h1.336V-9.32a2.878,2.878,0,0,1,.727-2.1,2.745,2.745,0,0,1,2.055-.742,3.816,3.816,0,0,1,.992.132l-.078,1.165a4.151,4.151,0,0,0-.781-.07,1.41,1.41,0,0,0-1.086.411,1.669,1.669,0,0,0-.383,1.18v.893h1.8v1.117h-1.8V0Zm4.461-4.3a4.993,4.993,0,0,1,.488-2.234A3.643,3.643,0,0,1,21.293-8.07a3.7,3.7,0,0,1,1.988-.539,3.565,3.565,0,0,1,2.793,1.2,4.6,4.6,0,0,1,1.066,3.18v.1a5.036,5.036,0,0,1-.473,2.215A3.589,3.589,0,0,1,25.316-.391,3.743,3.743,0,0,1,23.3.156a3.556,3.556,0,0,1-2.785-1.2A4.575,4.575,0,0,1,19.445-4.2Zm1.453.172a3.616,3.616,0,0,0,.652,2.258,2.088,2.088,0,0,0,1.746.852,2.075,2.075,0,0,0,1.75-.863A3.955,3.955,0,0,0,25.7-4.3a3.61,3.61,0,0,0-.66-2.254,2.1,2.1,0,0,0-1.754-.863,2.075,2.075,0,0,0-1.727.852A3.925,3.925,0,0,0,20.9-4.133ZM33.039-7.156a4.331,4.331,0,0,0-.711-.055A1.9,1.9,0,0,0,30.4-6V0H28.953V-8.453h1.406l.023.977A2.251,2.251,0,0,1,32.4-8.609a1.477,1.477,0,0,1,.641.109Zm2.688-1.3.039.938a3.122,3.122,0,0,1,2.508-1.094A2.417,2.417,0,0,1,40.688-7.25a3.2,3.2,0,0,1,1.1-.984,3.242,3.242,0,0,1,1.6-.375q2.781,0,2.828,2.945V0H44.766V-5.578a1.941,1.941,0,0,0-.414-1.355,1.823,1.823,0,0,0-1.391-.449,1.917,1.917,0,0,0-1.336.48,1.949,1.949,0,0,0-.617,1.293V0H39.555V-5.539a1.613,1.613,0,0,0-1.8-1.844A1.934,1.934,0,0,0,35.8-6.172V0H34.359V-8.453ZM53.609,0a3.036,3.036,0,0,1-.2-.891A3.225,3.225,0,0,1,51,.156a2.984,2.984,0,0,1-2.051-.707,2.287,2.287,0,0,1-.8-1.793,2.39,2.39,0,0,1,1-2.051,4.733,4.733,0,0,1,2.824-.73h1.406v-.664A1.623,1.623,0,0,0,52.93-7a1.821,1.821,0,0,0-1.336-.449,2.107,2.107,0,0,0-1.3.391,1.151,1.151,0,0,0-.523.945H48.32a2,2,0,0,1,.449-1.223,3.066,3.066,0,0,1,1.219-.934,4.1,4.1,0,0,1,1.691-.344,3.342,3.342,0,0,1,2.289.73,2.635,2.635,0,0,1,.859,2.012v3.891a4.757,4.757,0,0,0,.3,1.852V0Zm-2.4-1.1A2.54,2.54,0,0,0,52.5-1.453a2.127,2.127,0,0,0,.883-.914V-4.1H52.25q-2.656,0-2.656,1.555a1.316,1.316,0,0,0,.453,1.063A1.742,1.742,0,0,0,51.211-1.1Zm9.273.078a2.082,2.082,0,0,0,1.352-.469,1.649,1.649,0,0,0,.641-1.172h1.367a2.621,2.621,0,0,1-.5,1.383,3.293,3.293,0,0,1-1.23,1.047,3.55,3.55,0,0,1-1.629.391A3.482,3.482,0,0,1,57.738-1a4.59,4.59,0,0,1-1.02-3.152v-.242a5.089,5.089,0,0,1,.453-2.2,3.451,3.451,0,0,1,1.3-1.492,3.7,3.7,0,0,1,2-.531,3.39,3.39,0,0,1,2.363.852,3.043,3.043,0,0,1,1,2.211H62.477a1.992,1.992,0,0,0-.621-1.348,1.932,1.932,0,0,0-1.379-.527,2.023,2.023,0,0,0-1.707.793,3.724,3.724,0,0,0-.605,2.293v.273a3.65,3.65,0,0,0,.6,2.25A2.033,2.033,0,0,0,60.484-1.023ZM67.039,0H65.594V-8.453h1.445ZM65.477-10.7a.863.863,0,0,1,.215-.594.807.807,0,0,1,.637-.242.819.819,0,0,1,.641.242.854.854,0,0,1,.219.594.826.826,0,0,1-.219.586.834.834,0,0,1-.641.234.821.821,0,0,1-.637-.234A.834.834,0,0,1,65.477-10.7ZM68.969-4.3a4.993,4.993,0,0,1,.488-2.234A3.643,3.643,0,0,1,70.816-8.07,3.7,3.7,0,0,1,72.8-8.609a3.565,3.565,0,0,1,2.793,1.2,4.6,4.6,0,0,1,1.066,3.18v.1a5.036,5.036,0,0,1-.473,2.215A3.589,3.589,0,0,1,74.84-.391a3.743,3.743,0,0,1-2.02.547,3.556,3.556,0,0,1-2.785-1.2A4.575,4.575,0,0,1,68.969-4.2Zm1.453.172a3.616,3.616,0,0,0,.652,2.258,2.088,2.088,0,0,0,1.746.852,2.075,2.075,0,0,0,1.75-.863A3.955,3.955,0,0,0,75.219-4.3a3.61,3.61,0,0,0-.66-2.254A2.1,2.1,0,0,0,72.8-7.422a2.075,2.075,0,0,0-1.727.852A3.925,3.925,0,0,0,70.422-4.133ZM73.461-12h1.75L73.117-9.7l-1.164,0Zm6.383,3.547.047,1.063a3.08,3.08,0,0,1,2.531-1.219q2.68,0,2.7,3.023V0H83.68V-5.594a1.946,1.946,0,0,0-.418-1.352,1.675,1.675,0,0,0-1.277-.437,2.086,2.086,0,0,0-1.234.375,2.546,2.546,0,0,0-.828.984V0H78.477V-8.453Zm17.93,5.477H93.008L91.938,0H90.391l4.344-11.375h1.313L100.4,0H98.859ZM93.461-4.2h3.867l-1.937-5.32ZM103.273,0h-1.445V-12h1.445ZM106.3,0V-7.336h-1.336V-8.453H106.3V-9.32a2.878,2.878,0,0,1,.727-2.1,2.745,2.745,0,0,1,2.055-.742,3.816,3.816,0,0,1,.992.132l-.078,1.165a4.151,4.151,0,0,0-.781-.07,1.41,1.41,0,0,0-1.086.411,1.669,1.669,0,0,0-.383,1.18v.893h1.8v1.117h-1.8V0Zm10.063,0a3.036,3.036,0,0,1-.2-.891A3.225,3.225,0,0,1,113.75.156,2.984,2.984,0,0,1,111.7-.551a2.288,2.288,0,0,1-.8-1.793,2.39,2.39,0,0,1,1-2.051,4.733,4.733,0,0,1,2.824-.73h1.406v-.664A1.623,1.623,0,0,0,115.68-7a1.821,1.821,0,0,0-1.336-.449,2.108,2.108,0,0,0-1.3.391,1.151,1.151,0,0,0-.523.945H111.07a2,2,0,0,1,.449-1.223,3.066,3.066,0,0,1,1.219-.934,4.1,4.1,0,0,1,1.691-.344,3.342,3.342,0,0,1,2.289.73,2.635,2.635,0,0,1,.859,2.012v3.891a4.757,4.757,0,0,0,.3,1.852V0Zm-2.4-1.1a2.54,2.54,0,0,0,1.289-.352,2.127,2.127,0,0,0,.883-.914V-4.1H115q-2.656,0-2.656,1.555a1.316,1.316,0,0,0,.453,1.063A1.742,1.742,0,0,0,113.961-1.1Zm7.25-7.352.047,1.063a3.08,3.08,0,0,1,2.531-1.219q2.68,0,2.7,3.023V0h-1.445V-5.594a1.946,1.946,0,0,0-.418-1.352,1.675,1.675,0,0,0-1.277-.437,2.086,2.086,0,0,0-1.234.375,2.546,2.546,0,0,0-.828.984V0h-1.445V-8.453Zm12.68,7.617a3.07,3.07,0,0,1-2.477.992,2.628,2.628,0,0,1-2.059-.785,3.4,3.4,0,0,1-.715-2.324v-5.5h1.445v5.461q0,1.922,1.563,1.922a2.163,2.163,0,0,0,2.2-1.234V-8.453H135.3V0h-1.375Zm4.961-7.617.039.938A3.122,3.122,0,0,1,141.4-8.609a2.417,2.417,0,0,1,2.414,1.359,3.2,3.2,0,0,1,1.1-.984,3.242,3.242,0,0,1,1.6-.375q2.781,0,2.828,2.945V0h-1.445V-5.578a1.941,1.941,0,0,0-.414-1.355,1.823,1.823,0,0,0-1.391-.449,1.917,1.917,0,0,0-1.336.48,1.949,1.949,0,0,0-.617,1.293V0H142.68V-5.539a1.613,1.613,0,0,0-1.8-1.844,1.934,1.934,0,0,0-1.945,1.211V0h-1.445V-8.453ZM155.023.156a3.693,3.693,0,0,1-2.8-1.129,4.19,4.19,0,0,1-1.078-3.02v-.266a5.073,5.073,0,0,1,.48-2.246,3.748,3.748,0,0,1,1.344-1.547,3.378,3.378,0,0,1,1.871-.559,3.166,3.166,0,0,1,2.563,1.086,4.7,4.7,0,0,1,.914,3.109v.6h-5.727a3,3,0,0,0,.73,2.02,2.3,2.3,0,0,0,1.777.77,2.517,2.517,0,0,0,1.3-.312,3.258,3.258,0,0,0,.93-.828l.883.688A3.55,3.55,0,0,1,155.023.156Zm-.18-7.578a1.928,1.928,0,0,0-1.469.637A3.1,3.1,0,0,0,152.641-5h4.234v-.109a2.753,2.753,0,0,0-.594-1.707A1.815,1.815,0,0,0,154.844-7.422Zm.7-4.578h1.75L155.2-9.7l-1.164,0Zm8.531,4.844a4.331,4.331,0,0,0-.711-.055A1.9,1.9,0,0,0,161.438-6V0h-1.445V-8.453H161.4l.023.977a2.251,2.251,0,0,1,2.016-1.133,1.477,1.477,0,0,1,.641.109ZM166.977,0h-1.445V-8.453h1.445Zm-1.562-10.7a.863.863,0,0,1,.215-.594.807.807,0,0,1,.637-.242.819.819,0,0,1,.641.242.854.854,0,0,1,.219.594.826.826,0,0,1-.219.586.834.834,0,0,1-.641.234.821.821,0,0,1-.637-.234A.834.834,0,0,1,165.414-10.7Zm7.266,9.672a2.082,2.082,0,0,0,1.352-.469,1.649,1.649,0,0,0,.641-1.172h1.367a2.621,2.621,0,0,1-.5,1.383,3.293,3.293,0,0,1-1.23,1.047,3.55,3.55,0,0,1-1.629.391A3.482,3.482,0,0,1,169.934-1a4.59,4.59,0,0,1-1.02-3.152v-.242a5.089,5.089,0,0,1,.453-2.2,3.451,3.451,0,0,1,1.3-1.492,3.7,3.7,0,0,1,2-.531,3.39,3.39,0,0,1,2.363.852,3.043,3.043,0,0,1,1,2.211h-1.367a1.992,1.992,0,0,0-.621-1.348,1.932,1.932,0,0,0-1.379-.527,2.023,2.023,0,0,0-1.707.793,3.724,3.724,0,0,0-.605,2.293v.273a3.65,3.65,0,0,0,.6,2.25A2.033,2.033,0,0,0,172.68-1.023ZM182.883,0a3.036,3.036,0,0,1-.2-.891A3.225,3.225,0,0,1,180.273.156a2.984,2.984,0,0,1-2.051-.707,2.287,2.287,0,0,1-.8-1.793,2.39,2.39,0,0,1,1-2.051,4.733,4.733,0,0,1,2.824-.73h1.406v-.664A1.623,1.623,0,0,0,182.2-7a1.821,1.821,0,0,0-1.336-.449,2.107,2.107,0,0,0-1.3.391,1.151,1.151,0,0,0-.523.945h-1.453a2,2,0,0,1,.449-1.223,3.066,3.066,0,0,1,1.219-.934,4.1,4.1,0,0,1,1.691-.344,3.342,3.342,0,0,1,2.289.73,2.635,2.635,0,0,1,.859,2.012v3.891a4.757,4.757,0,0,0,.3,1.852V0Zm-2.4-1.1a2.54,2.54,0,0,0,1.289-.352,2.127,2.127,0,0,0,.883-.914V-4.1h-1.133q-2.656,0-2.656,1.555a1.316,1.316,0,0,0,.453,1.063A1.742,1.742,0,0,0,180.484-1.1Z" transform="translate(1097 4406)" fill="#12263f"/>
      <path id="Trazado_149858" data-name="Trazado 149858" d="M875-8779.5h68.607" transform="translate(-184.607 13180)" fill="none" stroke="#fade9f" stroke-width="2"/>
      <path id="Trazado_149958" data-name="Trazado 149958" d="M875-8779.5h68.607" transform="translate(125 13180)" fill="none" stroke="#fade9f" stroke-width="2"/>
      <g id="Grupo_144797" data-name="Grupo 144797" transform="translate(320.393 1506)">
        <rect id="Rectángulo_38994-3" data-name="Rectángulo 38994" width="172" height="77" rx="10" transform="translate(188 2601)" fill="#ffb9b1"/>
        <g id="Rectángulo_39002-3" data-name="Rectángulo 39002" transform="translate(180 2593)" fill="none" stroke="#ffb9b1" stroke-width="2">
          <rect width="190" height="95" rx="10" stroke="none"/>
          <rect x="1" y="1" width="188" height="93" rx="9" fill="none"/>
        </g>
        <path id="Trazado_151538" data-name="Trazado 151538" d="M11.443-1.582A4.96,4.96,0,0,1,9.36-.308,8.984,8.984,0,0,1,6.354.176,5.36,5.36,0,0,1,2.338-1.362,6.226,6.226,0,0,1,.729-5.643L.721-6.75a7.637,7.637,0,0,1,.668-3.3A4.96,4.96,0,0,1,3.3-12.221a5.407,5.407,0,0,1,2.878-.76,5.669,5.669,0,0,1,3.713,1.094,4.637,4.637,0,0,1,1.542,3.265H8.464a2.426,2.426,0,0,0-.686-1.529,2.212,2.212,0,0,0-1.494-.457,2.013,2.013,0,0,0-1.793.984A5.256,5.256,0,0,0,3.85-6.812v.773A5.145,5.145,0,0,0,4.5-3.16,2.316,2.316,0,0,0,6.565-2.2a2.592,2.592,0,0,0,1.793-.536V-4.72H6.214V-6.838h5.229ZM17.7.176a4.889,4.889,0,0,1-3.542-1.305,4.507,4.507,0,0,1-1.354-3.4v-.246a5.84,5.84,0,0,1,.541-2.575,3.955,3.955,0,0,1,1.578-1.727,4.763,4.763,0,0,1,2.461-.611,4.117,4.117,0,0,1,3.164,1.244,4.887,4.887,0,0,1,1.16,3.467v1.151H15.82a2.135,2.135,0,0,0,.694,1.257,2.066,2.066,0,0,0,1.389.457,2.662,2.662,0,0,0,2.2-.984l1.354,1.6A3.784,3.784,0,0,1,19.885-.277,5.3,5.3,0,0,1,17.7.176ZM17.367-7.4q-1.3,0-1.547,1.723h2.988v-.229a1.467,1.467,0,0,0-.36-1.1A1.434,1.434,0,0,0,17.367-7.4Zm5.159,2.558a5.613,5.613,0,0,1,.554-2.536,3.96,3.96,0,0,1,1.591-1.709,4.791,4.791,0,0,1,2.435-.6,4.373,4.373,0,0,1,3.366,1.323,5.076,5.076,0,0,1,1.23,3.6v.105a4.925,4.925,0,0,1-1.235,3.529A4.384,4.384,0,0,1,27.123.176a4.434,4.434,0,0,1-3.261-1.217,4.761,4.761,0,0,1-1.327-3.3Zm2.962.185A3.538,3.538,0,0,0,25.9-2.725a1.376,1.376,0,0,0,1.222.615q1.582,0,1.617-2.435v-.3q0-2.558-1.635-2.558Q25.62-7.4,25.5-5.194ZM35.807-9.51l.1,1.116a3.27,3.27,0,0,1,2.716-1.292,2.407,2.407,0,0,1,2.435,1.433,3.165,3.165,0,0,1,2.795-1.433q2.892,0,2.971,3.5V0H43.849V-6A1.813,1.813,0,0,0,43.6-7.066a1.048,1.048,0,0,0-.9-.334,1.4,1.4,0,0,0-1.31.782l.009.123V0H38.435V-5.985A1.906,1.906,0,0,0,38.2-7.066a1.045,1.045,0,0,0-.905-.334,1.42,1.42,0,0,0-1.3.782V0H33.029V-9.51ZM53.112.176A4.889,4.889,0,0,1,49.57-1.129a4.507,4.507,0,0,1-1.354-3.4v-.246a5.84,5.84,0,0,1,.541-2.575,3.955,3.955,0,0,1,1.578-1.727A4.763,4.763,0,0,1,52.8-9.686,4.117,4.117,0,0,1,55.96-8.442a4.887,4.887,0,0,1,1.16,3.467v1.151H51.231a2.135,2.135,0,0,0,.694,1.257,2.066,2.066,0,0,0,1.389.457,2.662,2.662,0,0,0,2.2-.984l1.354,1.6A3.784,3.784,0,0,1,55.3-.277,5.3,5.3,0,0,1,53.112.176ZM52.778-7.4q-1.3,0-1.547,1.723H54.22v-.229a1.467,1.467,0,0,0-.36-1.1A1.434,1.434,0,0,0,52.778-7.4Zm8.982-4.474V-9.51h1.564v2.057H61.761V-3.1a1.111,1.111,0,0,0,.193.747,1.037,1.037,0,0,0,.765.211,4.345,4.345,0,0,0,.738-.053V-.079a5.466,5.466,0,0,1-1.67.255,3.1,3.1,0,0,1-2.259-.721A2.954,2.954,0,0,1,58.8-2.733v-4.72H57.586V-9.51H58.8v-2.364Zm8.481,5.045-.976-.07a1.752,1.752,0,0,0-1.793.879V0H64.512V-9.51h2.777l.1,1.222a2.294,2.294,0,0,1,2.083-1.4,2.888,2.888,0,0,1,.826.105ZM74.54,0H71.561V-9.51H74.54ZM73.433-13.324h3.129l-2.443,2.76-2.417,0ZM81.8,0a3.344,3.344,0,0,1-.281-.853A2.754,2.754,0,0,1,79.233.176a3.374,3.374,0,0,1-2.285-.813,2.588,2.588,0,0,1-.94-2.043A2.66,2.66,0,0,1,77.15-5.019a5.821,5.821,0,0,1,3.322-.791h.914v-.5q0-1.316-1.134-1.316A.927.927,0,0,0,79.2-6.587H76.236A2.655,2.655,0,0,1,77.41-8.825a4.931,4.931,0,0,1,2.993-.86,4.323,4.323,0,0,1,2.874.888,3.086,3.086,0,0,1,1.081,2.435v4.21a4.311,4.311,0,0,0,.4,2V0ZM79.945-1.934a1.652,1.652,0,0,0,.918-.237,1.487,1.487,0,0,0,.523-.536V-4.228h-.861q-1.547,0-1.547,1.389a.848.848,0,0,0,.272.655A.986.986,0,0,0,79.945-1.934Zm11.03-.738a.684.684,0,0,0-.4-.606,6.016,6.016,0,0,0-1.5-.475A6.853,6.853,0,0,1,87.249-4.4a3.062,3.062,0,0,1-1.1-.971,2.319,2.319,0,0,1-.378-1.31,2.628,2.628,0,0,1,1.081-2.158,4.453,4.453,0,0,1,2.83-.848,4.934,4.934,0,0,1,3.023.853A2.666,2.666,0,0,1,93.85-6.592H90.879q0-1.143-1.2-1.143a1.194,1.194,0,0,0-.782.259.8.8,0,0,0-.316.646.737.737,0,0,0,.387.642,3.654,3.654,0,0,0,1.235.4,10.671,10.671,0,0,1,1.49.378A2.706,2.706,0,0,1,93.832-2.76,2.491,2.491,0,0,1,92.676-.642a5.068,5.068,0,0,1-2.993.817A5.172,5.172,0,0,1,87.5-.264a3.645,3.645,0,0,1-1.494-1.2,2.707,2.707,0,0,1-.536-1.591h2.769a1.145,1.145,0,0,0,.439.962,1.808,1.808,0,0,0,1.081.3,1.422,1.422,0,0,0,.91-.246A.787.787,0,0,0,90.976-2.672Z" transform="translate(228 2647)" fill="#12263f"/>
      </g>
      <path id="Trazado_149861" data-name="Trazado 149861" d="M875-9076.5h68.2" transform="translate(-184.607 13223)" fill="none" stroke="#ffb9b1" stroke-width="2"/>
      <path id="Trazado_149862" data-name="Trazado 149862" d="M911.137-9073.361V-9268.5H948.2" transform="translate(-189.607 13318)" fill="none" stroke="#ffb9b1" stroke-width="2"/>
    </g>
  </g>
</svg>
